<svg width="16" height="16" viewBox="0 0 16 16" fill="none" xmlns="http://www.w3.org/2000/svg">
<g id="cutter compensation_left_icon">
<rect id="Rectangle 605" width="16" height="16" rx="2" fill="white"/>
<g id="Group 1318">
<path id="Subtract" d="M4.00012 13.5L2 13.5L2 2.5L8 2.5V4.40426C5.79092 4.40433 4.00012 6.19516 4.00012 8.40426L4.00012 13.5Z" fill="#375278"/>
<path id="Union" fill-rule="evenodd" clip-rule="evenodd" d="M7.7315 5.53625C8.37297 5.13057 9.0847 5.03044 9.64187 5.06489C9.81326 5.07548 9.97097 5.09885 10.1086 5.13041L10.2162 5.15509L9.87973 6.15576C10.5979 6.23354 11.1517 6.51785 11.5719 6.91293C12.2857 7.584 12.6055 8.5655 12.7144 9.36975C12.752 9.64737 12.7647 9.90601 12.7594 10.1266L12.7561 10.265L11.5649 9.83831C11.304 10.9628 10.7613 11.6626 10.1396 12.076C9.49827 12.5024 8.7818 12.6183 8.22371 12.5933C8.05218 12.5856 7.8941 12.565 7.75595 12.5358L7.64793 12.5129L7.98381 11.4562C7.2153 11.3954 6.62879 11.1032 6.18869 10.6894C5.47489 10.0183 5.15508 9.03684 5.04621 8.23258C5.00863 7.95497 4.99586 7.69633 5.00114 7.47578L5.00445 7.33734L6.26352 7.78833C6.53356 6.6405 7.0932 5.93992 7.7315 5.53625ZM6.45306 7.85623L7.99993 8.4104L6.39105 10.6031C6.79939 10.9624 7.33819 11.2138 8.04611 11.2602L8.74592 9.05854L8.87553 8.56561L8.51188 8.36684L6.59753 7.35348C6.54283 7.5098 6.49437 7.67715 6.45306 7.85623ZM8.95288 8.28448L8.94969 8.28359L8.93717 8.33117L8.92575 8.36513L8.68138 8.23156L9.70506 5.27012C9.79379 5.27785 9.87762 5.28917 9.95543 5.3032L8.95288 8.28448ZM9.08622 8.51542L8.93705 9.08273L9.29873 9.27252L11.238 10.2573C11.29 10.1054 11.336 9.94332 11.3753 9.7704L9.76065 9.19193L11.3695 6.99919C10.9806 6.65702 10.4734 6.41271 9.81437 6.35014L9.08622 8.51542ZM11.5158 7.13793L11.5147 7.13939L11.5234 7.14575L11.5158 7.13793ZM12.5274 9.48525L10.3262 8.75917L10.0805 9.09413L12.5603 9.98241C12.5585 9.83044 12.5483 9.66277 12.5274 9.48525ZM8.15712 12.3892L9.1315 9.41068L8.88494 9.2813L7.90625 12.3604C7.98428 12.3731 8.06829 12.383 8.15712 12.3892ZM7.4241 8.85712L5.23638 8.14369C5.21334 7.95631 5.20214 7.77947 5.20028 7.61992L7.68011 8.50821L7.4241 8.85712Z" fill="#375278"/>
</g>
</g>
</svg>
