<svg width="16" height="16" viewBox="0 0 16 16" fill="none" xmlns="http://www.w3.org/2000/svg">
<g id="cutter compensation_right_icon ">
<rect id="Rectangle 605" width="16" height="16" rx="2" fill="white"/>
<g id="Group 1318">
<path id="Subtract" d="M12.2938 13.5312L14.2939 13.5313L14.2939 2.53125L8.29395 2.53125L8.29395 4.43551C10.503 4.43558 12.2938 6.22641 12.2938 8.43551L12.2938 13.5312Z" fill="#375278"/>
<path id="Union" fill-rule="evenodd" clip-rule="evenodd" d="M6.45708 5.56848C7.09856 5.1628 7.81028 5.06267 8.36746 5.09711C8.53884 5.10771 8.69655 5.13108 8.8342 5.16264L8.94183 5.18731L8.60532 6.18798C9.32352 6.26576 9.87724 6.55008 10.2975 6.94516C11.0113 7.61622 11.3311 8.59772 11.44 9.40198C11.4775 9.67959 11.4903 9.93824 11.485 10.1588L11.4817 10.2972L10.2905 9.87054C10.0296 10.995 9.48693 11.6948 8.8652 12.1082C8.22386 12.5346 7.50739 12.6505 6.9493 12.6255C6.77776 12.6179 6.61969 12.5972 6.48154 12.568L6.37351 12.5452L6.70939 11.4884C5.94088 11.4277 5.35438 11.1354 4.91427 10.7216C4.20047 10.0506 3.88066 9.06907 3.77179 8.26481C3.73421 7.98719 3.72145 7.72855 3.72672 7.50801L3.73003 7.36957L4.98911 7.82054C5.25915 6.67272 5.81879 5.97215 6.45708 5.56848ZM5.17865 7.88844L6.72552 8.44263L5.11663 10.6354C5.52498 10.9946 6.06377 11.246 6.7717 11.2924L7.4715 9.09076L7.60112 8.59783L7.23746 8.39907L5.32311 7.38571C5.26842 7.54202 5.21996 7.70936 5.17865 7.88844ZM7.67846 8.31671L7.67527 8.31582L7.66276 8.3634L7.65134 8.39736L7.40696 8.26379L8.43065 5.30235C8.51937 5.31008 8.6032 5.3214 8.68101 5.33543L7.67846 8.31671ZM7.81181 8.54765L7.66263 9.11496L8.02431 9.30475L9.96357 10.2895C10.0156 10.1376 10.0616 9.97555 10.1009 9.80263L8.48623 9.22416L10.0951 7.03142C9.7062 6.68925 9.19895 6.44494 8.53995 6.38237L7.81181 8.54765ZM10.2414 7.17016L10.2403 7.17162L10.249 7.17797L10.2414 7.17016ZM11.253 9.51747L9.05182 8.7914L8.80605 9.12636L11.2859 10.0146C11.2841 9.86267 11.2739 9.69499 11.253 9.51747ZM6.88271 12.4214L7.85709 9.44291L7.61053 9.31352L6.63183 12.3926C6.70986 12.4053 6.79387 12.4152 6.88271 12.4214ZM6.14969 8.88934L3.96197 8.17591C3.93893 7.98853 3.92772 7.81168 3.92587 7.65214L6.4057 8.54043L6.14969 8.88934Z" fill="#375278"/>
</g>
</g>
</svg>
