<svg width="136" height="136" viewBox="0 0 136 136" fill="none" xmlns="http://www.w3.org/2000/svg">
<g id="Group 1315">
<g id="Group 1302">
<g id="Vector 440" filter="url(#filter0_f_316_4413)">
<path d="M132.959 94.4608L68.4613 55.7334L3.92418 94.438L67.5947 133.325L132.959 94.4608Z" stroke="#CDD5DD"/>
</g>
<path id="Vector 436" d="M132.959 84.8573L68.4613 46.1299L3.92418 84.8345L67.5947 123.721L132.959 84.8573Z" fill="#CDD5DD" stroke="white" stroke-opacity="0.3"/>
<path id="Vector 431" opacity="0.5" d="M30.0093 37.3743L68.0093 14.502V61.5965L30.0093 83.4847V37.3743Z" fill="#375278" stroke="white"/>
<g id="Vector 443">
<path d="M105.832 37.3743L67.8315 14.502V61.4169L105.832 83.4847V37.3743Z" fill="#375278" fill-opacity="0.16"/>
<path d="M105.332 82.6161V37.6569L68.3315 15.3865V61.129L105.332 82.6161Z" stroke="#375278" stroke-opacity="0.16"/>
</g>
<g id="Vector 433">
<path d="M105.721 83.4497L67.9797 61.3682L29.9268 83.4497L67.9797 106.794L105.721 83.4497Z" fill="#375278" fill-opacity="0.16"/>
<path d="M67.9786 106.206L104.751 83.4616L67.9787 61.9469L30.9025 83.4616L67.9786 106.206Z" stroke="#375278" stroke-opacity="0.16"/>
</g>
<path id="Vector 436_2" d="M88.2294 72.7882C69.6157 87.4875 54.0464 76.6893 48.0283 72.644L68.0963 61.0518L88.2294 72.7882Z" stroke="white"/>
<path id="Vector 441" d="M67.6585 60.8884L48.4093 72.1451C47.0156 61.2825 50.3121 53.7448 54.7252 48.5276C58.9315 43.5548 64.1709 40.6681 67.4249 39.0438L67.6585 60.8884Z" fill="url(#paint0_linear_316_4413)" stroke="#375278"/>
<path id="Vector 442" d="M88.0795 73.1664C91.4078 50.3476 74.217 41.4163 67.8852 38.3155L67.8852 61.7838L88.0795 73.1664Z" stroke="white"/>
<g id="Vector">
<path d="M115.192 86.3262L117.656 90.0583L113.192 89.7903L115.192 86.3262Z" fill="#8293AB"/>
<path d="M114.692 87.1922L113.692 88.9243L66.9263 61.9243L67.9263 60.1922L114.692 87.1922Z" fill="#8293AB"/>
</g>
<g id="Vector_2">
<path d="M20.6619 86.3262L18.1978 90.0583L22.6619 89.7903L20.6619 86.3262Z" fill="#5D7392"/>
<path d="M21.1619 87.1922L22.1619 88.9243L68.9272 61.9243L67.9272 60.1922L21.1619 87.1922Z" fill="#5D7392"/>
</g>
<g id="Vector_3">
<path d="M65.9243 7.77539L67.9244 3.77539L69.9243 7.77539H65.9243Z" fill="#5D7392"/>
<path d="M66.9243 7.77539H68.9243V61.7754H66.9243V7.77539Z" fill="#5D7392"/>
</g>
<path id="xy" d="M63.8062 76.001L65.9462 72.211L63.9462 68.671H64.9662L65.9662 70.541C66.1562 70.881 66.3062 71.191 66.5462 71.611H66.5862C66.7862 71.191 66.9262 70.881 67.1062 70.541L68.0862 68.671H69.0562L67.0562 72.261L69.1962 76.001H68.1762L67.0962 74.021C66.9062 73.661 66.7062 73.281 66.4662 72.841H66.4262C66.2162 73.281 66.0262 73.661 65.8362 74.021L64.7762 76.001H63.8062ZM71.5587 76.001V73.151L69.3587 68.671H70.3487L71.2887 70.741C71.5287 71.281 71.7487 71.791 72.0087 72.341H72.0487C72.3087 71.791 72.5587 71.281 72.7787 70.741L73.7287 68.671H74.6887L72.4887 73.151V76.001H71.5587Z" fill="white"/>
<g id="Group 1303">
<g id="Group 1304">
<path id="yz" d="M73.4375 58.3574L73.5369 55.5091L71.7508 49.999L72.6249 50.4638L73.3826 52.9738C73.5757 53.6262 73.7521 54.2391 73.9625 54.9109L73.9978 54.9296C74.2466 54.502 74.4851 54.1097 74.6982 53.6733L75.6093 52.0506L76.4569 52.5013L74.3581 55.9457L74.2586 58.794L73.4375 58.3574ZM76.3773 59.9205L76.3965 59.3708L80.0229 55.1913L76.9149 53.5388L76.9421 52.7593L81.0566 54.947L81.0378 55.4867L77.4114 59.6662L80.8637 61.5018L80.8361 62.2913L76.3773 59.9205Z" fill="white"/>
<g id="Group 1308">
<path id="zx" d="M55.6751 63.7757L55.6655 63.2258L58.6917 54.952L55.8439 57.021L55.8303 56.2411L59.6003 53.502L59.6098 54.042L56.5836 62.3158L59.7468 60.0175L59.7606 60.8074L55.6751 63.7757ZM60.2828 60.4281L61.9479 55.3808L60.2681 53.0169L61.0933 52.4173L61.935 53.6993C62.0946 53.9275 62.2214 54.1493 62.4229 54.4282L62.4552 54.4047C62.6097 53.8672 62.7175 53.4749 62.8572 53.0292L63.6174 50.5834L64.4022 50.0133L62.8468 54.7783L64.6434 57.2599L63.8182 57.8594L62.9099 56.5145C62.7499 56.2663 62.5814 56.0039 62.3796 55.705L62.3472 55.7285C62.185 56.2919 62.0379 56.7835 61.8905 57.2552L61.0675 59.8579L60.2828 60.4281Z" fill="#375278"/>
</g>
</g>
</g>
<g id="Group 1306">
<path id="x" opacity="0.6" d="M13.059 89.7666L14.7242 84.7193L13.0443 82.3554L13.8695 81.7559L14.7112 83.0378C14.8708 83.266 14.9976 83.4878 15.1991 83.7667L15.2315 83.7432C15.3859 83.2057 15.4938 82.8135 15.6335 82.3677L16.3937 79.922L17.1784 79.3518L15.623 84.1168L17.4196 86.5984L16.5944 87.1979L15.6861 85.8531C15.5261 85.6048 15.3577 85.3424 15.1558 85.0435L15.1235 85.067C14.9613 85.6304 14.8142 86.122 14.6668 86.5937L13.8437 89.1964L13.059 89.7666Z" fill="#375278"/>
<path id="Z" opacity="0.6" d="M73.0153 4.72816H78.2153V5.40816L73.7753 11.1582H78.4553V11.8682H72.7153V11.1982L77.1653 5.43816H73.0153V4.72816Z" fill="#375278"/>
<path id="y" opacity="0.6" d="M121.619 87.8896L121.718 85.0413L119.932 79.5312L120.806 79.996L121.564 82.5061C121.757 83.1584 121.933 83.7714 122.144 84.4431L122.179 84.4619C122.428 84.0343 122.666 83.642 122.879 83.2056L123.79 81.5828L124.638 82.0335L122.539 85.478L122.44 88.3262L121.619 87.8896Z" fill="#375278"/>
</g>
</g>
</g>
<defs>
<filter id="filter0_f_316_4413" x="0.958496" y="53.1504" width="134.976" height="82.7578" filterUnits="userSpaceOnUse" color-interpolation-filters="sRGB">
<feFlood flood-opacity="0" result="BackgroundImageFix"/>
<feBlend mode="normal" in="SourceGraphic" in2="BackgroundImageFix" result="shape"/>
<feGaussianBlur stdDeviation="1" result="effect1_foregroundBlur_316_4413"/>
</filter>
<linearGradient id="paint0_linear_316_4413" x1="68.049" y1="61.405" x2="54.2603" y2="50.8129" gradientUnits="userSpaceOnUse">
<stop offset="0.397796" stop-color="#7386A0"/>
<stop offset="1" stop-color="white" stop-opacity="0.6"/>
</linearGradient>
</defs>
</svg>
