<svg width="7" height="21" viewBox="0 0 7 21" fill="none" xmlns="http://www.w3.org/2000/svg">
<g id="tool_icon">
<g id="Group 1259">
<mask id="mask0_320_4330" style="mask-type:alpha" maskUnits="userSpaceOnUse" x="2" y="8" width="3" height="13">
<path id="Vector 404" d="M2.37079 17.4266C2.13079 16.1264 2.27079 13.9051 2.37078 12.957C2.16759 12.0625 2.23679 10.231 2.32348 9.05335C2.32612 9.01747 2.27979 8.9443 2.28246 8.90969C2.29564 8.73852 2.35803 8.62118 2.37078 8.4873H4.37072L4.27072 10.0111C4.67071 11.8802 4.43738 13.7696 4.27072 14.4807C4.59071 15.1308 4.60404 17.325 4.57071 18.3409L4.56344 19.8224L3.27779 20.4968L2.1709 19.803L2.37079 17.4266Z" fill="#4D6587"/>
</mask>
<g mask="url(#mask0_320_4330)">
<path id="Vector 406" d="M2.37087 17.4266C2.13088 16.1264 2.27087 13.9051 2.37086 12.957C2.16736 12.0611 2.23709 10.2254 2.32396 9.04791C2.32656 9.01274 2.25666 8.87571 2.25928 8.84175C2.27238 8.67192 2.3582 8.62029 2.37086 8.4873H4.3708L4.2708 10.0111C4.67079 11.8802 4.43746 13.7696 4.2708 14.4807C4.59079 15.1308 4.60412 17.325 4.57079 18.3409L4.57082 19.8164L3.27086 20.5275L2.1709 19.8164L2.37087 17.4266Z" fill="#375278"/>
<path id="Vector 405" opacity="0.3" d="M2.54939 8.76562C2.41606 9.03651 2.1494 9.74082 2.1494 10.391M2.74938 8.86721C2.64938 9.20582 2.38939 10.0862 2.1494 10.8989M4.69649 16.9606C4.34548 18.2553 3.57523 20.0844 2.97582 20.5233M4.70525 17.8146C4.46764 18.5826 3.90477 20.0523 3.26479 20.6212M4.42066 9.45725C4.30324 9.97569 3.91832 11.256 3.43056 11.9937C2.82087 12.9159 2.46861 13.4252 2.02148 14.9392M4.43797 10.2931C4.36571 10.628 4.06193 11.4872 3.5525 12.3241C2.91571 13.3701 2.73958 13.2737 2.15699 15.5723M4.60017 12.6774C4.48275 13.1959 3.94026 14.8885 3.45251 15.6262C2.84281 16.5484 2.49055 17.0577 2.04343 18.5717M4.53887 13.7405C4.46662 14.0754 4.08388 15.1197 3.57445 15.9566C2.93766 17.0026 2.77004 17.0496 2.06075 19.4158" stroke="#96A4B8" stroke-width="0.2"/>
</g>
</g>
<path id="Vector 403" d="M3.45168 9.02997H3.08313C2.66848 9.02997 2.26097 8.92205 1.90066 8.71683C1.44739 8.45865 1.09108 8.05923 0.886113 7.57955L0.319641 6.25381L0.216309 5.89355L6.19262 5.89355L6.11311 6.18645L5.46638 7.69994C5.29403 8.10328 5.00459 8.4456 4.63552 8.6826C4.28233 8.9094 3.87142 9.02997 3.45168 9.02997Z" fill="#375278"/>
<path id="Vector 402" d="M4.72494 7.01637H1.65818C0.947534 7.01637 0.202148 6.43114 0.202148 5.70922L0.20215 1.91992L6.20195 1.91992L6.20195 5.69967C6.20194 6.42686 5.44078 7.01637 4.72494 7.01637Z" fill="#375278"/>
<ellipse id="Ellipse 31" cx="3.20156" cy="1.91923" rx="2.9999" ry="1.42216" fill="#96A4B8"/>
</g>
</svg>
