<svg width="16" height="16" viewBox="0 0 16 16" fill="none" xmlns="http://www.w3.org/2000/svg">
<g id="cooling_liquid_close_icon">
<rect id="Rectangle 605" width="16" height="16" rx="2" fill="white"/>
<g id="Group 1324">
<path id="Union" d="M6.4209 3.11816H10.7174V5.11816H9.56934V6.20312H11.7085V5.20312H13.7085V9.20312H11.7085V8.20312H9.56934V9.11471H7.56934V8.20312H5.55664V10.4355H3.55664V7.20312C3.55664 6.65084 4.00436 6.20312 4.55664 6.20312H7.56934V5.11816H6.4209V3.11816Z" fill="#375278"/>
<g id="Vector">
<path d="M4.39872 11.2256H4.68421V12.9442H4.39872V11.2256Z" fill="#56CCF2"/>
<path d="M3.90226 10.8369L4.10413 11.0388L2.88889 12.254L2.68701 12.0522L3.90226 10.8369Z" fill="#56CCF2"/>
<path d="M5.10734 10.8369L4.90546 11.0388L6.12071 12.254L6.32258 12.0522L5.10734 10.8369Z" fill="#56CCF2"/>
</g>
</g>
<rect id="Rectangle 618" x="10.9085" y="1.65849" width="1.3" height="13.5" transform="rotate(30 10.9085 1.65849)" fill="#375278" stroke="white" stroke-width="0.5"/>
</g>
</svg>
