<svg width="107" height="107" viewBox="0 0 107 107" fill="none" xmlns="http://www.w3.org/2000/svg">
<g id="MRN_X">
<g id="Group 2097">
<g id="Group 1847">
<path id="Vector 663" d="M23.1216 46.9521L36.1216 57.9521H76.1216L65.1191 46.9521H23.1216Z" fill="#ECEFF4"/>
<path id="Vector 666" d="M61.1152 49.3329V62.172L66.9597 66.9111V54.97L61.1152 49.3329Z" fill="#7D8DA4"/>
<path id="Vector 665" d="M36.9077 62.1498L44.9136 66.9111H66.9597L61.1162 62.1597L36.9077 62.1498Z" fill="#D1D8E2"/>
<rect id="Rectangle 785" width="24.1338" height="12.8237" transform="matrix(1 0 0 -1 36.9893 62.1592)" fill="#9DA6BA"/>
<path id="Vector 664" d="M65.1221 24.9521V46.9521L76.1221 57.9521V37.274L65.1221 24.9521Z" fill="#7D8DA4"/>
<rect id="Rectangle 784" width="42" height="22" transform="matrix(1 0 0 -1 23.1216 46.9521)" fill="#B4BBCC"/>
</g>
<g id="&#229;&#136;&#128;&#229;&#133;&#183;">
<path id="Rectangle 223" d="M52.8062 98.4802C52.8062 98.5906 52.8957 98.6802 53.0062 98.6802H83.6061C83.7166 98.6802 83.8062 98.5906 83.8062 98.4802V91.6802H52.8062V98.4802Z" fill="url(#paint0_linear_297_4110)"/>
<path id="Rectangle 225" d="M63.8062 88.6802H72.782L72.8062 58.6802H63.8303L63.831 67.9059L63.831 77.706L63.8062 88.6802Z" fill="url(#paint1_linear_297_4110)"/>
<path id="Vector 9" d="M52.8062 91.6802L61.4173 83.6802H75.195L83.8062 91.6802H52.8062Z" fill="url(#paint2_linear_297_4110)"/>
</g>
<g id="Group 2057">
<rect id="Rectangle 787" x="60.1357" y="3.6709" width="1" height="58.3521" fill="#375278"/>
<path id="X" d="M52.3521 4L54.4921 7.79L52.4921 11.33H53.5121L54.5121 9.46C54.7021 9.12 54.8521 8.81 55.0921 8.39H55.1321C55.3321 8.81 55.4721 9.12 55.6521 9.46L56.6321 11.33H57.6021L55.6021 7.74L57.7421 4H56.7221L55.6421 5.98C55.4521 6.34 55.2521 6.72 55.0121 7.16H54.9721C54.7621 6.72 54.5721 6.34 54.3821 5.98L53.3221 4H52.3521Z" fill="#375278"/>
<rect id="Rectangle 788" x="48.6738" y="3.6709" width="1" height="50.0815" fill="#375278"/>
<g id="Group 1853">
<rect id="Rectangle 232" x="44.6724" y="44.8999" width="9" height="9" rx="4.5" fill="white" stroke="black"/>
<rect id="Rectangle 234" x="55.1528" y="48.8999" width="1" height="12" transform="rotate(90 55.1528 48.8999)" fill="black"/>
<rect id="Rectangle 235" x="48.6724" y="43.3999" width="1" height="12" fill="black"/>
<path id="Vector 12" d="M48.7607 54.3274V49.0332H54.0549C54.0549 49.0332 53.3932 53.6656 48.7607 54.3274Z" fill="black"/>
</g>
<g id="Vector">
<path d="M48.682 7.5249L43.682 11.5249V3.5249L48.682 7.5249Z" fill="#375278"/>
<path d="M33.5078 8.2749H44.5078V6.7749H33.5078V8.2749Z" fill="#375278"/>
</g>
<g id="Vector_2">
<path d="M61.1154 7.5249L66.1154 11.5249V3.5249L61.1154 7.5249Z" fill="#375278"/>
<path d="M76.2896 8.2749H65.2896V6.7749H76.2896V8.2749Z" fill="#375278"/>
</g>
</g>
</g>
</g>
<defs>
<linearGradient id="paint0_linear_297_4110" x1="54.7381" y1="97.1367" x2="81.637" y2="96.672" gradientUnits="userSpaceOnUse">
<stop stop-color="#5D7492"/>
<stop offset="0.505208" stop-color="#EAECF0"/>
<stop offset="0.5625" stop-color="#D3D7DF"/>
<stop offset="1" stop-color="#63748B"/>
</linearGradient>
<linearGradient id="paint1_linear_297_4110" x1="73.1708" y1="77.9049" x2="63.4562" y2="77.8888" gradientUnits="userSpaceOnUse">
<stop stop-color="#8B98AB"/>
<stop offset="0.218628" stop-color="#E3E7F2"/>
<stop offset="0.424027" stop-color="#B4BBCD"/>
<stop offset="0.776042" stop-color="#6E7C95"/>
<stop offset="1" stop-color="#546885"/>
</linearGradient>
<linearGradient id="paint2_linear_297_4110" x1="54.925" y1="89.1046" x2="81.6512" y2="88.6504" gradientUnits="userSpaceOnUse">
<stop stop-color="#576983"/>
<stop offset="0.510417" stop-color="#EAECF0"/>
<stop offset="1" stop-color="#63748B"/>
</linearGradient>
</defs>
</svg>
