<svg width="107" height="106" viewBox="0 0 107 106" fill="none" xmlns="http://www.w3.org/2000/svg">
<g id="MQP_Y">
<g id="Group 2064">
<g id="Group 2033">
<g id="Group 1850" filter="url(#filter0_d_249_6482)">
<g id="Group 1847">
<path id="Vector 663" d="M39.9204 71.3481L52.9204 60.3481H92.9204L81.918 71.3481H39.9204Z" fill="#ECEFF4"/>
<path id="Vector 666" d="M77.9141 68.9674V56.1283L83.7585 51.3892V63.3303L77.9141 68.9674Z" fill="#7D8DA4"/>
<path id="Vector 665" d="M53.7065 56.1505L61.7125 51.3892H83.7585L77.915 56.1406L53.7065 56.1505Z" fill="#D1D8E2"/>
<rect id="Rectangle 785" x="53.7881" y="56.1411" width="24.1338" height="12.8237" fill="#9DA6BA"/>
<path id="Vector 664" d="M81.9209 93.3481V71.3481L92.9209 60.3481V81.0263L81.9209 93.3481Z" fill="#7D8DA4"/>
<rect id="Rectangle 784" x="39.9204" y="71.3481" width="42" height="22" fill="#B4BBCC"/>
</g>
<g id="&#229;&#136;&#128;&#229;&#133;&#183;">
<path id="Rectangle 223" d="M13.9944 76.0952C13.884 76.0952 13.7944 76.0057 13.7944 75.8952L13.7944 45.2952C13.7944 45.1848 13.884 45.0952 13.9944 45.0952L20.7944 45.0952L20.7944 76.0952L13.9944 76.0952Z" fill="url(#paint0_linear_249_6482)"/>
<path id="Rectangle 225" d="M23.7944 65.0952L23.7944 56.1193L53.7944 56.0952L53.7944 65.0711L44.5687 65.0704L34.7686 65.0704L23.7944 65.0952Z" fill="url(#paint1_linear_249_6482)"/>
<path id="Vector 9" d="M20.7944 76.0952L28.7944 67.4841L28.7944 53.7063L20.7944 45.0952L20.7944 76.0952Z" fill="url(#paint2_linear_249_6482)"/>
</g>
</g>
</g>
<path id="Rectangle 787" d="M77.1484 30.9741H78.1484V68.9741H77.1484V30.9741Z" fill="#375278"/>
<path id="Y" d="M66.4448 38.0063V35.1563L68.6448 30.6763H67.6548L66.7148 32.7463C66.4748 33.2863 66.2548 33.7963 65.9948 34.3463H65.9548C65.6948 33.7963 65.4448 33.2863 65.2248 32.7463L64.2748 30.6763H63.3148L65.5148 35.1563V38.0063H66.4448Z" fill="#375278"/>
<rect id="Rectangle 788" x="53.7896" y="30.9741" width="1" height="38" fill="#375278"/>
<g id="Group 1853">
<rect id="Rectangle 232" x="73.145" y="64.394" width="9" height="9" rx="4.5" fill="white" stroke="black"/>
<rect id="Rectangle 234" x="83.6255" y="68.394" width="1" height="12" transform="rotate(90 83.6255 68.394)" fill="black"/>
<rect id="Rectangle 235" x="77.145" y="62.894" width="1" height="12" fill="black"/>
<path id="Vector 12" d="M77.2334 73.8215V68.5273H82.5276C82.5276 68.5273 81.8658 73.1598 77.2334 73.8215Z" fill="black"/>
</g>
<g id="Vector">
<path d="M53.7977 34.5313L48.7977 30.5312V38.5312L53.7977 34.5313Z" fill="#375278"/>
<path d="M38.6235 33.7812H49.6235V35.2812H38.6235V33.7812Z" fill="#375278"/>
</g>
<g id="Vector_2">
<path d="M78.1315 34.5313L83.1315 30.5312V38.5312L78.1315 34.5313Z" fill="#375278"/>
<path d="M93.3057 33.7812H82.3057V35.2812H93.3057V33.7812Z" fill="#375278"/>
</g>
</g>
</g>
<defs>
<filter id="filter0_d_249_6482" x="10.7944" y="43.0952" width="87.1265" height="56.2529" filterUnits="userSpaceOnUse" color-interpolation-filters="sRGB">
<feFlood flood-opacity="0" result="BackgroundImageFix"/>
<feColorMatrix in="SourceAlpha" type="matrix" values="0 0 0 0 0 0 0 0 0 0 0 0 0 0 0 0 0 0 127 0" result="hardAlpha"/>
<feOffset dx="1" dy="2"/>
<feGaussianBlur stdDeviation="2"/>
<feColorMatrix type="matrix" values="0 0 0 0 0.215686 0 0 0 0 0.321569 0 0 0 0 0.470588 0 0 0 0.3 0"/>
<feBlend mode="normal" in2="BackgroundImageFix" result="effect1_dropShadow_249_6482"/>
<feBlend mode="normal" in="SourceGraphic" in2="effect1_dropShadow_249_6482" result="shape"/>
</filter>
<linearGradient id="paint0_linear_249_6482" x1="15.3379" y1="74.1632" x2="15.8027" y2="47.2643" gradientUnits="userSpaceOnUse">
<stop stop-color="#5D7492"/>
<stop offset="0.505208" stop-color="#EAECF0"/>
<stop offset="0.5625" stop-color="#D3D7DF"/>
<stop offset="1" stop-color="#63748B"/>
</linearGradient>
<linearGradient id="paint1_linear_249_6482" x1="34.5697" y1="55.7305" x2="34.5858" y2="65.4451" gradientUnits="userSpaceOnUse">
<stop stop-color="#8B98AB"/>
<stop offset="0.218628" stop-color="#E3E7F2"/>
<stop offset="0.424027" stop-color="#B4BBCD"/>
<stop offset="0.776042" stop-color="#6E7C95"/>
<stop offset="1" stop-color="#546885"/>
</linearGradient>
<linearGradient id="paint2_linear_249_6482" x1="23.37" y1="73.9764" x2="23.8242" y2="47.2502" gradientUnits="userSpaceOnUse">
<stop stop-color="#576983"/>
<stop offset="0.510417" stop-color="#EAECF0"/>
<stop offset="1" stop-color="#63748B"/>
</linearGradient>
</defs>
</svg>
