<svg width="106" height="106" viewBox="0 0 106 106" fill="none" xmlns="http://www.w3.org/2000/svg">
<g id="MPN_Z">
<g id="Group 2096">
<path id="Rectangle 787" d="M96.7563 52.3979L96.7563 51.3979L58.2583 51.398L58.2583 52.398L96.7563 52.3979Z" fill="#375278"/>
<g id="Group 2033">
<g id="Group 1850" filter="url(#filter0_d_249_6714)">
<g id="Group 1847">
<path id="Vector 663" d="M80.123 71.3477L67.123 60.3477H27.123L38.1255 71.3477H80.123Z" fill="#ECEFF4"/>
<path id="Vector 666" d="M42.1294 68.9669V56.1278L36.285 51.3887V63.3298L42.1294 68.9669Z" fill="#7D8DA4"/>
<path id="Vector 665" d="M66.3369 56.15L58.331 51.3887H36.2849L42.1284 56.1401L66.3369 56.15Z" fill="#D1D8E2"/>
<rect id="Rectangle 785" width="24.1338" height="12.8237" transform="matrix(-1 0 0 1 66.2554 56.1406)" fill="#9DA6BA"/>
<path id="Vector 664" d="M38.1226 93.3477V71.3477L27.1226 60.3477V81.0258L38.1226 93.3477Z" fill="#7D8DA4"/>
<rect id="Rectangle 784" width="42" height="22" transform="matrix(-1 0 0 1 80.123 71.3477)" fill="#B4BBCC"/>
</g>
<g id="&#229;&#136;&#128;&#229;&#133;&#183;">
<path id="Rectangle 223" d="M10.305 64.748C10.1945 64.748 10.105 64.6585 10.105 64.548L10.105 33.948C10.105 33.8376 10.1945 33.748 10.305 33.748L17.105 33.748L17.105 64.748L10.305 64.748Z" fill="url(#paint0_linear_249_6714)"/>
<path id="Rectangle 225" d="M20.105 53.748L20.105 44.7722L50.105 44.748L50.105 53.7239L40.8792 53.7232L31.0792 53.7232L20.105 53.748Z" fill="url(#paint1_linear_249_6714)"/>
<path id="Vector 9" d="M17.105 64.748L25.105 56.1369L25.105 42.3592L17.105 33.748L17.105 64.748Z" fill="url(#paint2_linear_249_6714)"/>
</g>
</g>
</g>
<path id="Z" d="M90.4766 63.4883V62.9383L94.3466 56.9383H90.8266V56.1583H95.4866V56.6983L91.6166 62.6983H95.5266V63.4883H90.4766Z" fill="#375278"/>
<path id="Rectangle 788" d="M96.2056 69.3926L96.2056 68.3926L66.2056 68.3926L66.2056 69.3926L96.2056 69.3926Z" fill="#375278"/>
<g id="Group 1853">
<rect id="Rectangle 232" x="61.8418" y="64.3936" width="9" height="9" rx="4.5" fill="white" stroke="black"/>
<rect id="Rectangle 234" x="72.3223" y="68.3936" width="1" height="12" transform="rotate(90 72.3223 68.3936)" fill="black"/>
<rect id="Rectangle 235" x="65.8418" y="62.8936" width="1" height="12" fill="black"/>
<path id="Vector 12" d="M65.9302 73.8211V68.5269H71.2244C71.2244 68.5269 70.5626 73.1593 65.9302 73.8211Z" fill="black"/>
</g>
<g id="Vector">
<path d="M92.4556 69.3556L96.4556 74.3556L88.4556 74.3556L92.4556 69.3556Z" fill="#375278"/>
<path d="M93.2056 84.5298L93.2056 73.5298L91.7056 73.5298L91.7056 84.5298L93.2056 84.5298Z" fill="#375278"/>
</g>
<g id="Vector_2">
<path d="M93 51.4657L97 46.4657L89 46.4657L93 51.4657Z" fill="#375278"/>
<path d="M93.75 36.2915L93.75 47.2915L92.25 47.2915L92.25 36.2915L93.75 36.2915Z" fill="#375278"/>
</g>
</g>
</g>
<defs>
<filter id="filter0_d_249_6714" x="7.10498" y="31.748" width="78.0181" height="67.5996" filterUnits="userSpaceOnUse" color-interpolation-filters="sRGB">
<feFlood flood-opacity="0" result="BackgroundImageFix"/>
<feColorMatrix in="SourceAlpha" type="matrix" values="0 0 0 0 0 0 0 0 0 0 0 0 0 0 0 0 0 0 127 0" result="hardAlpha"/>
<feOffset dx="1" dy="2"/>
<feGaussianBlur stdDeviation="2"/>
<feColorMatrix type="matrix" values="0 0 0 0 0.215686 0 0 0 0 0.321569 0 0 0 0 0.470588 0 0 0 0.3 0"/>
<feBlend mode="normal" in2="BackgroundImageFix" result="effect1_dropShadow_249_6714"/>
<feBlend mode="normal" in="SourceGraphic" in2="effect1_dropShadow_249_6714" result="shape"/>
</filter>
<linearGradient id="paint0_linear_249_6714" x1="11.6485" y1="62.8161" x2="12.1132" y2="35.9172" gradientUnits="userSpaceOnUse">
<stop stop-color="#5D7492"/>
<stop offset="0.505208" stop-color="#EAECF0"/>
<stop offset="0.5625" stop-color="#D3D7DF"/>
<stop offset="1" stop-color="#63748B"/>
</linearGradient>
<linearGradient id="paint1_linear_249_6714" x1="30.8802" y1="44.3834" x2="30.8963" y2="54.098" gradientUnits="userSpaceOnUse">
<stop stop-color="#8B98AB"/>
<stop offset="0.218628" stop-color="#E3E7F2"/>
<stop offset="0.424027" stop-color="#B4BBCD"/>
<stop offset="0.776042" stop-color="#6E7C95"/>
<stop offset="1" stop-color="#546885"/>
</linearGradient>
<linearGradient id="paint2_linear_249_6714" x1="19.6806" y1="62.6292" x2="20.1347" y2="35.903" gradientUnits="userSpaceOnUse">
<stop stop-color="#576983"/>
<stop offset="0.510417" stop-color="#EAECF0"/>
<stop offset="1" stop-color="#63748B"/>
</linearGradient>
</defs>
</svg>
