<svg width="100" height="100" viewBox="0 0 100 100" fill="none" xmlns="http://www.w3.org/2000/svg">
<g id="C8">
<path id="Rectangle 469" opacity="0.4" d="M0 0H100V100H0V0Z" fill="#E9EEF5"/>
<g id="Group 578">
<path id="Rectangle 448" d="M88.063 73.6277L88.063 25.9694C63.6433 34.7068 50.9176 38.6783 50.9176 49.0042C50.9176 59.3302 60.2039 62.9046 88.063 73.6277Z" fill="#B4BBCC"/>
<path id="Vector 194 (Stroke)" fill-rule="evenodd" clip-rule="evenodd" d="M73.8356 31.7011L88.0659 26.6628L88.0659 25.5144L73.4824 30.7655L73.4756 30.7682C71.2942 31.6283 67.8167 33.064 64.468 34.5778C61.1338 36.0851 57.8809 37.6903 56.1807 38.8892C51.8719 41.9274 50.6118 46.3488 50.5572 50.0608C50.501 53.8801 53.3319 58.8166 57.9857 61.2804C62.5187 63.6802 73.1506 68.3044 78.3472 70.4785C78.9918 70.7482 80.5416 71.354 82.2598 72.0257C82.3756 72.0709 82.4922 72.1165 82.6093 72.1623C84.4699 72.8897 86.7894 73.9655 88.0581 74.4854L88.0581 73.3425C86.7802 72.8189 84.8311 71.9572 82.9734 71.2309C82.8606 71.1869 82.7485 71.143 82.6371 71.0995C80.9075 70.4233 79.3663 69.8209 78.7331 69.556C73.5307 67.3794 62.9402 62.7719 58.4536 60.3966C54.0879 58.0854 51.5071 53.4719 51.5571 50.0755C51.6086 46.5719 52.789 42.5043 56.757 39.7064C58.3675 38.5708 61.5343 37.0015 64.8799 35.489C68.2075 33.9847 71.6659 32.5568 73.8356 31.7011Z" fill="#96A4B8"/>
<circle id="Ellipse 72" cx="5" cy="5" r="4.5" transform="matrix(1.31134e-07 -1 -1 -1.31134e-07 65.4048 54.7988)" fill="white" stroke="#96A4B8"/>
</g>
<path id="Vector 193" d="M50 100L50.0001 -3.34838e-06" stroke="#375278" stroke-opacity="0.2" stroke-dasharray="3 3"/>
<path id="Vector 202" d="M100 50L-3.34838e-06 50" stroke="#375278" stroke-opacity="0.2" stroke-dasharray="3 3"/>
</g>
</svg>
