<svg width="100" height="100" viewBox="0 0 100 100" fill="none" xmlns="http://www.w3.org/2000/svg">
<g id="C6">
<path id="Rectangle 469" opacity="0.4" d="M0 0H100V100H0V0Z" fill="#E9EEF5"/>
<g id="Group 578">
<path id="Rectangle 448" d="M26.3721 87.936L74.0303 87.936C65.293 63.5164 61.3215 50.7906 50.9955 50.7906C40.6696 50.7906 37.0952 60.077 26.3721 87.936Z" fill="#B4BBCC"/>
<path id="Vector 194 (Stroke)" fill-rule="evenodd" clip-rule="evenodd" d="M68.2984 73.7084L73.3367 87.9387L74.4851 87.9387L69.234 73.3552L69.2314 73.3484C68.3712 71.167 66.9355 67.6895 65.4217 64.3408C63.9144 61.0066 62.3092 57.7537 61.1103 56.0535C58.0721 51.7447 53.6508 50.4846 49.9387 50.43C46.1194 50.3738 41.1829 53.2047 38.7191 57.8585C36.3193 62.3915 31.6951 73.0234 29.521 78.22C29.2513 78.8646 28.6455 80.4145 27.9739 82.1326C27.9286 82.2484 27.883 82.365 27.8372 82.4821C27.1098 84.3427 26.034 86.6622 25.5142 87.9309L26.657 87.9309C27.1806 86.653 28.0423 84.7039 28.7686 82.8462C28.8127 82.7335 28.8565 82.6213 28.9 82.5099C29.5762 80.7803 30.1786 79.2391 30.4435 78.6059C32.6201 73.4035 37.2276 62.813 39.6029 58.3264C41.9141 53.9607 46.5277 51.3799 49.924 51.4299C53.4276 51.4814 57.4952 52.6618 60.2931 56.6298C61.4287 58.2403 62.998 61.4071 64.5105 64.7527C66.0148 68.0803 67.4427 71.5387 68.2984 73.7084Z" fill="#96A4B8"/>
<circle id="Ellipse 72" cx="5" cy="5" r="4.5" transform="matrix(1 8.74228e-08 8.74228e-08 -1 45.2007 65.2778)" fill="white" stroke="#96A4B8"/>
</g>
<path id="Vector 193" d="M50 100L50.0001 -3.34838e-06" stroke="#375278" stroke-opacity="0.2" stroke-dasharray="3 3"/>
<path id="Vector 202" d="M100 50L-3.34838e-06 50" stroke="#375278" stroke-opacity="0.2" stroke-dasharray="3 3"/>
</g>
</svg>
