<svg width="100" height="100" viewBox="0 0 100 100" fill="none" xmlns="http://www.w3.org/2000/svg">
<g id="C3">
<path id="Rectangle 469" opacity="0.4" d="M0 0H100V100H0V0Z" fill="#E9EEF5"/>
<g id="Group 578">
<path id="Rectangle 448" d="M2.16748 36.3789L35.867 2.67942C46.956 26.125 53.1462 37.9317 45.8447 45.2333C38.5431 52.5348 29.4492 48.4959 2.16748 36.3789Z" fill="#B4BBCC"/>
<path id="Vector 194 (Stroke)" fill-rule="evenodd" clip-rule="evenodd" d="M41.8744 16.7928L35.3747 3.16778L36.1868 2.35571L42.7858 16.3809L42.7887 16.3876C43.723 18.5383 45.1668 22.0124 46.4642 25.4508C47.756 28.8742 48.9211 32.3094 49.2756 34.3594C50.174 39.5545 47.9387 43.5719 45.3525 46.2353C42.6916 48.9757 37.1992 50.4646 32.1663 48.916C27.2641 47.4076 16.4764 43.1595 11.2646 41.0223C10.618 40.7572 9.09371 40.0897 7.40392 39.3497C7.29001 39.2998 7.17535 39.2496 7.06015 39.1992C5.2302 38.3979 2.82932 37.5185 1.56461 36.9889L2.3727 36.1808C3.64659 36.7142 5.63411 37.4831 7.46126 38.2831C7.57215 38.3317 7.68246 38.38 7.79201 38.428C9.49316 39.1729 11.009 39.8367 11.644 40.0971C16.8617 42.2367 27.6083 46.4673 32.4604 47.9602C37.1817 49.4129 42.2688 47.9756 44.6351 45.5387C47.0761 43.0249 49.1176 39.314 48.2903 34.5298C47.9545 32.5879 46.8248 29.239 45.5286 25.8038C44.2394 22.3871 42.8036 18.932 41.8744 16.7928Z" fill="#96A4B8"/>
<circle id="Ellipse 72" cx="38.5745" cy="39.0864" r="4.5" transform="rotate(-45 38.5745 39.0864)" fill="white" stroke="#96A4B8"/>
</g>
<path id="Vector 193" d="M50 100L50.0001 -3.34838e-06" stroke="#375278" stroke-opacity="0.2" stroke-dasharray="3 3"/>
<path id="Vector 202" d="M100 50L-3.34838e-06 50" stroke="#375278" stroke-opacity="0.2" stroke-dasharray="3 3"/>
</g>
</svg>
