<svg width="100" height="100" viewBox="0 0 100 100" fill="none" xmlns="http://www.w3.org/2000/svg">
<g id="C4">
<path id="Rectangle 469" opacity="0.4" d="M0 0H100V100H0V0Z" fill="#E9EEF5"/>
<g id="Group 578">
<path id="Rectangle 448" d="M12.0317 73.6277L12.0317 25.9694C36.4514 34.7068 49.1771 38.6783 49.1771 49.0042C49.1771 59.3302 39.8908 62.9046 12.0317 73.6277Z" fill="#B4BBCC"/>
<path id="Vector 194 (Stroke)" fill-rule="evenodd" clip-rule="evenodd" d="M26.2591 31.7011L12.0288 26.6628L12.0288 25.5144L26.6123 30.7655L26.6191 30.7682C28.8005 31.6283 32.2781 33.064 35.6267 34.5778C38.9609 36.0851 42.2139 37.6903 43.914 38.8892C48.2228 41.9274 49.483 46.3488 49.5375 50.0608C49.5937 53.8801 46.7628 58.8166 42.109 61.2804C37.576 63.6802 26.9441 68.3044 21.7476 70.4785C21.1029 70.7482 19.5531 71.354 17.835 72.0257C17.7191 72.0709 17.6026 72.1165 17.4854 72.1623C15.6249 72.8897 13.3054 73.9655 12.0366 74.4854L12.0366 73.3425C13.3146 72.8189 15.2636 71.9572 17.1213 71.2309C17.2341 71.1869 17.3462 71.143 17.4576 71.0995C19.1873 70.4233 20.7285 69.8209 21.3616 69.556C26.5641 67.3794 37.1545 62.7719 41.6411 60.3966C46.0068 58.0854 48.5876 53.4719 48.5377 50.0755C48.4861 46.5719 47.3057 42.5043 43.3378 39.7064C41.7272 38.5708 38.5604 37.0015 35.2148 35.489C31.8872 33.9847 28.4288 32.5568 26.2591 31.7011Z" fill="#96A4B8"/>
<circle id="Ellipse 72" cx="39.6899" cy="49.7988" r="4.5" transform="rotate(-90 39.6899 49.7988)" fill="white" stroke="#96A4B8"/>
</g>
<path id="Vector 193" d="M50 100L50.0001 -3.34838e-06" stroke="#375278" stroke-opacity="0.2" stroke-dasharray="3 3"/>
<path id="Vector 202" d="M100 50L-3.34838e-06 50" stroke="#375278" stroke-opacity="0.2" stroke-dasharray="3 3"/>
</g>
</svg>
