<svg width="107" height="107" viewBox="0 0 107 107" fill="none" xmlns="http://www.w3.org/2000/svg">
<g id="TRP_Z">
<g id="Group 2065">
<g id="Group 2030">
<g id="Group 1850" filter="url(#filter0_d_574_9592)">
<g id="Group 1849">
<g id="&#229;&#136;&#128;&#229;&#133;&#183;">
<path id="Rectangle 225" d="M25.0938 34.0425L25.0938 52.0425L55.0938 52.0425L55.0938 34.0425L25.0938 34.0425Z" fill="url(#paint0_linear_574_9592)"/>
</g>
<g id="&#231;&#186;&#191;&#230;&#157;&#161;">
<g id="Rectangle 226" filter="url(#filter1_d_574_9592)">
<path d="M27.7877 42.0425L23.9877 42.0425L23.9877 42.5425L21.1377 42.5425L21.1377 42.5425L23.9877 42.5425L23.9877 43.0425L31.5877 43.0425L31.5877 42.5425L33.4877 42.5425L33.4877 43.0425L37.2877 43.0425L37.2877 42.5425L42.9877 42.5425L42.9877 43.0425L50.5877 43.0425L50.5877 42.5425L52.4877 42.5425L52.4877 43.0425L56.2877 43.0425L56.2877 42.5425L59.1377 42.5425L56.2877 42.5425L56.2877 42.0425L48.6877 42.0425L48.6877 42.5425L46.7877 42.5425L46.7877 42.0425L42.9877 42.0425L42.9877 42.5425L37.2877 42.5425L37.2877 42.0425L29.6877 42.0425L29.6877 42.5425L27.7877 42.5425L27.7877 42.0425Z" stroke="black" stroke-dasharray="6 4 2 8" shape-rendering="crispEdges"/>
</g>
</g>
</g>
</g>
</g>
<g id="&#232;&#189;&#166;&#229;&#136;&#128;icon">
<g id="Group 613">
<path id="Vector 207" d="M68.5788 59.5266L98.0324 59.5266L98.0324 68.6699L60.15 68.6699L56.3099 66.384L55.4116 53.8799L64.1338 55.1879C64.1338 55.1879 67.6422 59.2444 68.5788 59.5266Z" fill="url(#paint1_linear_574_9592)"/>
<g id="Group 1840">
<g id="Group 269">
<g id="Group 1853">
<rect id="Rectangle 232" x="85.4097" y="59.5264" width="9" height="9" rx="4.5" fill="white" stroke="black"/>
<rect id="Rectangle 234" x="95.8901" y="63.5264" width="1" height="12" transform="rotate(90 95.8901 63.5264)" fill="black"/>
<rect id="Rectangle 235" x="89.4097" y="58.0264" width="1" height="12" fill="black"/>
<path id="Vector 12" d="M89.498 68.9539V63.6597H94.7923C94.7923 63.6597 94.1305 68.2921 89.498 68.9539Z" fill="black"/>
</g>
</g>
</g>
<ellipse id="Ellipse 84" cx="65.1283" cy="63.1436" rx="1.3974" ry="1.07314" transform="rotate(-90 65.1283 63.1436)" fill="#375278"/>
<path id="Vector 209" d="M65.4624 63.9865L56.2816 62.8062L55.3613 52.3313L64.598 53.8803L65.4624 63.9865Z" fill="url(#paint2_linear_574_9592)" stroke="#375278" stroke-width="0.5"/>
<g id="Group 617">
<rect id="Rectangle 340" width="1.07691" height="1.14619" transform="matrix(0.012273 -0.999925 -0.99995 -0.00999165 60.877 58.647)" fill="#F5F5F5"/>
<rect id="Rectangle 341" width="1.07691" height="1.14619" transform="matrix(0.012273 -0.999925 -0.99995 -0.00999165 62.0229 58.6587)" fill="#375278"/>
<rect id="Rectangle 342" width="1.07691" height="1.14619" transform="matrix(0.012273 -0.999925 -0.99995 -0.00999165 60.8906 57.5703)" fill="#375278"/>
<rect id="Rectangle 343" width="1.07691" height="1.14619" transform="matrix(0.012273 -0.999925 -0.99995 -0.00999165 60.8633 59.7241)" fill="#375278"/>
<rect id="Rectangle 344" width="1.07691" height="1.14619" transform="matrix(0.012273 -0.999925 -0.99995 -0.00999165 59.7295 58.6353)" fill="#375278"/>
</g>
</g>
</g>
<path id="Rectangle 788" d="M55.0942 22.0425L54.0942 22.0425L54.0942 34.0425L55.0942 34.0425L55.0942 22.0425Z" fill="#375278"/>
<path id="Z" d="M32.4722 27.0425V26.4925L36.3422 20.4925H32.8222V19.7125H37.4822V20.2525L33.6122 26.2525H37.5222V27.0425H32.4722Z" fill="#375278"/>
<g id="Vector">
<path d="M54.1003 23.7661L49.1003 27.7661L49.1003 19.7661L54.1003 23.7661Z" fill="#375278"/>
<path d="M39.6421 24.5161L49.9261 24.5161L49.9261 23.0161L39.6421 23.0161L39.6421 24.5161Z" fill="#375278"/>
</g>
</g>
</g>
<defs>
<filter id="filter0_d_574_9592" x="18.1377" y="32.0425" width="46" height="26" filterUnits="userSpaceOnUse" color-interpolation-filters="sRGB">
<feFlood flood-opacity="0" result="BackgroundImageFix"/>
<feColorMatrix in="SourceAlpha" type="matrix" values="0 0 0 0 0 0 0 0 0 0 0 0 0 0 0 0 0 0 127 0" result="hardAlpha"/>
<feOffset dx="1" dy="2"/>
<feGaussianBlur stdDeviation="2"/>
<feColorMatrix type="matrix" values="0 0 0 0 0.215686 0 0 0 0 0.321569 0 0 0 0 0.470588 0 0 0 0.3 0"/>
<feBlend mode="normal" in2="BackgroundImageFix" result="effect1_dropShadow_574_9592"/>
<feBlend mode="normal" in="SourceGraphic" in2="effect1_dropShadow_574_9592" result="shape"/>
</filter>
<filter id="filter1_d_574_9592" x="16.1377" y="38.0425" width="46" height="9" filterUnits="userSpaceOnUse" color-interpolation-filters="sRGB">
<feFlood flood-opacity="0" result="BackgroundImageFix"/>
<feColorMatrix in="SourceAlpha" type="matrix" values="0 0 0 0 0 0 0 0 0 0 0 0 0 0 0 0 0 0 127 0" result="hardAlpha"/>
<feOffset dx="-1"/>
<feGaussianBlur stdDeviation="2"/>
<feComposite in2="hardAlpha" operator="out"/>
<feColorMatrix type="matrix" values="0 0 0 0 0 0 0 0 0 0 0 0 0 0 0 0 0 0 0.25 0"/>
<feBlend mode="normal" in2="BackgroundImageFix" result="effect1_dropShadow_574_9592"/>
<feBlend mode="normal" in="SourceGraphic" in2="effect1_dropShadow_574_9592" result="shape"/>
</filter>
<linearGradient id="paint0_linear_574_9592" x1="34.5" y1="52.7718" x2="34.5737" y2="33.3444" gradientUnits="userSpaceOnUse">
<stop stop-color="#8B98AB"/>
<stop offset="0.218628" stop-color="#E3E7F2"/>
<stop offset="0.424027" stop-color="#B4BBCD"/>
<stop offset="0.776042" stop-color="#6E7C95"/>
<stop offset="1" stop-color="#546885"/>
</linearGradient>
<linearGradient id="paint1_linear_574_9592" x1="71.6776" y1="68.6722" x2="71.7597" y2="59.5257" gradientUnits="userSpaceOnUse">
<stop stop-color="#8B98AB"/>
<stop offset="0.218628" stop-color="#E3E7F2"/>
<stop offset="0.424027" stop-color="#B4BBCD"/>
<stop offset="0.776042" stop-color="#6E7C95"/>
<stop offset="1" stop-color="#546885"/>
</linearGradient>
<linearGradient id="paint2_linear_574_9592" x1="59.0002" y1="64.5966" x2="59.1167" y2="51.8982" gradientUnits="userSpaceOnUse">
<stop offset="0.104167" stop-color="#6B7A91"/>
<stop offset="0.427083" stop-color="#B4BBCD"/>
<stop offset="0.703125" stop-color="#E5EAF9"/>
<stop offset="0.973958" stop-color="#808D9E"/>
</linearGradient>
</defs>
</svg>
