<svg width="107" height="107" viewBox="0 0 107 107" fill="none" xmlns="http://www.w3.org/2000/svg">
<g id="TPP_X">
<g id="Group 2069">
<rect id="Rectangle 789" x="84.0938" y="76.0327" width="1" height="27.9941" transform="rotate(90 84.0938 76.0327)" fill="#375278"/>
<g id="Group 2030">
<g id="Group 1850" filter="url(#filter0_d_574_9423)">
<g id="Group 1849">
<g id="&#229;&#136;&#128;&#229;&#133;&#183;">
<path id="Rectangle 225" d="M56.0942 59.0427L56.0942 77.0427L26.0942 77.0427L26.0942 59.0427L56.0942 59.0427Z" fill="url(#paint0_linear_574_9423)"/>
</g>
<g id="&#231;&#186;&#191;&#230;&#157;&#161;">
<g id="Rectangle 226" filter="url(#filter1_d_574_9423)">
<path d="M53.4442 67.5427L57.2442 67.5427L57.2442 68.0427L60.0942 68.0427L60.0942 68.0427L57.2442 68.0427L57.2442 68.5427L49.6442 68.5427L49.6442 68.0427L47.7442 68.0427L47.7442 68.5427L43.9442 68.5427L43.9442 68.0427L38.2442 68.0427L38.2442 68.5427L30.6442 68.5427L30.6442 68.0427L28.7442 68.0427L28.7442 68.5427L24.9442 68.5427L24.9442 68.0427L22.0942 68.0427L24.9442 68.0427L24.9442 67.5427L32.5442 67.5427L32.5442 68.0427L34.4442 68.0427L34.4442 67.5427L38.2442 67.5427L38.2442 68.0427L43.9442 68.0427L43.9442 67.5427L51.5442 67.5427L51.5442 68.0427L53.4442 68.0427L53.4442 67.5427Z" stroke="black" stroke-dasharray="6 4 2 8" shape-rendering="crispEdges"/>
</g>
</g>
</g>
</g>
</g>
<g id="&#232;&#189;&#166;&#229;&#136;&#128;icon">
<g id="Group 613">
<path id="Vector 207" d="M63.5988 45.5623L63.5988 16.1087L72.7422 16.1087L72.7422 53.9911L70.4563 57.8312L57.9521 58.7295L59.2602 50.0073C59.2602 50.0073 63.3167 46.4989 63.5988 45.5623Z" fill="url(#paint1_linear_574_9423)"/>
<g id="Group 1840">
<g id="Group 269">
<g id="Group 1853">
<rect id="Rectangle 232" x="0.5" y="0.5" width="9" height="9" rx="4.5" transform="matrix(-4.37114e-08 1 1 4.37114e-08 63.0986 19.2568)" fill="white" stroke="black"/>
<rect id="Rectangle 234" width="1" height="12" transform="matrix(1 6.02916e-09 -6.99382e-09 -1 67.5986 30.2371)" fill="black"/>
<rect id="Rectangle 235" width="1" height="12" transform="matrix(-4.37114e-08 1 1 3.06884e-08 62.0986 23.7566)" fill="black"/>
<path id="Vector 12" d="M73.0261 23.845L67.7319 23.845L67.7319 29.1392C67.7319 29.1392 72.3644 28.4774 73.0261 23.845Z" fill="black"/>
</g>
</g>
</g>
<ellipse id="Ellipse 84" cx="67.2159" cy="48.9989" rx="1.3974" ry="1.07314" transform="rotate(-180 67.2159 48.9989)" fill="#375278"/>
<path id="Vector 209" d="M68.0587 48.6648L66.8784 57.8456L56.4036 58.7659L57.9525 49.5292L68.0587 48.6648Z" fill="url(#paint2_linear_574_9423)" stroke="#375278" stroke-width="0.5"/>
<g id="Group 617">
<rect id="Rectangle 340" width="1.07691" height="1.14619" transform="matrix(-0.999925 -0.012273 -0.00999169 0.99995 62.7192 53.2502)" fill="#F5F5F5"/>
<rect id="Rectangle 341" width="1.07691" height="1.14619" transform="matrix(-0.999925 -0.012273 -0.00999169 0.99995 62.731 52.1042)" fill="#375278"/>
<rect id="Rectangle 342" width="1.07691" height="1.14619" transform="matrix(-0.999925 -0.012273 -0.00999169 0.99995 61.6426 53.2366)" fill="#375278"/>
<rect id="Rectangle 343" width="1.07691" height="1.14619" transform="matrix(-0.999925 -0.012273 -0.00999169 0.99995 63.7964 53.2637)" fill="#375278"/>
<rect id="Rectangle 344" width="1.07691" height="1.14619" transform="matrix(-0.999925 -0.012273 -0.00999169 0.99995 62.7075 54.3975)" fill="#375278"/>
</g>
</g>
</g>
<path id="Rectangle 788" d="M84.0879 59.0427L84.0879 60.0427L56.0937 60.0427L56.0938 59.0427L84.0879 59.0427Z" fill="#375278"/>
<g id="Vector">
<path d="M78.5103 59.0537L74.5103 54.0537L82.5103 54.0537L78.5103 59.0537Z" fill="#375278"/>
<path d="M77.7603 44.5923L77.7603 54.8795L79.2603 54.8795L79.2603 44.5923L77.7603 44.5923Z" fill="#375278"/>
</g>
<path id="X" d="M75.5816 71.0413L77.7216 67.2513L75.7216 63.7113H76.7416L77.7416 65.5813C77.9316 65.9213 78.0816 66.2313 78.3216 66.6513H78.3616C78.5616 66.2313 78.7016 65.9213 78.8816 65.5813L79.8616 63.7113H80.8316L78.8316 67.3013L80.9716 71.0413H79.9516L78.8716 69.0613C78.6816 68.7013 78.4816 68.3213 78.2416 67.8813H78.2016C77.9916 68.3213 77.8016 68.7013 77.6116 69.0613L76.5516 71.0413H75.5816Z" fill="#375278"/>
<g id="Vector_2">
<path d="M78.5103 77.0401L74.5103 82.0401L82.5103 82.0401L78.5103 77.0401Z" fill="#375278"/>
<path d="M77.7603 91.4983L77.7603 81.2142L79.2603 81.2142L79.2603 91.4983L77.7603 91.4983Z" fill="#375278"/>
</g>
</g>
</g>
<defs>
<filter id="filter0_d_574_9423" x="19.0942" y="57.0427" width="46" height="26" filterUnits="userSpaceOnUse" color-interpolation-filters="sRGB">
<feFlood flood-opacity="0" result="BackgroundImageFix"/>
<feColorMatrix in="SourceAlpha" type="matrix" values="0 0 0 0 0 0 0 0 0 0 0 0 0 0 0 0 0 0 127 0" result="hardAlpha"/>
<feOffset dx="1" dy="2"/>
<feGaussianBlur stdDeviation="2"/>
<feColorMatrix type="matrix" values="0 0 0 0 0.215686 0 0 0 0 0.321569 0 0 0 0 0.470588 0 0 0 0.3 0"/>
<feBlend mode="normal" in2="BackgroundImageFix" result="effect1_dropShadow_574_9423"/>
<feBlend mode="normal" in="SourceGraphic" in2="effect1_dropShadow_574_9423" result="shape"/>
</filter>
<filter id="filter1_d_574_9423" x="17.0942" y="63.5427" width="46" height="9" filterUnits="userSpaceOnUse" color-interpolation-filters="sRGB">
<feFlood flood-opacity="0" result="BackgroundImageFix"/>
<feColorMatrix in="SourceAlpha" type="matrix" values="0 0 0 0 0 0 0 0 0 0 0 0 0 0 0 0 0 0 127 0" result="hardAlpha"/>
<feOffset dx="-1"/>
<feGaussianBlur stdDeviation="2"/>
<feComposite in2="hardAlpha" operator="out"/>
<feColorMatrix type="matrix" values="0 0 0 0 0 0 0 0 0 0 0 0 0 0 0 0 0 0 0.25 0"/>
<feBlend mode="normal" in2="BackgroundImageFix" result="effect1_dropShadow_574_9423"/>
<feBlend mode="normal" in="SourceGraphic" in2="effect1_dropShadow_574_9423" result="shape"/>
</filter>
<linearGradient id="paint0_linear_574_9423" x1="46.688" y1="77.7721" x2="46.6143" y2="58.3446" gradientUnits="userSpaceOnUse">
<stop stop-color="#8B98AB"/>
<stop offset="0.218628" stop-color="#E3E7F2"/>
<stop offset="0.424027" stop-color="#B4BBCD"/>
<stop offset="0.776042" stop-color="#6E7C95"/>
<stop offset="1" stop-color="#546885"/>
</linearGradient>
<linearGradient id="paint1_linear_574_9423" x1="72.7444" y1="42.4635" x2="63.5979" y2="42.3814" gradientUnits="userSpaceOnUse">
<stop stop-color="#8B98AB"/>
<stop offset="0.218628" stop-color="#E3E7F2"/>
<stop offset="0.424027" stop-color="#B4BBCD"/>
<stop offset="0.776042" stop-color="#6E7C95"/>
<stop offset="1" stop-color="#546885"/>
</linearGradient>
<linearGradient id="paint2_linear_574_9423" x1="68.6689" y1="55.127" x2="55.9705" y2="55.0105" gradientUnits="userSpaceOnUse">
<stop offset="0.104167" stop-color="#6B7A91"/>
<stop offset="0.427083" stop-color="#B4BBCD"/>
<stop offset="0.703125" stop-color="#E5EAF9"/>
<stop offset="0.973958" stop-color="#808D9E"/>
</linearGradient>
</defs>
</svg>
