<svg width="107" height="107" viewBox="0 0 107 107" fill="none" xmlns="http://www.w3.org/2000/svg">
<g id="TRN_X">
<g id="Group 2068">
<g id="Group 2030">
<g id="Group 1850" filter="url(#filter0_d_574_9221)">
<g id="Group 1849">
<g id="&#229;&#136;&#128;&#229;&#133;&#183;">
<path id="Rectangle 225" d="M81.0942 33.0425L81.0942 51.0425L51.0942 51.0425L51.0942 33.0425L81.0942 33.0425Z" fill="url(#paint0_linear_574_9221)"/>
</g>
<g id="&#231;&#186;&#191;&#230;&#157;&#161;">
<g id="Rectangle 226" filter="url(#filter1_d_574_9221)">
<path d="M77.9257 41.0425L81.7257 41.0425L81.7257 41.5425L84.5757 41.5425L84.5757 41.5425L81.7257 41.5425L81.7257 42.0425L74.1257 42.0425L74.1257 41.5425L72.2257 41.5425L72.2257 42.0425L68.4257 42.0425L68.4257 41.5425L62.7257 41.5425L62.7257 42.0425L55.1257 42.0425L55.1257 41.5425L53.2257 41.5425L53.2257 42.0425L49.4257 42.0425L49.4257 41.5425L46.5757 41.5425L49.4257 41.5425L49.4257 41.0425L57.0257 41.0425L57.0257 41.5425L58.9257 41.5425L58.9257 41.0425L62.7257 41.0425L62.7257 41.5425L68.4257 41.5425L68.4257 41.0425L76.0257 41.0425L76.0257 41.5425L77.9257 41.5425L77.9257 41.0425Z" stroke="black" stroke-dasharray="6 4 2 8" shape-rendering="crispEdges"/>
</g>
</g>
</g>
</g>
</g>
<g id="&#232;&#189;&#166;&#229;&#136;&#128;icon">
<g id="Group 613">
<path id="Vector 207" d="M37.6214 58.5305L8.16781 58.5305L8.16781 67.6738L46.0502 67.6738L49.8903 65.388L50.7886 52.8838L42.0664 54.1918C42.0664 54.1918 38.558 58.2483 37.6214 58.5305Z" fill="url(#paint1_linear_574_9221)"/>
<g id="Group 1840">
<g id="Group 269">
<g id="Group 1853">
<rect id="Rectangle 232" x="11.8105" y="58.5303" width="9" height="9" rx="4.5" fill="white" stroke="black"/>
<rect id="Rectangle 234" x="22.291" y="62.5303" width="1" height="12" transform="rotate(90 22.291 62.5303)" fill="black"/>
<rect id="Rectangle 235" x="15.8105" y="57.0303" width="1" height="12" fill="black"/>
<path id="Vector 12" d="M15.8989 67.9578V62.6636H21.1931C21.1931 62.6636 20.5314 67.296 15.8989 67.9578Z" fill="black"/>
</g>
</g>
</g>
<ellipse id="Ellipse 84" cx="1.3974" cy="1.07314" rx="1.3974" ry="1.07314" transform="matrix(-4.37114e-08 -1 -1 4.37114e-08 42.126 63.5449)" fill="#375278"/>
<path id="Vector 209" d="M40.7188 62.9904L49.8995 61.8101L50.8198 51.3352L41.5832 52.8842L40.7188 62.9904Z" fill="url(#paint2_linear_574_9221)" stroke="#375278" stroke-width="0.5"/>
<g id="Group 617">
<rect id="Rectangle 340" width="1.07691" height="1.14619" transform="matrix(-0.012273 -0.999925 0.99995 -0.00999165 45.3042 57.6509)" fill="#F5F5F5"/>
<rect id="Rectangle 341" width="1.07691" height="1.14619" transform="matrix(-0.012273 -0.999925 0.99995 -0.00999165 44.1582 57.6626)" fill="#375278"/>
<rect id="Rectangle 342" width="1.07691" height="1.14619" transform="matrix(-0.012273 -0.999925 0.99995 -0.00999165 45.2905 56.5742)" fill="#375278"/>
<rect id="Rectangle 343" width="1.07691" height="1.14619" transform="matrix(-0.012273 -0.999925 0.99995 -0.00999165 45.3179 58.728)" fill="#375278"/>
<rect id="Rectangle 344" width="1.07691" height="1.14619" transform="matrix(-0.012273 -0.999925 0.99995 -0.00999165 46.4517 57.6392)" fill="#375278"/>
</g>
</g>
</g>
<path id="Rectangle 788" d="M99.0937 33.0449L99.0937 34.0449L81.0937 34.0449L81.0938 33.0449L99.0937 33.0449Z" fill="#375278"/>
<g id="Vector">
<path d="M93.0938 33.0366L89.0938 28.0366L97.0938 28.0366L93.0938 33.0366Z" fill="#375278"/>
<path d="M92.3438 18.5752L92.3438 28.8624L93.8438 28.8624L93.8438 18.5752L92.3438 18.5752Z" fill="#375278"/>
</g>
<path id="X" d="M89.9171 45.0425L92.0571 41.2525L90.0571 37.7125H91.0771L92.0771 39.5825C92.2671 39.9225 92.4171 40.2325 92.6571 40.6525H92.6971C92.8971 40.2325 93.0371 39.9225 93.2171 39.5825L94.1971 37.7125H95.1671L93.1671 41.3025L95.3071 45.0425H94.2871L93.2071 43.0625C93.0171 42.7025 92.8171 42.3225 92.5771 41.8825H92.5371C92.3271 42.3225 92.1371 42.7025 91.9471 43.0625L90.8871 45.0425H89.9171Z" fill="#375278"/>
<g id="Vector_2">
<path d="M93.0938 50.9954L89.0937 55.9954L97.0937 55.9954L93.0938 50.9954Z" fill="#375278"/>
<path d="M92.3438 65.4536L92.3437 55.1696L93.8437 55.1696L93.8438 65.4536L92.3438 65.4536Z" fill="#375278"/>
</g>
<rect id="Rectangle 789" x="99.0938" y="50.0425" width="1" height="18" transform="rotate(90 99.0938 50.0425)" fill="#375278"/>
</g>
</g>
<defs>
<filter id="filter0_d_574_9221" x="43.5757" y="31.0425" width="46" height="26" filterUnits="userSpaceOnUse" color-interpolation-filters="sRGB">
<feFlood flood-opacity="0" result="BackgroundImageFix"/>
<feColorMatrix in="SourceAlpha" type="matrix" values="0 0 0 0 0 0 0 0 0 0 0 0 0 0 0 0 0 0 127 0" result="hardAlpha"/>
<feOffset dx="1" dy="2"/>
<feGaussianBlur stdDeviation="2"/>
<feColorMatrix type="matrix" values="0 0 0 0 0.215686 0 0 0 0 0.321569 0 0 0 0 0.470588 0 0 0 0.3 0"/>
<feBlend mode="normal" in2="BackgroundImageFix" result="effect1_dropShadow_574_9221"/>
<feBlend mode="normal" in="SourceGraphic" in2="effect1_dropShadow_574_9221" result="shape"/>
</filter>
<filter id="filter1_d_574_9221" x="41.5757" y="37.0425" width="46" height="9" filterUnits="userSpaceOnUse" color-interpolation-filters="sRGB">
<feFlood flood-opacity="0" result="BackgroundImageFix"/>
<feColorMatrix in="SourceAlpha" type="matrix" values="0 0 0 0 0 0 0 0 0 0 0 0 0 0 0 0 0 0 127 0" result="hardAlpha"/>
<feOffset dx="-1"/>
<feGaussianBlur stdDeviation="2"/>
<feComposite in2="hardAlpha" operator="out"/>
<feColorMatrix type="matrix" values="0 0 0 0 0 0 0 0 0 0 0 0 0 0 0 0 0 0 0.25 0"/>
<feBlend mode="normal" in2="BackgroundImageFix" result="effect1_dropShadow_574_9221"/>
<feBlend mode="normal" in="SourceGraphic" in2="effect1_dropShadow_574_9221" result="shape"/>
</filter>
<linearGradient id="paint0_linear_574_9221" x1="71.688" y1="51.7718" x2="71.6143" y2="32.3444" gradientUnits="userSpaceOnUse">
<stop stop-color="#8B98AB"/>
<stop offset="0.218628" stop-color="#E3E7F2"/>
<stop offset="0.424027" stop-color="#B4BBCD"/>
<stop offset="0.776042" stop-color="#6E7C95"/>
<stop offset="1" stop-color="#546885"/>
</linearGradient>
<linearGradient id="paint1_linear_574_9221" x1="34.5226" y1="67.6761" x2="34.4405" y2="58.5296" gradientUnits="userSpaceOnUse">
<stop stop-color="#8B98AB"/>
<stop offset="0.218628" stop-color="#E3E7F2"/>
<stop offset="0.424027" stop-color="#B4BBCD"/>
<stop offset="0.776042" stop-color="#6E7C95"/>
<stop offset="1" stop-color="#546885"/>
</linearGradient>
<linearGradient id="paint2_linear_574_9221" x1="47.181" y1="63.6005" x2="47.0644" y2="50.9021" gradientUnits="userSpaceOnUse">
<stop offset="0.104167" stop-color="#6B7A91"/>
<stop offset="0.427083" stop-color="#B4BBCD"/>
<stop offset="0.703125" stop-color="#E5EAF9"/>
<stop offset="0.973958" stop-color="#808D9E"/>
</linearGradient>
</defs>
</svg>
