<svg width="100" height="100" viewBox="0 0 100 100" fill="none" xmlns="http://www.w3.org/2000/svg">
<g id="C2">
<path id="Rectangle 469" opacity="0.4" d="M0 0H100V100H0V0Z" fill="#E9EEF5"/>
<g id="Group 578">
<path id="Rectangle 448" d="M73.6279 12.0483H25.9697C34.707 36.468 38.6785 49.1938 49.0045 49.1938C59.3304 49.1938 62.9048 39.9074 73.6279 12.0483Z" fill="#B4BBCC"/>
<path id="Vector 194 (Stroke)" fill-rule="evenodd" clip-rule="evenodd" d="M31.7011 26.2757L26.6628 12.0454L25.5144 12.0454L30.7655 26.6289L30.7682 26.6357C31.6283 28.8171 33.064 32.2947 34.5778 35.6433C36.0851 38.9775 37.6903 42.2305 38.8892 43.9306C41.9274 48.2394 46.3488 49.4996 50.0608 49.5542C53.8801 49.6103 58.8166 46.7794 61.2804 42.1256C63.6802 37.5926 68.3044 26.9607 70.4785 21.7642C70.7482 21.1195 71.354 19.5697 72.0257 17.8516C72.0709 17.7357 72.1165 17.6192 72.1623 17.502C72.8897 15.6415 73.9655 13.322 74.4854 12.0532L73.3425 12.0532C72.8189 13.3312 71.9572 15.2802 71.2309 17.1379C71.1869 17.2507 71.143 17.3628 71.0995 17.4742C70.4233 19.2039 69.8209 20.7451 69.556 21.3782C67.3794 26.5807 62.7719 37.1712 60.3966 41.6577C58.0854 46.0234 53.4719 48.6042 50.0755 48.5543C46.5719 48.5027 42.5044 47.3223 39.7064 43.3544C38.5708 41.7438 37.0015 38.577 35.489 35.2314C33.9847 31.9038 32.5568 28.4454 31.7011 26.2757Z" fill="#96A4B8"/>
<circle id="Ellipse 72" cx="5" cy="5" r="4.5" transform="matrix(-1 0 0 1 54.7988 34.7065)" fill="white" stroke="#96A4B8"/>
</g>
<path id="Vector 193" d="M50 100L50.0001 -3.34838e-06" stroke="#375278" stroke-opacity="0.2" stroke-dasharray="3 3"/>
<path id="Vector 202" d="M100 50L-3.34838e-06 50" stroke="#375278" stroke-opacity="0.2" stroke-dasharray="3 3"/>
</g>
</svg>
