<svg width="100" height="100" viewBox="0 0 100 100" fill="none" xmlns="http://www.w3.org/2000/svg">
<g id="C7">
<path id="Rectangle 469" opacity="0.4" d="M0 0H100V100H0V0Z" fill="#E9EEF5"/>
<g id="Group 578">
<path id="Rectangle 448" d="M97.79 63.6953L64.0906 97.3948C53.0015 73.9492 46.8113 62.1425 54.1129 54.8409C61.4144 47.5394 70.5083 51.5784 97.79 63.6953Z" fill="#B4BBCC"/>
<path id="Vector 194 (Stroke)" fill-rule="evenodd" clip-rule="evenodd" d="M58.0831 83.2815L64.5828 96.9064L63.7708 97.7185L57.1717 83.6933L57.1688 83.6866C56.2345 81.536 54.7907 78.0618 53.4933 74.6234C52.2015 71.2 51.0364 67.7648 50.6819 65.7149C49.7835 60.5197 52.0188 56.5023 54.605 53.8389C57.2659 51.0986 62.7584 49.6096 67.7912 51.1582C72.6934 52.6666 83.4811 56.9147 88.693 59.0519C89.3395 59.317 90.8638 59.9845 92.5536 60.7245C92.6675 60.7744 92.7822 60.8246 92.8974 60.8751C94.7273 61.6763 97.1282 62.5557 98.3929 63.0853L97.5848 63.8934C96.3109 63.36 94.3234 62.5911 92.4963 61.7911C92.3854 61.7425 92.2751 61.6942 92.1655 61.6463C90.4644 60.9013 88.9486 60.2375 88.3136 59.9771C83.0958 57.8375 72.3492 53.6069 67.4972 52.114C62.7758 50.6613 57.6887 52.0986 55.3224 54.5355C52.8815 57.0494 50.8399 60.7603 51.6673 65.5445C52.0031 67.4863 53.1327 70.8352 54.4289 74.2704C55.7181 77.6871 57.1539 81.1422 58.0831 83.2815Z" fill="#96A4B8"/>
<circle id="Ellipse 72" cx="61.383" cy="60.9875" r="4.5" transform="rotate(135 61.383 60.9875)" fill="white" stroke="#96A4B8"/>
</g>
<path id="Vector 193" d="M50 100L50.0001 -3.34838e-06" stroke="#375278" stroke-opacity="0.2" stroke-dasharray="3 3"/>
<path id="Vector 202" d="M100 50L-3.34838e-06 50" stroke="#375278" stroke-opacity="0.2" stroke-dasharray="3 3"/>
</g>
</svg>
