<svg width="107" height="107" viewBox="0 0 107 107" fill="none" xmlns="http://www.w3.org/2000/svg">
<g id="TPP_Z">
<g id="Group 2070">
<g id="Group 2030">
<g id="Group 1850" filter="url(#filter0_d_574_9559)">
<g id="Group 1849">
<g id="&#229;&#136;&#128;&#229;&#133;&#183;">
<path id="Rectangle 225" d="M61.0933 73.0427L61.0933 55.0427L31.0933 55.0427L31.0933 73.0427L61.0933 73.0427Z" fill="url(#paint0_linear_574_9559)"/>
</g>
<g id="&#231;&#186;&#191;&#230;&#157;&#161;">
<g id="Rectangle 226" filter="url(#filter1_d_574_9559)">
<path d="M58.204 64.5427L62.004 64.5427L62.004 64.0427L64.854 64.0427L64.854 64.0427L62.004 64.0427L62.004 63.5427L54.404 63.5427L54.404 64.0427L52.504 64.0427L52.504 63.5427L48.704 63.5427L48.704 64.0427L43.004 64.0427L43.004 63.5427L35.404 63.5427L35.404 64.0427L33.504 64.0427L33.504 63.5427L29.704 63.5427L29.704 64.0427L26.854 64.0427L29.704 64.0427L29.704 64.5427L37.304 64.5427L37.304 64.0427L39.204 64.0427L39.204 64.5427L43.004 64.5427L43.004 64.0427L48.704 64.0427L48.704 64.5427L56.304 64.5427L56.304 64.0427L58.204 64.0427L58.204 64.5427Z" stroke="black" stroke-dasharray="6 4 2 8" shape-rendering="crispEdges"/>
</g>
</g>
</g>
</g>
</g>
<g id="&#232;&#189;&#166;&#229;&#136;&#128;icon">
<g id="Group 613">
<path id="Vector 207" d="M68.5808 41.5636L68.5808 12.11L77.7241 12.11L77.7241 49.9923L75.4382 53.8325L62.9341 54.7307L64.2421 46.0085C64.2421 46.0085 68.2986 42.5001 68.5808 41.5636Z" fill="url(#paint1_linear_574_9559)"/>
<g id="Group 1840">
<g id="Group 269">
<g id="Group 1853">
<rect id="Rectangle 232" x="0.5" y="0.5" width="9" height="9" rx="4.5" transform="matrix(-4.37114e-08 1 1 4.37114e-08 68.0806 15.2568)" fill="white" stroke="black"/>
<rect id="Rectangle 234" width="1" height="12" transform="matrix(1 6.02916e-09 -6.99382e-09 -1 72.5806 26.2371)" fill="black"/>
<rect id="Rectangle 235" width="1" height="12" transform="matrix(-4.37114e-08 1 1 3.06884e-08 67.0806 19.7566)" fill="black"/>
<path id="Vector 12" d="M78.0081 19.845L72.7139 19.845L72.7139 25.1392C72.7139 25.1392 77.3463 24.4774 78.0081 19.845Z" fill="black"/>
</g>
</g>
</g>
<ellipse id="Ellipse 84" cx="72.1978" cy="44.9989" rx="1.3974" ry="1.07314" transform="rotate(-180 72.1978 44.9989)" fill="#375278"/>
<path id="Vector 209" d="M73.0407 44.6648L71.8604 53.8456L61.3855 54.7659L62.9345 45.5292L73.0407 44.6648Z" fill="url(#paint2_linear_574_9559)" stroke="#375278" stroke-width="0.5"/>
<g id="Group 617">
<rect id="Rectangle 340" width="1.07691" height="1.14619" transform="matrix(-0.999925 -0.012273 -0.00999169 0.99995 67.7012 49.2502)" fill="#F5F5F5"/>
<rect id="Rectangle 341" width="1.07691" height="1.14619" transform="matrix(-0.999925 -0.012273 -0.00999169 0.99995 67.7129 48.1042)" fill="#375278"/>
<rect id="Rectangle 342" width="1.07691" height="1.14619" transform="matrix(-0.999925 -0.012273 -0.00999169 0.99995 66.6245 49.2366)" fill="#375278"/>
<rect id="Rectangle 343" width="1.07691" height="1.14619" transform="matrix(-0.999925 -0.012273 -0.00999169 0.99995 68.7783 49.2637)" fill="#375278"/>
<rect id="Rectangle 344" width="1.07691" height="1.14619" transform="matrix(-0.999925 -0.012273 -0.00999169 0.99995 67.6895 50.3975)" fill="#375278"/>
</g>
</g>
</g>
<path id="Rectangle 788" d="M61.0933 84.6975L60.0933 84.6975L60.0933 73.0427L61.0933 73.0427L61.0933 84.6975Z" fill="#375278"/>
<path id="Z" d="M43.5166 79.9102V80.4602L39.6466 86.4602H43.1666V87.2402H38.5066V86.7002L42.3766 80.7002H38.4666V79.9102H43.5166Z" fill="#375278"/>
<g id="Vector">
<path d="M60.1203 83.1865L55.1203 79.1865L55.1203 87.1865L60.1203 83.1865Z" fill="#375278"/>
<path d="M45.6621 82.4365L55.9462 82.4365L55.9462 83.9365L45.6621 83.9365L45.6621 82.4365Z" fill="#375278"/>
</g>
</g>
</g>
<defs>
<filter id="filter0_d_574_9559" x="23.854" y="53.0427" width="46" height="26" filterUnits="userSpaceOnUse" color-interpolation-filters="sRGB">
<feFlood flood-opacity="0" result="BackgroundImageFix"/>
<feColorMatrix in="SourceAlpha" type="matrix" values="0 0 0 0 0 0 0 0 0 0 0 0 0 0 0 0 0 0 127 0" result="hardAlpha"/>
<feOffset dx="1" dy="2"/>
<feGaussianBlur stdDeviation="2"/>
<feColorMatrix type="matrix" values="0 0 0 0 0.215686 0 0 0 0 0.321569 0 0 0 0 0.470588 0 0 0 0.3 0"/>
<feBlend mode="normal" in2="BackgroundImageFix" result="effect1_dropShadow_574_9559"/>
<feBlend mode="normal" in="SourceGraphic" in2="effect1_dropShadow_574_9559" result="shape"/>
</filter>
<filter id="filter1_d_574_9559" x="21.854" y="59.5427" width="46" height="9" filterUnits="userSpaceOnUse" color-interpolation-filters="sRGB">
<feFlood flood-opacity="0" result="BackgroundImageFix"/>
<feColorMatrix in="SourceAlpha" type="matrix" values="0 0 0 0 0 0 0 0 0 0 0 0 0 0 0 0 0 0 127 0" result="hardAlpha"/>
<feOffset dx="-1"/>
<feGaussianBlur stdDeviation="2"/>
<feComposite in2="hardAlpha" operator="out"/>
<feColorMatrix type="matrix" values="0 0 0 0 0 0 0 0 0 0 0 0 0 0 0 0 0 0 0.25 0"/>
<feBlend mode="normal" in2="BackgroundImageFix" result="effect1_dropShadow_574_9559"/>
<feBlend mode="normal" in="SourceGraphic" in2="effect1_dropShadow_574_9559" result="shape"/>
</filter>
<linearGradient id="paint0_linear_574_9559" x1="51.687" y1="54.3134" x2="51.6133" y2="73.7408" gradientUnits="userSpaceOnUse">
<stop stop-color="#8B98AB"/>
<stop offset="0.218628" stop-color="#E3E7F2"/>
<stop offset="0.424027" stop-color="#B4BBCD"/>
<stop offset="0.776042" stop-color="#6E7C95"/>
<stop offset="1" stop-color="#546885"/>
</linearGradient>
<linearGradient id="paint1_linear_574_9559" x1="77.7264" y1="38.4647" x2="68.5799" y2="38.3826" gradientUnits="userSpaceOnUse">
<stop stop-color="#8B98AB"/>
<stop offset="0.218628" stop-color="#E3E7F2"/>
<stop offset="0.424027" stop-color="#B4BBCD"/>
<stop offset="0.776042" stop-color="#6E7C95"/>
<stop offset="1" stop-color="#546885"/>
</linearGradient>
<linearGradient id="paint2_linear_574_9559" x1="73.6508" y1="51.127" x2="60.9524" y2="51.0105" gradientUnits="userSpaceOnUse">
<stop offset="0.104167" stop-color="#6B7A91"/>
<stop offset="0.427083" stop-color="#B4BBCD"/>
<stop offset="0.703125" stop-color="#E5EAF9"/>
<stop offset="0.973958" stop-color="#808D9E"/>
</linearGradient>
</defs>
</svg>
