<svg width="12" height="18" viewBox="0 0 12 18" fill="none" xmlns="http://www.w3.org/2000/svg">
<g id="&#232;&#189;&#166;&#229;&#136;&#128;">
<g id="Group 613">
<path id="Vector 207" d="M4.67253 9.69845L4.67253 1.15674L9 1.15674L9 13.8326L7.91812 15.7162L2 16.1567L2.61909 11.8786C2.61909 11.8786 4.539 10.1578 4.67253 9.69845Z" fill="url(#paint0_linear_293_4134)" stroke="#375278" stroke-width="0.5"/>
<ellipse id="Ellipse 84" cx="7.75586" cy="10.7374" rx="0.755859" ry="0.580466" transform="rotate(-180 7.75586 10.7374)" fill="#375278"/>
<path id="Vector 209" d="M7.8346 11.3565L7.2261 16.0897L1.8 16.5664L2.59856 11.8043L7.8346 11.3565Z" fill="url(#paint1_linear_293_4134)" stroke="#375278" stroke-width="0.5"/>
<g id="Group 617">
<rect id="Rectangle 340" width="0.582508" height="0.619982" transform="matrix(-0.999925 -0.012273 -0.00999169 0.99995 5.07861 13.71)" fill="#F5F5F5"/>
<rect id="Rectangle 341" width="0.582508" height="0.619982" transform="matrix(-0.999925 -0.012273 -0.00999169 0.99995 5.08496 13.0903)" fill="#375278"/>
<rect id="Rectangle 342" width="0.582508" height="0.619982" transform="matrix(-0.999925 -0.012273 -0.00999169 0.99995 4.49609 13.7026)" fill="#375278"/>
<rect id="Rectangle 343" width="0.582508" height="0.619982" transform="matrix(-0.999925 -0.012273 -0.00999169 0.99995 5.66113 13.7173)" fill="#375278"/>
<rect id="Rectangle 344" width="0.582508" height="0.619982" transform="matrix(-0.999925 -0.012273 -0.00999169 0.99995 5.07227 14.3306)" fill="#375278"/>
</g>
</g>
</g>
<defs>
<linearGradient id="paint0_linear_293_4134" x1="3.30034" y1="10.3043" x2="9.21913" y2="10.3043" gradientUnits="userSpaceOnUse">
<stop offset="0.703125" stop-color="#E5EAF9"/>
</linearGradient>
<linearGradient id="paint1_linear_293_4134" x1="8.29662" y1="14.7255" x2="1.42799" y2="14.6624" gradientUnits="userSpaceOnUse">
<stop offset="0.104167" stop-color="#6B7A91"/>
<stop offset="0.427083" stop-color="#B4BBCD"/>
<stop offset="0.703125" stop-color="#E5EAF9"/>
<stop offset="0.973958" stop-color="#808D9E"/>
</linearGradient>
</defs>
</svg>
