<svg width="100" height="100" viewBox="0 0 100 100" fill="none" xmlns="http://www.w3.org/2000/svg">
<g id="C1">
<path id="Rectangle 469" opacity="0.4" d="M0 0H100V100H0V0Z" fill="#E9EEF5"/>
<g id="Group 578">
<path id="Rectangle 448" d="M97.7959 36.3789L64.0964 2.67942C53.0073 26.125 46.8172 37.9317 54.1187 45.2333C61.4203 52.5348 70.5142 48.4959 97.7959 36.3789Z" fill="#B4BBCC"/>
<path id="Vector 194 (Stroke)" fill-rule="evenodd" clip-rule="evenodd" d="M58.0889 16.7928L64.5887 3.16778L63.7766 2.35571L57.1776 16.3809L57.1747 16.3876C56.2404 18.5383 54.7966 22.0124 53.4992 25.4508C52.2074 28.8742 51.0422 32.3094 50.6877 34.3594C49.7893 39.5545 52.0246 43.5719 54.6108 46.2353C57.2718 48.9757 62.7642 50.4646 67.7971 48.916C72.6993 47.4076 83.487 43.1595 88.6988 41.0223C89.3454 40.7572 90.8697 40.0897 92.5595 39.3497C92.6734 39.2998 92.788 39.2496 92.9032 39.1992C94.7332 38.3979 97.1341 37.5185 98.3988 36.9889L97.5907 36.1808C96.3168 36.7142 94.3293 37.4831 92.5021 38.2831C92.3912 38.3317 92.2809 38.38 92.1714 38.428C90.4702 39.1729 88.9544 39.8367 88.3194 40.0971C83.1017 42.2367 72.355 46.4673 67.503 47.9602C62.7817 49.4129 57.6945 47.9756 55.3283 45.5387C52.8873 43.0249 50.8458 39.314 51.6731 34.5298C52.0089 32.5879 53.1385 29.239 54.4348 25.8038C55.724 22.3871 57.1598 18.932 58.0889 16.7928Z" fill="#96A4B8"/>
<circle id="Ellipse 72" cx="5" cy="5" r="4.5" transform="matrix(-0.707107 -0.707107 -0.707107 0.707107 68.46 39.0864)" fill="white" stroke="#96A4B8"/>
</g>
<path id="Vector 193" d="M50 100L50.0001 -3.34838e-06" stroke="#375278" stroke-opacity="0.2" stroke-dasharray="3 3"/>
<path id="Vector 202" d="M100 50L-3.34838e-06 50" stroke="#375278" stroke-opacity="0.2" stroke-dasharray="3 3"/>
</g>
</svg>
