<svg width="107" height="107" viewBox="0 0 107 107" fill="none" xmlns="http://www.w3.org/2000/svg">
<g id="TRN_Z">
<g id="Group 2067">
<g id="Group 2030">
<g id="Group 1850" filter="url(#filter0_d_574_9493)">
<g id="Group 1849">
<g id="&#229;&#136;&#128;&#229;&#133;&#183;">
<path id="Rectangle 225" d="M87.0933 33.0425L87.0933 50.9928L57.0933 51.0425L57.0933 33.0425L87.0933 33.0425Z" fill="url(#paint0_linear_574_9493)"/>
</g>
<g id="&#231;&#186;&#191;&#230;&#157;&#161;">
<g id="Rectangle 226" filter="url(#filter1_d_574_9493)">
<path d="M85.0048 41.042L88.8048 41.042L88.8048 41.542L91.6548 41.542L91.6548 41.542L88.8048 41.542L88.8048 42.042L81.2048 42.042L81.2048 41.542L79.3048 41.542L79.3048 42.042L75.5048 42.042L75.5048 41.542L69.8048 41.542L69.8048 42.042L62.2048 42.042L62.2048 41.542L60.3048 41.542L60.3048 42.042L56.5048 42.042L56.5048 41.542L53.6548 41.542L56.5048 41.542L56.5048 41.042L64.1048 41.042L64.1048 41.542L66.0048 41.542L66.0048 41.042L69.8048 41.042L69.8048 41.542L75.5048 41.542L75.5048 41.042L83.1048 41.042L83.1048 41.542L85.0048 41.542L85.0048 41.042Z" stroke="black" stroke-dasharray="6 4 2 8" shape-rendering="crispEdges"/>
</g>
</g>
</g>
</g>
</g>
<g id="&#232;&#189;&#166;&#229;&#136;&#128;icon">
<g id="Group 613">
<path id="Vector 207" d="M43.6053 58.549L14.1517 58.549L14.1517 67.6924L52.034 67.6924L55.8742 65.4065L56.7725 52.9023L48.0503 54.2104C48.0503 54.2104 44.5419 58.2669 43.6053 58.549Z" fill="url(#paint1_linear_574_9493)"/>
<g id="Group 1840">
<g id="Group 269">
<g id="Group 1853">
<rect id="Rectangle 232" x="17.793" y="58.5488" width="9" height="9" rx="4.5" fill="white" stroke="black"/>
<rect id="Rectangle 234" x="28.2734" y="62.5488" width="1" height="12" transform="rotate(90 28.2734 62.5488)" fill="black"/>
<rect id="Rectangle 235" x="21.793" y="57.0488" width="1" height="12" fill="black"/>
<path id="Vector 12" d="M21.8813 67.9763V62.6821H27.1756C27.1756 62.6821 26.5138 67.3146 21.8813 67.9763Z" fill="black"/>
</g>
</g>
</g>
<ellipse id="Ellipse 84" cx="1.3974" cy="1.07314" rx="1.3974" ry="1.07314" transform="matrix(-4.37114e-08 -1 -1 4.37114e-08 48.1084 63.5635)" fill="#375278"/>
<path id="Vector 209" d="M46.7012 63.0089L55.882 61.8286L56.8023 51.3538L47.5656 52.9027L46.7012 63.0089Z" fill="url(#paint2_linear_574_9493)" stroke="#375278" stroke-width="0.5"/>
<g id="Group 617">
<rect id="Rectangle 340" width="1.07691" height="1.14619" transform="matrix(-0.012273 -0.999925 0.99995 -0.00999165 51.2866 57.6694)" fill="#F5F5F5"/>
<rect id="Rectangle 341" width="1.07691" height="1.14619" transform="matrix(-0.012273 -0.999925 0.99995 -0.00999165 50.1406 57.6812)" fill="#375278"/>
<rect id="Rectangle 342" width="1.07691" height="1.14619" transform="matrix(-0.012273 -0.999925 0.99995 -0.00999165 51.2729 56.5928)" fill="#375278"/>
<rect id="Rectangle 343" width="1.07691" height="1.14619" transform="matrix(-0.012273 -0.999925 0.99995 -0.00999165 51.3003 58.7466)" fill="#375278"/>
<rect id="Rectangle 344" width="1.07691" height="1.14619" transform="matrix(-0.012273 -0.999925 0.99995 -0.00999165 52.4341 57.6577)" fill="#375278"/>
</g>
</g>
</g>
<path id="Rectangle 788" d="M57.0933 21.0425L58.0933 21.0425L58.0933 33.0425L57.0933 33.0425L57.0933 21.0425Z" fill="#375278"/>
<path id="Z" d="M74.5806 26V25.45L78.4506 19.45H74.9306V18.67H79.5906V19.21L75.7206 25.21H79.6306V26H74.5806Z" fill="#375278"/>
<g id="Vector">
<path d="M58.0935 22.7236L63.0935 26.7236L63.0935 18.7236L58.0935 22.7236Z" fill="#375278"/>
<path d="M72.5518 23.4736L62.2677 23.4736L62.2677 21.9736L72.5518 21.9736L72.5518 23.4736Z" fill="#375278"/>
</g>
</g>
</g>
<defs>
<filter id="filter0_d_574_9493" x="50.6548" y="31.0425" width="46" height="26" filterUnits="userSpaceOnUse" color-interpolation-filters="sRGB">
<feFlood flood-opacity="0" result="BackgroundImageFix"/>
<feColorMatrix in="SourceAlpha" type="matrix" values="0 0 0 0 0 0 0 0 0 0 0 0 0 0 0 0 0 0 127 0" result="hardAlpha"/>
<feOffset dx="1" dy="2"/>
<feGaussianBlur stdDeviation="2"/>
<feColorMatrix type="matrix" values="0 0 0 0 0.215686 0 0 0 0 0.321569 0 0 0 0 0.470588 0 0 0 0.3 0"/>
<feBlend mode="normal" in2="BackgroundImageFix" result="effect1_dropShadow_574_9493"/>
<feBlend mode="normal" in="SourceGraphic" in2="effect1_dropShadow_574_9493" result="shape"/>
</filter>
<filter id="filter1_d_574_9493" x="48.6548" y="37.042" width="46" height="9" filterUnits="userSpaceOnUse" color-interpolation-filters="sRGB">
<feFlood flood-opacity="0" result="BackgroundImageFix"/>
<feColorMatrix in="SourceAlpha" type="matrix" values="0 0 0 0 0 0 0 0 0 0 0 0 0 0 0 0 0 0 127 0" result="hardAlpha"/>
<feOffset dx="-1"/>
<feGaussianBlur stdDeviation="2"/>
<feComposite in2="hardAlpha" operator="out"/>
<feColorMatrix type="matrix" values="0 0 0 0 0 0 0 0 0 0 0 0 0 0 0 0 0 0 0.25 0"/>
<feBlend mode="normal" in2="BackgroundImageFix" result="effect1_dropShadow_574_9493"/>
<feBlend mode="normal" in="SourceGraphic" in2="effect1_dropShadow_574_9493" result="shape"/>
</filter>
<linearGradient id="paint0_linear_574_9493" x1="77.687" y1="51.7718" x2="77.6133" y2="32.3444" gradientUnits="userSpaceOnUse">
<stop stop-color="#8B98AB"/>
<stop offset="0.218628" stop-color="#E3E7F2"/>
<stop offset="0.424027" stop-color="#B4BBCD"/>
<stop offset="0.776042" stop-color="#6E7C95"/>
<stop offset="1" stop-color="#546885"/>
</linearGradient>
<linearGradient id="paint1_linear_574_9493" x1="40.5065" y1="67.6946" x2="40.4244" y2="58.5481" gradientUnits="userSpaceOnUse">
<stop stop-color="#8B98AB"/>
<stop offset="0.218628" stop-color="#E3E7F2"/>
<stop offset="0.424027" stop-color="#B4BBCD"/>
<stop offset="0.776042" stop-color="#6E7C95"/>
<stop offset="1" stop-color="#546885"/>
</linearGradient>
<linearGradient id="paint2_linear_574_9493" x1="53.1634" y1="63.6191" x2="53.0468" y2="50.9207" gradientUnits="userSpaceOnUse">
<stop offset="0.104167" stop-color="#6B7A91"/>
<stop offset="0.427083" stop-color="#B4BBCD"/>
<stop offset="0.703125" stop-color="#E5EAF9"/>
<stop offset="0.973958" stop-color="#808D9E"/>
</linearGradient>
</defs>
</svg>
