<svg width="107" height="107" viewBox="0 0 107 107" fill="none" xmlns="http://www.w3.org/2000/svg">
<g id="TRP_X">
<g id="Group 2066">
<g id="Group 2030">
<g id="Group 1850" filter="url(#filter0_d_574_9458)">
<g id="Group 1849">
<g id="&#229;&#136;&#128;&#229;&#133;&#183;">
<path id="Rectangle 225" d="M25.0933 34.0425L25.0933 52.0425L55.0933 52.0425L55.0933 34.0425L25.0933 34.0425Z" fill="url(#paint0_linear_574_9458)"/>
</g>
<g id="&#231;&#186;&#191;&#230;&#157;&#161;">
<g id="Rectangle 226" filter="url(#filter1_d_574_9458)">
<path d="M51.9677 43.0425L55.7677 43.0425L55.7677 43.5425L58.6177 43.5425L58.6177 43.5425L55.7677 43.5425L55.7677 44.0425L48.1677 44.0425L48.1677 43.5425L46.2677 43.5425L46.2677 44.0425L42.4677 44.0425L42.4677 43.5425L36.7677 43.5425L36.7677 44.0425L29.1677 44.0425L29.1677 43.5425L27.2677 43.5425L27.2677 44.0425L23.4677 44.0425L23.4677 43.5425L20.6177 43.5425L23.4677 43.5425L23.4677 43.0425L31.0677 43.0425L31.0677 43.5425L32.9677 43.5425L32.9677 43.0425L36.7677 43.0425L36.7677 43.5425L42.4677 43.5425L42.4677 43.0425L50.0677 43.0425L50.0677 43.5425L51.9677 43.5425L51.9677 43.0425Z" stroke="black" stroke-dasharray="6 4 2 8" shape-rendering="crispEdges"/>
</g>
</g>
</g>
</g>
</g>
<g id="&#232;&#189;&#166;&#229;&#136;&#128;icon">
<g id="Group 613">
<path id="Vector 207" d="M68.6286 59.5305L98.0822 59.5305L98.0822 68.6738L60.1998 68.6738L56.3597 66.388L55.4614 53.8838L64.1836 55.1918C64.1836 55.1918 67.692 59.2483 68.6286 59.5305Z" fill="url(#paint1_linear_574_9458)"/>
<g id="Group 1840">
<g id="Group 269">
<g id="Group 1853">
<rect id="Rectangle 232" x="85.4624" y="59.5303" width="9" height="9" rx="4.5" fill="white" stroke="black"/>
<rect id="Rectangle 234" x="95.9429" y="63.5303" width="1" height="12" transform="rotate(90 95.9429 63.5303)" fill="black"/>
<rect id="Rectangle 235" x="89.4624" y="58.0303" width="1" height="12" fill="black"/>
<path id="Vector 12" d="M89.5508 68.9578V63.6636H94.845C94.845 63.6636 94.1832 68.296 89.5508 68.9578Z" fill="black"/>
</g>
</g>
</g>
<ellipse id="Ellipse 84" cx="65.1811" cy="63.1475" rx="1.3974" ry="1.07314" transform="rotate(-90 65.1811 63.1475)" fill="#375278"/>
<path id="Vector 209" d="M65.5151 63.9904L56.3343 62.8101L55.414 52.3352L64.6507 53.8842L65.5151 63.9904Z" fill="url(#paint2_linear_574_9458)" stroke="#375278" stroke-width="0.5"/>
<g id="Group 617">
<rect id="Rectangle 340" width="1.07691" height="1.14619" transform="matrix(0.012273 -0.999925 -0.99995 -0.00999165 60.9297 58.6509)" fill="#F5F5F5"/>
<rect id="Rectangle 341" width="1.07691" height="1.14619" transform="matrix(0.012273 -0.999925 -0.99995 -0.00999165 62.0757 58.6626)" fill="#375278"/>
<rect id="Rectangle 342" width="1.07691" height="1.14619" transform="matrix(0.012273 -0.999925 -0.99995 -0.00999165 60.9434 57.5742)" fill="#375278"/>
<rect id="Rectangle 343" width="1.07691" height="1.14619" transform="matrix(0.012273 -0.999925 -0.99995 -0.00999165 60.916 59.728)" fill="#375278"/>
<rect id="Rectangle 344" width="1.07691" height="1.14619" transform="matrix(0.012273 -0.999925 -0.99995 -0.00999165 59.7822 58.6392)" fill="#375278"/>
</g>
</g>
</g>
<path id="Rectangle 788" d="M7.09375 34.0425L7.09375 35.0425L25.0938 35.0425L25.0938 34.0425L7.09375 34.0425Z" fill="#375278"/>
<g id="Vector">
<path d="M13.0937 34.0786L17.0937 29.0786L9.09375 29.0786L13.0937 34.0786Z" fill="#375278"/>
<path d="M13.8438 19.6172L13.8437 29.9044L12.3437 29.9044L12.3438 19.6172L13.8438 19.6172Z" fill="#375278"/>
</g>
<path id="X" d="M10.63 46.0459L12.77 42.2559L10.77 38.7159H11.79L12.79 40.5859C12.98 40.9259 13.13 41.2359 13.37 41.6559H13.41C13.61 41.2359 13.75 40.9259 13.93 40.5859L14.91 38.7159H15.88L13.88 42.3059L16.02 46.0459H15L13.92 44.0659C13.73 43.7059 13.53 43.3259 13.29 42.8859H13.25C13.04 43.3259 12.85 43.7059 12.66 44.0659L11.6 46.0459H10.63Z" fill="#375278"/>
<g id="Vector_2">
<path d="M13.0937 52.0276L17.0938 57.0276L9.09375 57.0276L13.0937 52.0276Z" fill="#375278"/>
<path d="M13.8438 66.4858L13.8438 56.2018L12.3438 56.2018L12.3438 66.4858L13.8438 66.4858Z" fill="#375278"/>
</g>
<rect id="Rectangle 789" width="1" height="18" transform="matrix(4.83181e-08 1 1 -3.95439e-08 7.09375 51.0425)" fill="#375278"/>
</g>
</g>
<defs>
<filter id="filter0_d_574_9458" x="17.6177" y="32.0425" width="46" height="26" filterUnits="userSpaceOnUse" color-interpolation-filters="sRGB">
<feFlood flood-opacity="0" result="BackgroundImageFix"/>
<feColorMatrix in="SourceAlpha" type="matrix" values="0 0 0 0 0 0 0 0 0 0 0 0 0 0 0 0 0 0 127 0" result="hardAlpha"/>
<feOffset dx="1" dy="2"/>
<feGaussianBlur stdDeviation="2"/>
<feColorMatrix type="matrix" values="0 0 0 0 0.215686 0 0 0 0 0.321569 0 0 0 0 0.470588 0 0 0 0.3 0"/>
<feBlend mode="normal" in2="BackgroundImageFix" result="effect1_dropShadow_574_9458"/>
<feBlend mode="normal" in="SourceGraphic" in2="effect1_dropShadow_574_9458" result="shape"/>
</filter>
<filter id="filter1_d_574_9458" x="15.6177" y="39.0425" width="46" height="9" filterUnits="userSpaceOnUse" color-interpolation-filters="sRGB">
<feFlood flood-opacity="0" result="BackgroundImageFix"/>
<feColorMatrix in="SourceAlpha" type="matrix" values="0 0 0 0 0 0 0 0 0 0 0 0 0 0 0 0 0 0 127 0" result="hardAlpha"/>
<feOffset dx="-1"/>
<feGaussianBlur stdDeviation="2"/>
<feComposite in2="hardAlpha" operator="out"/>
<feColorMatrix type="matrix" values="0 0 0 0 0 0 0 0 0 0 0 0 0 0 0 0 0 0 0.25 0"/>
<feBlend mode="normal" in2="BackgroundImageFix" result="effect1_dropShadow_574_9458"/>
<feBlend mode="normal" in="SourceGraphic" in2="effect1_dropShadow_574_9458" result="shape"/>
</filter>
<linearGradient id="paint0_linear_574_9458" x1="34.4995" y1="52.7718" x2="34.5732" y2="33.3444" gradientUnits="userSpaceOnUse">
<stop stop-color="#8B98AB"/>
<stop offset="0.218628" stop-color="#E3E7F2"/>
<stop offset="0.424027" stop-color="#B4BBCD"/>
<stop offset="0.776042" stop-color="#6E7C95"/>
<stop offset="1" stop-color="#546885"/>
</linearGradient>
<linearGradient id="paint1_linear_574_9458" x1="71.7274" y1="68.6761" x2="71.8095" y2="59.5296" gradientUnits="userSpaceOnUse">
<stop stop-color="#8B98AB"/>
<stop offset="0.218628" stop-color="#E3E7F2"/>
<stop offset="0.424027" stop-color="#B4BBCD"/>
<stop offset="0.776042" stop-color="#6E7C95"/>
<stop offset="1" stop-color="#546885"/>
</linearGradient>
<linearGradient id="paint2_linear_574_9458" x1="59.0529" y1="64.6005" x2="59.1695" y2="51.9021" gradientUnits="userSpaceOnUse">
<stop offset="0.104167" stop-color="#6B7A91"/>
<stop offset="0.427083" stop-color="#B4BBCD"/>
<stop offset="0.703125" stop-color="#E5EAF9"/>
<stop offset="0.973958" stop-color="#808D9E"/>
</linearGradient>
</defs>
</svg>
