<svg width="100" height="100" viewBox="0 0 100 100" fill="none" xmlns="http://www.w3.org/2000/svg">
<g id="C5">
<path id="Rectangle 469" opacity="0.4" d="M0 0H100V100H0V0Z" fill="#E9EEF5"/>
<g id="Group 578">
<path id="Rectangle 448" d="M2.16748 63.6953L35.867 97.3948C46.956 73.9492 53.1462 62.1425 45.8447 54.8409C38.5431 47.5394 29.4492 51.5784 2.16748 63.6953Z" fill="#B4BBCC"/>
<path id="Vector 194 (Stroke)" fill-rule="evenodd" clip-rule="evenodd" d="M41.8744 83.2815L35.3747 96.9064L36.1868 97.7185L42.7858 83.6933L42.7887 83.6866C43.723 81.536 45.1668 78.0618 46.4642 74.6234C47.756 71.2 48.9211 67.7648 49.2756 65.7149C50.174 60.5197 47.9387 56.5023 45.3525 53.8389C42.6916 51.0986 37.1992 49.6096 32.1663 51.1582C27.2641 52.6666 16.4764 56.9147 11.2646 59.0519C10.618 59.317 9.09371 59.9845 7.40392 60.7245C7.29001 60.7744 7.17535 60.8246 7.06015 60.8751C5.2302 61.6763 2.82932 62.5557 1.56461 63.0853L2.3727 63.8934C3.64659 63.36 5.63411 62.5911 7.46126 61.7911C7.57215 61.7425 7.68246 61.6942 7.79201 61.6463C9.49316 60.9013 11.009 60.2375 11.644 59.9771C16.8617 57.8375 27.6083 53.6069 32.4604 52.114C37.1817 50.6613 42.2688 52.0986 44.6351 54.5355C47.0761 57.0494 49.1176 60.7603 48.2903 65.5445C47.9545 67.4863 46.8248 70.8352 45.5286 74.2704C44.2394 77.6871 42.8036 81.1422 41.8744 83.2815Z" fill="#96A4B8"/>
<circle id="Ellipse 72" cx="5" cy="5" r="4.5" transform="matrix(0.707107 0.707107 0.707107 -0.707107 31.5034 60.9875)" fill="white" stroke="#96A4B8"/>
</g>
<path id="Vector 193" d="M50 100L50.0001 -3.34838e-06" stroke="#375278" stroke-opacity="0.2" stroke-dasharray="3 3"/>
<path id="Vector 202" d="M100 50L-3.34838e-06 50" stroke="#375278" stroke-opacity="0.2" stroke-dasharray="3 3"/>
</g>
</svg>
