<svg width="107" height="107" viewBox="0 0 107 107" fill="none" xmlns="http://www.w3.org/2000/svg">
<g id="TPN_X">
<g id="Group 2072">
<rect id="Rectangle 789" x="84.0908" y="47.033" width="1" height="27.9941" transform="rotate(90 84.0908 47.033)" fill="#375278"/>
<g id="Group 2030">
<g id="Group 1850" filter="url(#filter0_d_574_9388)">
<g id="Group 1849">
<g id="&#229;&#136;&#128;&#229;&#133;&#183;">
<path id="Rectangle 225" d="M56.0937 30.0425L56.0937 48.0425L26.0937 48.0425L26.0937 30.0425L56.0937 30.0425Z" fill="url(#paint0_linear_574_9388)"/>
</g>
<g id="&#231;&#186;&#191;&#230;&#157;&#161;">
<g id="Rectangle 226" filter="url(#filter1_d_574_9388)">
<path d="M53.4467 38.3035L57.2467 38.3035L57.2467 38.8035L60.0967 38.8035L60.0967 38.8035L57.2467 38.8035L57.2467 39.3035L49.6467 39.3035L49.6467 38.8035L47.7467 38.8035L47.7467 39.3035L43.9467 39.3035L43.9467 38.8035L38.2467 38.8035L38.2467 39.3035L30.6467 39.3035L30.6467 38.8035L28.7467 38.8035L28.7467 39.3035L24.9467 39.3035L24.9467 38.8035L22.0967 38.8035L24.9467 38.8035L24.9467 38.3035L32.5467 38.3035L32.5467 38.8035L34.4467 38.8035L34.4467 38.3035L38.2467 38.3035L38.2467 38.8035L43.9467 38.8035L43.9467 38.3035L51.5467 38.3035L51.5467 38.8035L53.4467 38.8035L53.4467 38.3035Z" stroke="black" stroke-dasharray="6 4 2 8" shape-rendering="crispEdges"/>
</g>
</g>
</g>
</g>
</g>
<g id="&#232;&#189;&#166;&#229;&#136;&#128;icon">
<g id="Group 613">
<path id="Vector 207" d="M63.6149 61.5356L63.615 90.9892L72.7583 90.9892L72.7583 53.1068L70.4724 49.2667L57.9683 48.3684L59.2763 57.0906C59.2763 57.0906 63.3328 60.599 63.6149 61.5356Z" fill="url(#paint1_linear_574_9388)"/>
<g id="Group 1840">
<g id="Group 269">
<g id="Group 1853">
<rect id="Rectangle 232" x="0.5" y="0.5" width="9" height="9" rx="4.5" transform="matrix(-4.37114e-08 1 1 4.37114e-08 63.1147 77.8916)" fill="white" stroke="black"/>
<rect id="Rectangle 234" width="1" height="12" transform="matrix(1 6.02915e-09 -6.99383e-09 -1 67.6147 88.8718)" fill="black"/>
<rect id="Rectangle 235" width="1" height="12" transform="matrix(-4.37114e-08 1 1 3.06884e-08 62.1147 82.3914)" fill="black"/>
<path id="Vector 12" d="M73.0423 82.4797L67.748 82.4797L67.748 87.7739C67.748 87.7739 72.3805 87.1122 73.0423 82.4797Z" fill="black"/>
</g>
</g>
</g>
<ellipse id="Ellipse 84" cx="1.3974" cy="1.07314" rx="1.3974" ry="1.07314" transform="matrix(-1 8.74228e-08 8.74228e-08 1 68.6294 57.0369)" fill="#375278"/>
<path id="Vector 209" d="M68.0748 58.4441L66.8946 49.2633L56.4197 48.343L57.9686 57.5797L68.0748 58.4441Z" fill="url(#paint2_linear_574_9388)" stroke="#375278" stroke-width="0.5"/>
<g id="Group 617">
<rect id="Rectangle 340" width="1.07691" height="1.14619" transform="matrix(-0.999925 0.012273 -0.00999169 -0.99995 62.7354 53.8586)" fill="#F5F5F5"/>
<rect id="Rectangle 341" width="1.07691" height="1.14619" transform="matrix(-0.999925 0.012273 -0.00999169 -0.99995 62.7471 55.0046)" fill="#375278"/>
<rect id="Rectangle 342" width="1.07691" height="1.14619" transform="matrix(-0.999925 0.012273 -0.00999169 -0.99995 61.6587 53.8723)" fill="#375278"/>
<rect id="Rectangle 343" width="1.07691" height="1.14619" transform="matrix(-0.999925 0.012273 -0.00999169 -0.99995 63.8125 53.8452)" fill="#375278"/>
<rect id="Rectangle 344" width="1.07691" height="1.14619" transform="matrix(-0.999925 0.012273 -0.00999169 -0.99995 62.7236 52.7114)" fill="#375278"/>
</g>
</g>
</g>
<path id="Rectangle 788" d="M84.0908 30.0425L84.0908 31.0425L56.0967 31.0425L56.0967 30.0425L84.0908 30.0425Z" fill="#375278"/>
<g id="Vector">
<path d="M78.0938 30.0781L74.0938 25.0781L82.0938 25.0781L78.0938 30.0781Z" fill="#375278"/>
<path d="M77.3438 15.6167L77.3438 25.9039L78.8438 25.9039L78.8438 15.6167L77.3438 15.6167Z" fill="#375278"/>
</g>
<path id="X" d="M75.3975 42.084L77.5375 38.294L75.5375 34.754H76.5575L77.5575 36.624C77.7475 36.964 77.8975 37.274 78.1375 37.694H78.1775C78.3775 37.274 78.5175 36.964 78.6975 36.624L79.6775 34.754H80.6475L78.6475 38.344L80.7875 42.084H79.7675L78.6875 40.104C78.4975 39.744 78.2975 39.364 78.0575 38.924H78.0175C77.8075 39.364 77.6175 39.744 77.4275 40.104L76.3675 42.084H75.3975Z" fill="#375278"/>
<g id="Vector_2">
<path d="M78.0938 48.0574L74.0937 53.0574L82.0937 53.0574L78.0938 48.0574Z" fill="#375278"/>
<path d="M77.3438 62.5156L77.3437 52.2316L78.8437 52.2316L78.8438 62.5156L77.3438 62.5156Z" fill="#375278"/>
</g>
</g>
</g>
<defs>
<filter id="filter0_d_574_9388" x="19.0967" y="28.0425" width="46" height="26" filterUnits="userSpaceOnUse" color-interpolation-filters="sRGB">
<feFlood flood-opacity="0" result="BackgroundImageFix"/>
<feColorMatrix in="SourceAlpha" type="matrix" values="0 0 0 0 0 0 0 0 0 0 0 0 0 0 0 0 0 0 127 0" result="hardAlpha"/>
<feOffset dx="1" dy="2"/>
<feGaussianBlur stdDeviation="2"/>
<feColorMatrix type="matrix" values="0 0 0 0 0.215686 0 0 0 0 0.321569 0 0 0 0 0.470588 0 0 0 0.3 0"/>
<feBlend mode="normal" in2="BackgroundImageFix" result="effect1_dropShadow_574_9388"/>
<feBlend mode="normal" in="SourceGraphic" in2="effect1_dropShadow_574_9388" result="shape"/>
</filter>
<filter id="filter1_d_574_9388" x="17.0967" y="34.3035" width="46" height="9" filterUnits="userSpaceOnUse" color-interpolation-filters="sRGB">
<feFlood flood-opacity="0" result="BackgroundImageFix"/>
<feColorMatrix in="SourceAlpha" type="matrix" values="0 0 0 0 0 0 0 0 0 0 0 0 0 0 0 0 0 0 127 0" result="hardAlpha"/>
<feOffset dx="-1"/>
<feGaussianBlur stdDeviation="2"/>
<feComposite in2="hardAlpha" operator="out"/>
<feColorMatrix type="matrix" values="0 0 0 0 0 0 0 0 0 0 0 0 0 0 0 0 0 0 0.25 0"/>
<feBlend mode="normal" in2="BackgroundImageFix" result="effect1_dropShadow_574_9388"/>
<feBlend mode="normal" in="SourceGraphic" in2="effect1_dropShadow_574_9388" result="shape"/>
</filter>
<linearGradient id="paint0_linear_574_9388" x1="46.6875" y1="48.7718" x2="46.6138" y2="29.3444" gradientUnits="userSpaceOnUse">
<stop stop-color="#8B98AB"/>
<stop offset="0.218628" stop-color="#E3E7F2"/>
<stop offset="0.424027" stop-color="#B4BBCD"/>
<stop offset="0.776042" stop-color="#6E7C95"/>
<stop offset="1" stop-color="#546885"/>
</linearGradient>
<linearGradient id="paint1_linear_574_9388" x1="72.7605" y1="64.6344" x2="63.614" y2="64.7165" gradientUnits="userSpaceOnUse">
<stop stop-color="#8B98AB"/>
<stop offset="0.218628" stop-color="#E3E7F2"/>
<stop offset="0.424027" stop-color="#B4BBCD"/>
<stop offset="0.776042" stop-color="#6E7C95"/>
<stop offset="1" stop-color="#546885"/>
</linearGradient>
<linearGradient id="paint2_linear_574_9388" x1="68.685" y1="51.9818" x2="55.9866" y2="52.0984" gradientUnits="userSpaceOnUse">
<stop offset="0.104167" stop-color="#6B7A91"/>
<stop offset="0.427083" stop-color="#B4BBCD"/>
<stop offset="0.703125" stop-color="#E5EAF9"/>
<stop offset="0.973958" stop-color="#808D9E"/>
</linearGradient>
</defs>
</svg>
