<svg width="107" height="107" viewBox="0 0 107 107" fill="none" xmlns="http://www.w3.org/2000/svg">
<g id="TPN_Z">
<g id="Group 2071">
<g id="Group 2030">
<g id="Group 1850" filter="url(#filter0_d_574_9526)">
<g id="Group 1849">
<g id="&#229;&#136;&#128;&#229;&#133;&#183;">
<path id="Rectangle 225" d="M60.0933 33.0422L60.0933 51.0422L30.0933 51.0422L30.0933 33.0422L60.0933 33.0422Z" fill="url(#paint0_linear_574_9526)"/>
</g>
<g id="&#231;&#186;&#191;&#230;&#157;&#161;">
<g id="Rectangle 226" filter="url(#filter1_d_574_9526)">
<path d="M57.6747 41.8032L61.4747 41.8032L61.4747 42.3032L64.3247 42.3032L64.3247 42.3032L61.4747 42.3032L61.4747 42.8032L53.8747 42.8032L53.8747 42.3032L51.9747 42.3032L51.9747 42.8032L48.1747 42.8032L48.1747 42.3032L42.4747 42.3032L42.4747 42.8032L34.8747 42.8032L34.8747 42.3032L32.9747 42.3032L32.9747 42.8032L29.1747 42.8032L29.1747 42.3032L26.3247 42.3032L29.1747 42.3032L29.1747 41.8032L36.7747 41.8032L36.7747 42.3032L38.6747 42.3032L38.6747 41.8032L42.4747 41.8032L42.4747 42.3032L48.1747 42.3032L48.1747 41.8032L55.7747 41.8032L55.7747 42.3032L57.6747 42.3032L57.6747 41.8032Z" stroke="black" stroke-dasharray="6 4 2 8" shape-rendering="crispEdges"/>
</g>
</g>
</g>
</g>
</g>
<g id="&#232;&#189;&#166;&#229;&#136;&#128;icon">
<g id="Group 613">
<path id="Vector 207" d="M67.5998 64.5273L67.5998 93.9809L76.7432 93.9809L76.7432 56.0985L74.4573 52.2584L61.9531 51.3601L63.2612 60.0823C63.2612 60.0823 67.3177 63.5907 67.5998 64.5273Z" fill="url(#paint1_linear_574_9526)"/>
<g id="Group 1840">
<g id="Group 269">
<g id="Group 1853">
<rect id="Rectangle 232" x="0.5" y="0.5" width="9" height="9" rx="4.5" transform="matrix(-4.37114e-08 1 1 4.37114e-08 67.0996 80.8782)" fill="white" stroke="black"/>
<rect id="Rectangle 234" width="1" height="12" transform="matrix(1 6.02915e-09 -6.99383e-09 -1 71.5996 91.8584)" fill="black"/>
<rect id="Rectangle 235" width="1" height="12" transform="matrix(-4.37114e-08 1 1 3.06884e-08 66.0996 85.3779)" fill="black"/>
<path id="Vector 12" d="M77.0271 85.4663L71.7329 85.4663L71.7329 90.7605C71.7329 90.7605 76.3653 90.0987 77.0271 85.4663Z" fill="black"/>
</g>
</g>
</g>
<ellipse id="Ellipse 84" cx="1.3974" cy="1.07314" rx="1.3974" ry="1.07314" transform="matrix(-1 8.74228e-08 8.74228e-08 1 72.6143 60.0234)" fill="#375278"/>
<path id="Vector 209" d="M72.0597 61.4306L70.8794 52.2499L60.4046 51.3296L61.9535 60.5663L72.0597 61.4306Z" fill="url(#paint2_linear_574_9526)" stroke="#375278" stroke-width="0.5"/>
<g id="Group 617">
<rect id="Rectangle 340" width="1.07691" height="1.14619" transform="matrix(-0.999925 0.012273 -0.00999169 -0.99995 66.7202 56.8452)" fill="#F5F5F5"/>
<rect id="Rectangle 341" width="1.07691" height="1.14619" transform="matrix(-0.999925 0.012273 -0.00999169 -0.99995 66.7319 57.9912)" fill="#375278"/>
<rect id="Rectangle 342" width="1.07691" height="1.14619" transform="matrix(-0.999925 0.012273 -0.00999169 -0.99995 65.6436 56.8589)" fill="#375278"/>
<rect id="Rectangle 343" width="1.07691" height="1.14619" transform="matrix(-0.999925 0.012273 -0.00999169 -0.99995 67.7974 56.8318)" fill="#375278"/>
<rect id="Rectangle 344" width="1.07691" height="1.14619" transform="matrix(-0.999925 0.012273 -0.00999169 -0.99995 66.7085 55.698)" fill="#375278"/>
</g>
</g>
</g>
<path id="Rectangle 788" d="M60.0933 22.0425L59.0933 22.0425L59.0933 33.0425L60.0933 33.0425L60.0933 22.0425Z" fill="#375278"/>
<path id="Z" d="M37.4858 27V26.45L41.3558 20.45H37.8358V19.67H42.4958V20.21L38.6258 26.21H42.5358V27H37.4858Z" fill="#375278"/>
<g id="Vector">
<path d="M59.114 23.7236L54.114 27.7236L54.114 19.7236L59.114 23.7236Z" fill="#375278"/>
<path d="M44.6558 24.4736L54.9398 24.4736L54.9398 22.9736L44.6558 22.9736L44.6558 24.4736Z" fill="#375278"/>
</g>
</g>
</g>
<defs>
<filter id="filter0_d_574_9526" x="23.3247" y="31.0422" width="46" height="26" filterUnits="userSpaceOnUse" color-interpolation-filters="sRGB">
<feFlood flood-opacity="0" result="BackgroundImageFix"/>
<feColorMatrix in="SourceAlpha" type="matrix" values="0 0 0 0 0 0 0 0 0 0 0 0 0 0 0 0 0 0 127 0" result="hardAlpha"/>
<feOffset dx="1" dy="2"/>
<feGaussianBlur stdDeviation="2"/>
<feColorMatrix type="matrix" values="0 0 0 0 0.215686 0 0 0 0 0.321569 0 0 0 0 0.470588 0 0 0 0.3 0"/>
<feBlend mode="normal" in2="BackgroundImageFix" result="effect1_dropShadow_574_9526"/>
<feBlend mode="normal" in="SourceGraphic" in2="effect1_dropShadow_574_9526" result="shape"/>
</filter>
<filter id="filter1_d_574_9526" x="21.3247" y="37.8032" width="46" height="9" filterUnits="userSpaceOnUse" color-interpolation-filters="sRGB">
<feFlood flood-opacity="0" result="BackgroundImageFix"/>
<feColorMatrix in="SourceAlpha" type="matrix" values="0 0 0 0 0 0 0 0 0 0 0 0 0 0 0 0 0 0 127 0" result="hardAlpha"/>
<feOffset dx="-1"/>
<feGaussianBlur stdDeviation="2"/>
<feComposite in2="hardAlpha" operator="out"/>
<feColorMatrix type="matrix" values="0 0 0 0 0 0 0 0 0 0 0 0 0 0 0 0 0 0 0.25 0"/>
<feBlend mode="normal" in2="BackgroundImageFix" result="effect1_dropShadow_574_9526"/>
<feBlend mode="normal" in="SourceGraphic" in2="effect1_dropShadow_574_9526" result="shape"/>
</filter>
<linearGradient id="paint0_linear_574_9526" x1="50.687" y1="51.7716" x2="50.6133" y2="32.3441" gradientUnits="userSpaceOnUse">
<stop stop-color="#8B98AB"/>
<stop offset="0.218628" stop-color="#E3E7F2"/>
<stop offset="0.424027" stop-color="#B4BBCD"/>
<stop offset="0.776042" stop-color="#6E7C95"/>
<stop offset="1" stop-color="#546885"/>
</linearGradient>
<linearGradient id="paint1_linear_574_9526" x1="76.7454" y1="67.6261" x2="67.5989" y2="67.7082" gradientUnits="userSpaceOnUse">
<stop stop-color="#8B98AB"/>
<stop offset="0.218628" stop-color="#E3E7F2"/>
<stop offset="0.424027" stop-color="#B4BBCD"/>
<stop offset="0.776042" stop-color="#6E7C95"/>
<stop offset="1" stop-color="#546885"/>
</linearGradient>
<linearGradient id="paint2_linear_574_9526" x1="72.6699" y1="54.9684" x2="59.9715" y2="55.085" gradientUnits="userSpaceOnUse">
<stop offset="0.104167" stop-color="#6B7A91"/>
<stop offset="0.427083" stop-color="#B4BBCD"/>
<stop offset="0.703125" stop-color="#E5EAF9"/>
<stop offset="0.973958" stop-color="#808D9E"/>
</linearGradient>
</defs>
</svg>
