<svg width="32" height="32" viewBox="0 0 32 32" fill="none" xmlns="http://www.w3.org/2000/svg">
<g id="&#232;&#135;&#170;&#229;&#138;&#168;_icon">
<g id="Union" opacity="0.8">
<path d="M3 25H23.586L28.9233 15.9998L23.586 7H3V8H23.0164L27.7607 15.9998L23.0164 24H3V25Z" fill="white"/>
<path d="M6.29053 15.945C6.29053 15.6688 6.51439 15.445 6.79053 15.445H20.6668L18.6789 13.4381C18.4846 13.2419 18.4861 12.9253 18.6823 12.731C18.8785 12.5366 19.1951 12.5382 19.3894 12.7343L22.2043 15.5762C22.3053 15.6781 22.3534 15.8126 22.3488 15.9455C22.3531 16.0781 22.305 16.2121 22.2043 16.3138L19.3894 19.1557C19.195 19.3519 18.8784 19.3534 18.6823 19.1591C18.4861 18.9647 18.4846 18.6482 18.6789 18.452L20.6669 16.445H6.79053C6.51438 16.445 6.29053 16.2211 6.29053 15.945Z" fill="white"/>
</g>
</g>
</svg>
