<svg width="32" height="32" viewBox="0 0 32 32" fill="none" xmlns="http://www.w3.org/2000/svg">
<g id="&#230;&#137;&#139;&#229;&#138;&#168;_icon">
<g id="Union" opacity="0.8">
<path d="M23.586 25H3V24H23.0164L27.7607 15.9998L23.0164 8H3V7H23.586L28.9233 15.9998L23.586 25Z" fill="white"/>
<path fill-rule="evenodd" clip-rule="evenodd" d="M16.0147 10.5494C15.3946 10.3699 14.817 10.584 14.4278 10.9782C14.2462 10.8771 14.0373 10.8101 13.8039 10.7892L13.8025 10.789L13.7651 10.7856C12.8243 10.7015 12.1114 11.4296 11.9882 12.2314L11.8141 13.3652C11.7842 13.352 11.7537 13.3397 11.7228 13.3283C11.2948 13.1704 10.8309 13.2071 10.4378 13.4068C9.66021 13.8004 9.30504 14.7213 9.56396 15.5258L10.2969 17.8052C10.442 18.3229 10.7403 19.0896 11.0045 19.562C11.4802 20.4116 12.361 20.9067 13.1081 21.1555C13.4988 21.2857 13.9022 21.366 14.2801 21.3908C14.6419 21.4146 15.053 21.3924 15.4215 21.2559C15.891 21.0821 16.2417 20.8743 16.5308 20.6045C16.7492 20.4008 16.9203 20.165 17.0334 20.009C17.0541 19.9805 17.073 19.9545 17.0897 19.932L17.1123 19.9017L19.3407 16.3832C19.775 15.6975 19.7077 14.7009 18.9884 14.1366L18.9524 14.1084C18.8502 14.0284 18.7435 13.9635 18.6344 13.913C18.8337 13.2033 18.5855 12.3521 17.8271 11.9619L17.8249 11.9608L17.7925 11.9442C17.5941 11.8423 17.3922 11.7875 17.1942 11.7724C17.1839 11.7716 17.1736 11.771 17.1633 11.7704C17.1628 11.768 17.1623 11.7655 17.1617 11.7631C17.0416 11.2249 16.6684 10.7387 16.051 10.5599L16.0147 10.5494ZM16.1821 12.3298C16.2076 12.2312 16.2124 12.1325 16.1992 12.0394C16.1644 11.7944 16.0053 11.5878 15.7729 11.5205L15.7365 11.5099C15.5042 11.4427 15.2593 11.5323 15.0991 11.7207C15.0382 11.7924 14.9895 11.8784 14.9584 11.9755L14.1921 14.5601L14.2498 12.4967C14.276 12.2242 14.1518 11.9802 13.9494 11.8606C13.8793 11.8192 13.7999 11.7928 13.7141 11.7851L13.6761 11.7817C13.3423 11.7518 13.0327 12.0182 12.9766 12.3833L12.3989 16.1448L11.7293 14.6082C11.7071 14.5561 11.6787 14.5079 11.6452 14.4647C11.5753 14.3745 11.4829 14.3057 11.3766 14.2665C11.2194 14.2085 11.0445 14.22 10.8902 14.2986C10.5663 14.4621 10.4021 14.8663 10.516 15.2197L11.255 17.518C11.3808 17.974 11.6558 18.678 11.8772 19.0737C12.4853 20.1598 14.3285 20.5943 15.0743 20.3182C15.7517 20.0673 15.953 19.7919 16.2082 19.4428C16.2339 19.4076 16.2603 19.3715 16.2877 19.3347L18.4959 15.8482C18.6912 15.5397 18.6361 15.1313 18.3711 14.9233L18.3356 14.8956C18.3076 14.8736 18.2784 14.8547 18.2481 14.8389C17.9917 14.7043 17.6669 14.7861 17.4745 15.0487L16.4633 16.429L17.6394 13.7334C17.787 13.3948 17.6674 13.0043 17.3696 12.8511L17.3356 12.8337C17.2603 12.795 17.1805 12.775 17.1005 12.7721C16.8641 12.7633 16.6267 12.9033 16.5025 13.149L15.4088 15.3124L16.1821 12.3298ZM17.7925 11.9442L17.3356 12.8337L17.7908 11.9437L17.7925 11.9442Z" fill="white"/>
</g>
</g>
</svg>
