<svg width="32" height="32" viewBox="0 0 32 32" fill="none" xmlns="http://www.w3.org/2000/svg">
<g id="MDI_icon">
<g id="Union" opacity="0.8">
<path d="M23.586 25.0039H3V24.0039H23.0164L27.7607 16.0037L23.0164 8.00391H3V7.00391H23.586L28.9233 16.0037L23.586 25.0039Z" fill="white"/>
<path fill-rule="evenodd" clip-rule="evenodd" d="M15.0214 11.8729C14.5564 11.7382 14.1231 11.8989 13.8312 12.1945C13.6951 12.1186 13.5384 12.0684 13.3634 12.0527L13.3623 12.0526L13.3342 12.0501C12.6286 11.987 12.094 12.5331 12.0016 13.1344L11.871 13.9848C11.8485 13.9749 11.8257 13.9656 11.8025 13.9571C11.4816 13.8387 11.1337 13.8661 10.839 14.0158C10.2556 14.311 9.98915 15.0017 10.1834 15.6052L10.7331 17.3147C10.8419 17.703 11.0656 18.2781 11.2638 18.6323C11.6206 19.2696 12.2811 19.6408 12.8415 19.8275C13.1345 19.9251 13.4371 19.9853 13.7205 20.0039C13.9918 20.0218 14.3002 20.0051 14.5766 19.9028C14.9286 19.7724 15.1917 19.6166 15.4085 19.4143C15.5723 19.2614 15.7006 19.0846 15.7855 18.9676C15.801 18.9462 15.8151 18.9267 15.8277 18.9098L15.8446 18.8871L17.516 16.2483C17.8416 15.734 17.7912 14.9865 17.2517 14.5633L17.2247 14.5422C17.1481 14.4821 17.068 14.4334 16.9862 14.3956C17.1357 13.8633 16.9495 13.2249 16.3807 12.9323L16.3791 12.9314L16.3548 12.919C16.206 12.8426 16.0545 12.8015 15.9061 12.7902C15.8983 12.7896 15.8906 12.7891 15.8829 12.7886L15.8817 12.7832C15.7916 12.3795 15.5117 12.0148 15.0486 11.8808L15.0214 11.8729ZM15.147 13.2082C15.1661 13.1342 15.1697 13.0602 15.1598 12.9904C15.1337 12.8066 15.0144 12.6517 14.8401 12.6012L14.8128 12.5933C14.6385 12.5428 14.4549 12.61 14.3348 12.7514C14.289 12.8051 14.2525 12.8696 14.2292 12.9425L13.6545 14.8809L13.6978 13.3334C13.7174 13.129 13.6243 12.946 13.4725 12.8563C13.4199 12.8253 13.3603 12.8054 13.2959 12.7997L13.2674 12.7971C13.0171 12.7747 12.7849 12.9745 12.7428 13.2483L12.3096 16.0694L11.8074 14.917C11.7907 14.8779 11.7695 14.8418 11.7443 14.8094C11.6919 14.7417 11.6226 14.6901 11.5429 14.6607C11.4249 14.6172 11.2938 14.6259 11.178 14.6848C10.9351 14.8074 10.812 15.1106 10.8974 15.3756L11.4516 17.0994C11.546 17.4414 11.7523 17.9693 11.9183 18.2661C12.3744 19.0807 13.7567 19.4066 14.3161 19.1995C14.8242 19.0114 14.9752 18.8048 15.1665 18.543C15.1858 18.5166 15.2056 18.4895 15.2262 18.4619L16.8823 15.847C17.0288 15.6156 16.9875 15.3093 16.7887 15.1534L16.7621 15.1325C16.7411 15.1161 16.7192 15.1019 16.6965 15.09C16.5042 14.9891 16.2606 15.0504 16.1163 15.2474L15.3579 16.2826L16.24 14.2609C16.3507 14.007 16.261 13.7141 16.0376 13.5992L16.0121 13.5861C15.9556 13.5571 15.8957 13.5421 15.8358 13.5399C15.6585 13.5333 15.4804 13.6383 15.3873 13.8226L14.567 15.4452L15.147 13.2082Z" fill="white"/>
<path fill-rule="evenodd" clip-rule="evenodd" d="M5 10.9991C5 10.4468 5.44772 9.99907 6 9.99907H22C22.5523 9.99907 23 10.4468 23 10.9991V20.9991C23 21.5514 22.5523 21.9991 22 21.9991H6C5.44772 21.9991 5 21.5514 5 20.9991V10.9991ZM6 10.9991H22V20.9991H6V10.9991Z" fill="white"/>
</g>
</g>
</svg>
