<svg width="32" height="32" viewBox="0 0 32 32" fill="none" xmlns="http://www.w3.org/2000/svg">
<g id="NC">
<g id="Union" opacity="0.8">
<path d="M17.869 14.5419C17.8345 14.8159 17.5844 15.01 17.3104 14.9754C16.8954 14.9231 16.5262 14.9248 16.2042 15.0111C15.2794 15.2589 14.7307 16.2094 14.9785 17.1341C15.1369 17.7254 15.5824 18.1635 16.1272 18.3375C16.2488 18.3764 16.4546 18.3983 16.7238 18.4018C16.94 18.4047 17.16 18.3959 17.3625 18.3878L17.4826 18.3831C17.7585 18.3728 17.9906 18.5881 18.0009 18.864C18.0113 19.14 17.796 19.3721 17.52 19.3824L17.4097 19.3867C17.2076 19.3949 16.9561 19.405 16.7107 19.4017C16.4275 19.398 16.0949 19.377 15.8228 19.2901C14.9676 19.0168 14.2627 18.3267 14.0125 17.3929C13.6218 15.9347 14.4872 14.4359 15.9454 14.0451C16.4425 13.9119 16.956 13.9228 17.4355 13.9833C17.7095 14.0178 17.9036 14.2679 17.869 14.5419Z" fill="white"/>
<path fill-rule="evenodd" clip-rule="evenodd" d="M17.9896 10.7018C17.2185 9.37544 15.3027 9.37545 14.5316 10.7018L10.0079 18.4826C9.23269 19.816 10.1946 21.4879 11.7369 21.4879H20.7844C22.3267 21.4879 23.2886 19.8159 22.5134 18.4826L17.9896 10.7018ZM21.6489 18.9852L17.1251 11.2044C16.7395 10.5412 15.7816 10.5412 15.3961 11.2044L10.8724 18.9853C10.4848 19.6519 10.9657 20.4879 11.7369 20.4879H20.7844C21.5555 20.4879 22.0365 19.6519 21.6489 18.9852Z" fill="white"/>
<path fill-rule="evenodd" clip-rule="evenodd" d="M6 9C6 7.89543 6.89543 7 8 7H24C25.1046 7 26 7.89543 26 9V23C26 24.1046 25.1046 25 24 25H8C6.89543 25 6 24.1046 6 23V9ZM8 8H24C24.5523 8 25 8.44772 25 9V23C25 23.5523 24.5523 24 24 24H8C7.44772 24 7 23.5523 7 23V9C7 8.44772 7.44772 8 8 8Z" fill="white"/>
</g>
</g>
</svg>
