<svg width="32" height="32" viewBox="0 0 32 32" fill="none" xmlns="http://www.w3.org/2000/svg">
<g id="&#229;&#191;&#171;&#233;&#128;&#159;_icon">
<g id="Union" opacity="0.8">
<path d="M23.586 25H3V24H23.0164L27.7607 15.9998L23.0164 8H3V7H23.586L28.9233 15.9998L23.586 25Z" fill="white"/>
<path d="M16.3378 16.5L14.3498 18.5069C14.1555 18.7031 14.157 19.0197 14.3532 19.214C14.5494 19.4084 14.866 19.4069 15.0603 19.2107L17.8752 16.3688C17.976 16.2671 18.0241 16.1331 18.0197 16.0004C18.0243 15.8675 17.9762 15.7331 17.8753 15.6312L15.0603 12.7893C14.866 12.5931 14.5494 12.5916 14.3532 12.7859C14.1571 12.9803 14.1555 13.2969 14.3499 13.493L16.3378 15.5H6.15588C5.87974 15.5 5.65588 15.7239 5.65588 16C5.65588 16.2761 5.87974 16.5 6.15588 16.5H16.3378Z" fill="white"/>
<path d="M18.3007 18.5069L20.7838 16L18.3007 13.493C18.1064 13.2969 18.1079 12.9803 18.304 12.7859C18.5002 12.5916 18.8168 12.5931 19.0111 12.7893L21.8261 15.6312C21.927 15.7331 21.9751 15.8676 21.9705 16.0005C21.9749 16.1331 21.9268 16.2671 21.826 16.3688L19.0111 19.2107C18.8168 19.4069 18.5002 19.4084 18.304 19.214C18.1078 19.0197 18.1063 18.7031 18.3007 18.5069Z" fill="white"/>
</g>
</g>
</svg>
