<svg width="32" height="32" viewBox="0 0 32 32" fill="none" xmlns="http://www.w3.org/2000/svg">
<g id="&#230;&#159;&#165;&#230;&#137;&#190;_icon">
<g id="Union" opacity="0.8">
<path d="M23.586 25.0488H3V24.0488H23.0164L27.7607 16.0487L23.0164 8.04883H3V7.04883H23.586L28.9233 16.0487L23.586 25.0488Z" fill="white"/>
<path fill-rule="evenodd" clip-rule="evenodd" d="M15 21.0002C17.7614 21.0002 20 18.7616 20 16.0002C20 13.2388 17.7614 11.0002 15 11.0002C12.2386 11.0002 10 13.2388 10 16.0002C10 16.8 10.1878 17.556 10.5218 18.2264L7.4552 19.6209C7.20383 19.7352 7.09271 20.0316 7.20702 20.283C7.32132 20.5343 7.61776 20.6455 7.86914 20.5312L10.978 19.1175C11.0057 19.1049 11.0316 19.0901 11.0558 19.0735C11.9708 20.2462 13.3973 21.0002 15 21.0002ZM15 20.0002C17.2092 20.0002 19 18.2094 19 16.0002C19 13.7911 17.2092 12.0002 15 12.0002C12.7909 12.0002 11 13.7911 11 16.0002C11 18.2094 12.7909 20.0002 15 20.0002Z" fill="white"/>
</g>
</g>
</svg>
