<svg width="41" height="41" viewBox="0 0 41 41" fill="none" xmlns="http://www.w3.org/2000/svg">
<g id="M3_stop_M">
<g id="Group 2132">
<g id="Group 2133">
<path id="Rectangle 892" d="M22.959 27.3594V32.3594H27.959L22.959 27.3594Z" fill="#5D7392"/>
<path id="Ellipse 210" d="M24.9058 30.3226C27.267 29.0751 28.793 27.0957 28.793 24.867C28.793 21.0928 24.4168 18.0332 19.0186 18.0332C13.6203 18.0332 9.24414 21.0928 9.24414 24.867C9.24414 26.5384 10.1023 28.0696 11.5275 29.257" stroke="#5D7392" stroke-width="1.5" stroke-linecap="round"/>
</g>
<g id="Group 2131">
<g id="Group 1870">
<path id="Rectangle 552" d="M14.2754 14.8594H21.2754V31.8594H17.6777H14.2754V14.8594Z" fill="url(#paint0_linear_385_9835)" stroke="#375278"/>
<g id="Vector" filter="url(#filter0_dii_385_9835)">
<path d="M14.7754 21.3594L20.7754 18.3594V19.7716L14.7754 22.7716V21.3594Z" fill="#375278"/>
<path d="M14.7754 24.8143L20.7754 21.8143V23.2265L14.7754 26.2265V24.8143Z" fill="#375278"/>
<path d="M14.7754 28.2692L20.7754 25.2692V26.6814L14.7754 29.6814V28.2692Z" fill="#375278"/>
</g>
<path id="Rectangle 553" d="M22.7754 11.8594C23.0515 11.8594 23.2754 12.0832 23.2754 12.3594L23.2754 15.3594C23.2754 15.6355 23.0515 15.8594 22.7754 15.8594L12.7754 15.8594C12.4992 15.8594 12.2754 15.6355 12.2754 15.3594L12.2754 12.3594C12.2754 12.0832 12.4992 11.8594 12.7754 11.8594L22.7754 11.8594Z" fill="url(#paint1_linear_385_9835)" stroke="#375278"/>
<path id="Rectangle 139" d="M24.7754 8.85937C25.0515 8.85937 25.2754 9.08323 25.2754 9.35937L25.2754 12.3594C25.2754 12.6355 25.0515 12.8594 24.7754 12.8594L10.7754 12.8594C10.4992 12.8594 10.2754 12.6355 10.2754 12.3594L10.2754 9.35937C10.2754 9.08323 10.4992 8.85937 10.7754 8.85937L24.7754 8.85937Z" fill="url(#paint2_linear_385_9835)" stroke="#375278"/>
</g>
<g id="Group 2130">
<circle id="Ellipse 209" cx="27.7754" cy="23.3789" r="4.5" fill="white" stroke="#375278"/>
<rect id="Rectangle 891" x="24.5479" y="20.8594" width="1" height="8.41416" transform="rotate(-45 24.5479 20.8594)" fill="#375278"/>
</g>
</g>
</g>
</g>
<defs>
<filter id="filter0_dii_385_9835" x="14.7754" y="18.3594" width="6" height="11.3723" filterUnits="userSpaceOnUse" color-interpolation-filters="sRGB">
<feFlood flood-opacity="0" result="BackgroundImageFix"/>
<feColorMatrix in="SourceAlpha" type="matrix" values="0 0 0 0 0 0 0 0 0 0 0 0 0 0 0 0 0 0 127 0" result="hardAlpha"/>
<feOffset dy="0.05"/>
<feComposite in2="hardAlpha" operator="out"/>
<feColorMatrix type="matrix" values="0 0 0 0 0 0 0 0 0 0 0 0 0 0 0 0 0 0 0.1 0"/>
<feBlend mode="normal" in2="BackgroundImageFix" result="effect1_dropShadow_385_9835"/>
<feBlend mode="normal" in="SourceGraphic" in2="effect1_dropShadow_385_9835" result="shape"/>
<feColorMatrix in="SourceAlpha" type="matrix" values="0 0 0 0 0 0 0 0 0 0 0 0 0 0 0 0 0 0 127 0" result="hardAlpha"/>
<feOffset dy="-0.05"/>
<feComposite in2="hardAlpha" operator="arithmetic" k2="-1" k3="1"/>
<feColorMatrix type="matrix" values="0 0 0 0 0.0881076 0 0 0 0 0.126591 0 0 0 0 0.145833 0 0 0 0.3 0"/>
<feBlend mode="normal" in2="shape" result="effect2_innerShadow_385_9835"/>
<feColorMatrix in="SourceAlpha" type="matrix" values="0 0 0 0 0 0 0 0 0 0 0 0 0 0 0 0 0 0 127 0" result="hardAlpha"/>
<feOffset dy="0.05"/>
<feComposite in2="hardAlpha" operator="arithmetic" k2="-1" k3="1"/>
<feColorMatrix type="matrix" values="0 0 0 0 0 0 0 0 0 0 0 0 0 0 0 0 0 0 0.25 0"/>
<feBlend mode="normal" in2="effect2_innerShadow_385_9835" result="effect3_innerShadow_385_9835"/>
</filter>
<linearGradient id="paint0_linear_385_9835" x1="21.8633" y1="28.5766" x2="13.6699" y2="29.2421" gradientUnits="userSpaceOnUse">
<stop stop-color="#5A7295"/>
<stop offset="0.46153" stop-color="#DFE4E9"/>
<stop offset="1" stop-color="#768AA7"/>
</linearGradient>
<linearGradient id="paint1_linear_385_9835" x1="23.7754" y1="13.8594" x2="11.7754" y2="13.8594" gradientUnits="userSpaceOnUse">
<stop stop-color="#D0DDEF"/>
<stop offset="1" stop-color="#F8F8F8"/>
</linearGradient>
<linearGradient id="paint2_linear_385_9835" x1="25.7754" y1="10.8594" x2="9.77539" y2="10.8594" gradientUnits="userSpaceOnUse">
<stop stop-color="#D0DDEF"/>
<stop offset="1" stop-color="#F8F8F8"/>
</linearGradient>
</defs>
</svg>
