<svg width="16" height="16" viewBox="0 0 16 16" fill="none" xmlns="http://www.w3.org/2000/svg">
<g id="cooling_liquid_icon">
<rect id="Rectangle 605" width="16" height="16" rx="2" fill="white"/>
<g id="Group 1324">
<path id="Union" d="M6.4209 3.08691H10.7174V5.08691H9.56934V6.17188H11.7085V5.17188H13.7085V9.17188H11.7085V8.17188H9.56934V9.08346H7.56934V8.17188H5.55664V10.4043H3.55664V7.17188C3.55664 6.61959 4.00436 6.17188 4.55664 6.17188H7.56934V5.08691H6.4209V3.08691Z" fill="#375278"/>
<g id="Vector">
<path d="M4.39872 11.1943H4.68421V12.913H4.39872V11.1943Z" fill="#56CCF2"/>
<path d="M3.90226 10.8057L4.10413 11.0075L2.88889 12.2228L2.68701 12.0209L3.90226 10.8057Z" fill="#56CCF2"/>
<path d="M5.10734 10.8057L4.90546 11.0075L6.12071 12.2228L6.32258 12.0209L5.10734 10.8057Z" fill="#56CCF2"/>
</g>
</g>
</g>
</svg>
