<svg width="35" height="34" viewBox="0 0 35 34" fill="none" xmlns="http://www.w3.org/2000/svg">
<g id="Group 1678">
<g id="Group 1455">
<path id="Vector 285" d="M24.3618 12.7276C25.7247 12.248 25.8292 13.6236 25.711 14.3714L25.7572 23.6796C25.6637 24.9588 26.1665 26.0133 24.8624 26.7894C23.5583 27.5656 23.4044 27.0036 23.267 26.6256C23.1303 23.4718 22.867 16.8287 22.9078 15.4869C22.9589 13.8096 22.6582 13.3272 24.3618 12.7276Z" fill="#8798AD"/>
<path id="Vector 305" opacity="0.8" d="M22.4621 26.5938C22.5727 24.6615 22.7744 20.5894 22.6961 19.7597C22.5982 18.7225 22.1585 15.4871 22.7448 13.97C23.0704 13.4436 23.8944 12.4343 24.5849 12.6077L24.603 12.6824C24.1657 12.7693 23.2427 13.0811 23.0492 13.633L23.0477 13.6376C22.9572 13.9209 22.9041 14.0874 22.9094 15.9124C22.9137 17.3802 23.1502 23.604 23.268 26.5325C23.2778 26.6837 23.3604 26.9967 23.6072 27.1405L23.6863 27.1783C23.6582 27.1676 23.6319 27.1549 23.6072 27.1405L22.4621 26.5938Z" fill="#204B58"/>
<g id="Group 817">
<path id="Vector 284" d="M14.0718 5.59953L14.1761 5.37637L14.0718 5.59953L24.3546 10.4241C24.6299 10.5533 24.5931 10.9556 24.2992 11.0313L24.3537 11.241L24.2992 11.0313C24.2588 11.0417 24.218 11.0555 24.1786 11.0727C21.055 12.4364 20.8555 15.5634 21.1414 16.9548C21.3679 18.3701 21.3785 20.7229 21.3204 22.7893C21.2915 23.82 21.2457 24.7732 21.2023 25.4929C21.1807 25.8527 21.1596 26.1536 21.1417 26.3761C21.1231 26.6066 21.109 26.7366 21.1027 26.7686C21.0864 26.852 21.04 26.9788 20.9721 27.1299C20.8267 27.4535 20.4206 27.589 20.0623 27.4173L10.5523 22.8571C10.2743 22.7238 10.0312 22.3532 9.88271 21.8586C9.73731 21.3743 9.7067 20.8481 9.78616 20.4939C9.8882 20.039 9.93877 19.5569 9.91303 19.1215L9.76104 11.1178C9.76952 10.8696 9.76766 10.6338 9.7659 10.4112C9.76527 10.3316 9.76466 10.2536 9.76453 10.1773C9.76406 9.88227 9.77072 9.60506 9.8085 9.31979C9.88302 8.75717 10.0815 8.14196 10.621 7.31741C11.5895 5.83742 13.0702 5.53662 13.8247 5.53785C13.9026 5.53798 13.9854 5.55901 14.0718 5.59953Z" fill="#204B58" stroke="#A9AFB7" stroke-width="0.5" stroke-linejoin="round"/>
<g id="Vector" opacity="0.8">
<path d="M12.1752 10.1921L12.1563 9.48168C12.1491 9.21098 12.4828 9.03391 12.7564 9.16322L19.2557 12.2889C19.3823 12.3488 19.4623 12.4627 19.4656 12.588L19.4844 13.2984C19.4916 13.5691 19.158 13.7462 18.8844 13.6169L12.3851 10.4912C12.2585 10.4313 12.1785 10.3174 12.1752 10.1921Z" fill="#898989"/>
<path d="M12.2357 12.4734L12.2167 11.7578C12.2096 11.4888 12.5393 11.3116 12.8128 11.4375L16.9709 13.4269C17.0996 13.4861 17.1813 13.6011 17.1847 13.7277L17.2037 14.4433C17.2108 14.7123 16.881 14.8895 16.6076 14.7636L12.4495 12.7742C12.3207 12.715 12.239 12.6 12.2357 12.4734Z" fill="#898989"/>
</g>
<g id="Vector_2">
<path d="M11.9501 10.2468L11.9312 9.53636C11.924 9.26567 12.2577 9.08859 12.5313 9.21791L19.074 12.3731C19.2006 12.4329 19.2806 12.5468 19.2839 12.6721L19.3028 13.3826C19.3099 13.6533 18.9763 13.8303 18.7027 13.701L12.16 10.5459C12.0334 10.486 11.9534 10.3721 11.9501 10.2468Z" fill="#E8E9EA"/>
<path d="M12.0106 12.5281L11.9916 11.8125C11.9845 11.5435 12.3143 11.3663 12.5877 11.4922L16.7892 13.511C16.918 13.5703 16.9997 13.6852 17.003 13.8119L17.022 14.5274C17.0292 14.7964 16.6994 14.9736 16.4259 14.8477L12.2244 12.8289C12.0956 12.7697 12.0139 12.6547 12.0106 12.5281Z" fill="#E8E9EA"/>
</g>
</g>
<path id="Subtract" fill-rule="evenodd" clip-rule="evenodd" d="M21.459 25.1472C21.4616 25.0576 21.4634 24.9929 21.4661 24.9533C21.4745 24.8311 21.6207 22.1211 21.5962 20.773C21.6207 19.85 21.5613 18.4222 21.4146 17.1008C21.4029 17.0259 21.3922 16.9593 21.3823 16.898C21.3537 16.72 21.3322 16.5867 21.3168 16.4267C21.184 15.0521 21.6058 13.0001 23.3896 11.7677C23.6379 11.6152 24.1836 11.3002 24.3792 11.2603C24.4281 11.2437 24.7285 11.1175 24.7878 10.8054C24.7937 10.749 24.8011 10.6235 24.7844 10.573C24.7634 10.5099 26.0928 11.062 25.754 13.8068L25.7356 13.8138C25.7162 12.6751 25.0814 12.5382 24.5767 12.6616C24.5492 12.636 24.5162 12.6184 24.4768 12.6102C24.0054 12.5122 22.2486 13.4819 22.3911 16.0284C22.4637 17.3251 22.539 18.2047 22.5976 18.8882C22.6757 19.7996 22.7239 20.3625 22.6958 21.1009C22.6516 22.8187 22.5159 26.2758 22.4688 26.5223C22.4098 26.8304 21.3811 27.7069 20.9526 27.5697C21.0796 27.4736 21.1736 27.3174 21.2644 27.0949C21.2674 27.0845 21.2706 27.074 21.2738 27.0633C21.3135 26.9297 21.3624 26.7656 21.3831 26.5205C21.4389 25.8612 21.4518 25.4027 21.459 25.1472Z" fill="#D9D9D9" fill-opacity="0.8"/>
<ellipse id="Ellipse 89" cx="0.459746" cy="0.455771" rx="0.459746" ry="0.455771" transform="matrix(0.999713 -0.0239672 0.0265219 0.999648 23.9126 14.3164)" fill="#C3C7CC"/>
<g id="Group 816">
<path id="Vector 272" d="M18.1008 17.9582C19.2483 17.0504 19.9632 18.1349 20.1772 18.7906C21.01 20.9095 23.3234 24.9736 23.2681 26.0731C23.2128 27.1727 22.47 27.6286 21.9532 27.4334C20.5601 26.77 17.4517 25.1057 16.0665 24.3418C14.6813 23.578 14.9566 22.5847 15.2674 22.1836C16.0639 21.1454 16.9533 18.866 18.1008 17.9582Z" fill="#D9D9D9"/>
<path id="Vector 267" d="M17.701 18.0083C18.8485 17.1005 19.5634 18.185 19.7775 18.8407C20.6102 20.9596 23.1422 25.4511 23.0869 26.5507C23.0315 27.6503 21.9842 27.5347 21.4674 27.3395C20.0743 26.6762 16.9419 25.1584 15.5567 24.3946C14.1715 23.6307 14.4468 22.6375 14.7576 22.2363C15.554 21.1982 16.5535 18.9161 17.701 18.0083Z" fill="#E8E9EA"/>
<path id="Vector 270" d="M18.8565 20.2514C18.9996 20.2473 19.1198 20.3247 19.2086 20.4165C19.3276 20.5394 19.3489 20.7204 19.3322 20.8928C19.263 21.607 19.1429 22.7132 19.0677 22.9273C18.9826 23.17 18.5762 23.2061 18.3836 23.1939L18.4224 20.4764C18.4598 20.4044 18.5989 20.2587 18.8565 20.2514Z" fill="#898989"/>
<g id="Vector_3">
<path d="M18.3577 23.7417C18.5047 23.418 18.8702 23.5848 18.992 23.6848C19.3399 24.0537 19.0606 24.3842 18.8384 24.4108C18.6409 24.4345 18.169 24.1575 18.3577 23.7417Z" fill="#898989"/>
<path d="M18.0507 23.741L18.5241 23.5763L18.923 24.3868L18.453 24.5532L18.0507 23.741Z" fill="#898989"/>
</g>
<g id="Vector_4">
<path d="M17.9188 23.9024C18.0641 23.5783 18.4302 23.7437 18.5524 23.8432C18.9018 24.2106 18.6244 24.5419 18.4024 24.5693C18.2052 24.5937 17.7322 24.3186 17.9188 23.9024Z" fill="#4E6076"/>
<path d="M18.5514 20.4085C18.7045 20.4073 18.8128 20.5281 18.872 20.6322C18.9041 20.6886 18.9115 20.754 18.9078 20.8185C18.8821 21.2635 18.8229 22.098 18.7524 22.5322C18.6573 23.1176 18.625 23.2169 18.3502 23.2018C18.1304 23.1896 18.0777 22.8462 18.0788 22.6759C18.0768 22.1809 18.0829 21.1266 18.1227 20.8691C18.1726 20.5473 18.2998 20.4106 18.5514 20.4085Z" fill="#4E6076"/>
</g>
</g>
</g>
</g>
</svg>
