<svg width="38" height="38" viewBox="0 0 38 38" fill="none" xmlns="http://www.w3.org/2000/svg">
<g id="imtos_gear">
<g id="Group 2102">
<path id="Vector" d="M29.6166 4.97006L28.1664 6.4292C27.7003 6.89821 26.9753 7.00244 26.4056 6.68976C25.8359 6.37709 25.5251 5.69963 25.7323 5.02218L26.302 2.9898C26.3538 2.72924 26.1984 2.46868 25.9394 2.36446L21.7444 1.21799C21.4854 1.16588 21.2264 1.32222 21.1229 1.58278L20.605 3.61515C20.4496 4.2405 19.8281 4.7095 19.1548 4.7095C18.4815 4.7095 17.9118 4.2405 17.7564 3.61515L17.2385 1.58278C17.1867 1.32222 16.876 1.16588 16.6171 1.21799L12.422 2.36446C12.163 2.41657 12.0076 2.72924 12.0594 2.9898L12.5773 5.02218C12.7327 5.64752 12.4738 6.37709 11.9041 6.68976C11.3344 7.00244 10.6093 6.95032 10.1432 6.48132L8.64122 4.97006C8.43406 4.76162 8.12332 4.76162 7.91615 4.97006L4.86049 8.04468C4.65332 8.25313 4.65332 8.5658 4.86049 8.77425L6.31063 10.2334C6.77675 10.7024 6.88034 11.432 6.51781 12.0052C6.20706 12.5784 5.48198 12.8911 4.86049 12.6827L2.84064 12.1615C2.58168 12.1094 2.32272 12.2658 2.21914 12.5263L1.07975 16.7474C1.02796 17.008 1.18332 17.2685 1.44228 17.3727L3.46212 17.8939C4.08361 18.0502 4.54974 18.6755 4.54974 19.353C4.54974 20.0305 4.08361 20.6037 3.46212 20.76L1.44228 21.3333C1.18332 21.3854 1.02796 21.6981 1.07975 21.9586L2.21914 26.1797C2.27093 26.4403 2.58168 26.5966 2.84064 26.5445L4.86049 26.0234C5.48198 25.867 6.20706 26.1276 6.51781 26.7008C6.82855 27.274 6.77676 28.0036 6.25885 28.4726L4.7569 29.9839C4.54973 30.1923 4.54973 30.505 4.7569 30.7134L7.81258 33.7881C8.01974 33.9965 8.33049 33.9965 8.53765 33.7881L9.98779 32.3289C10.4539 31.8599 11.179 31.7557 11.7487 32.0684C12.3184 32.381 12.5774 33.1106 12.422 33.7359L11.8523 35.7683C11.8005 36.0289 11.9559 36.2894 12.2148 36.3937L16.4099 37.5401C16.6688 37.5922 16.9278 37.4359 17.0314 37.1754L17.5493 35.143C17.7047 34.5176 18.3261 34.0486 18.9994 34.0486C18.9994 34.0486 18.9994 34.0486 19.0512 34.0486C19.7245 34.0486 20.2942 34.5176 20.4496 35.143L20.9675 37.1754C21.0193 37.4359 21.33 37.5922 21.589 37.5401L25.7841 36.3937C26.043 36.3416 26.1984 36.0289 26.1466 35.7683L25.6287 33.7359C25.4733 33.1106 25.7323 32.381 26.302 32.0684C26.302 32.0684 26.302 32.0684 26.3538 32.0684C26.9235 31.7557 27.6485 31.8078 28.1147 32.2768L29.5648 33.7359C29.772 33.9444 30.0827 33.9444 30.2899 33.7359L33.3455 30.6613C33.5527 30.4529 33.5527 30.1402 33.3455 29.9318L31.8954 28.4726C31.4293 28.0036 31.3257 27.274 31.6882 26.7008C31.999 26.1276 32.7241 25.8149 33.3455 26.0234L35.3654 26.5445C35.6243 26.5966 35.8833 26.4403 35.9869 26.1797L37.1263 21.9586C37.1781 21.6981 37.0227 21.4375 36.7638 21.3333L34.7439 20.8121C34.1224 20.6558 33.6563 20.0305 33.6563 19.4051C33.6563 19.4051 33.6563 19.4051 33.6563 19.353C33.6563 18.6755 34.1224 18.1023 34.7439 17.946L36.7638 17.4249C37.0227 17.3727 37.1781 17.0601 37.1263 16.7995L35.9869 12.5784C35.9351 12.3179 35.6243 12.1615 35.3654 12.2136L33.3455 12.7348C32.7241 12.8911 31.999 12.6305 31.6882 12.0573C31.3775 11.4841 31.4293 10.7545 31.9472 10.2855L33.4491 8.77425C33.6563 8.5658 33.6563 8.25313 33.4491 8.04468L30.3935 4.97006C30.1345 4.81373 29.8238 4.81373 29.6166 4.97006ZM29.4094 15.184C29.9273 16.539 30.2381 17.946 30.2381 19.4051C30.2381 20.8643 29.9791 22.2713 29.4094 23.6262C28.8397 25.0332 28.0111 26.2839 26.9753 27.3262C25.8876 28.4205 24.6447 29.2543 23.2981 29.7754C21.9515 30.3487 20.5532 30.6092 19.103 30.6092C17.6529 30.6092 16.2545 30.3487 14.9079 29.7754C13.5096 29.2022 12.2666 28.3684 11.2308 27.3262C10.1432 26.2318 9.36631 25.0332 8.79661 23.6262C8.2787 22.2713 7.96795 20.8643 7.96795 19.4051C7.96795 17.946 8.22691 16.539 8.79661 15.184C9.36631 13.777 10.195 12.5263 11.2308 11.4841C12.3184 10.3897 13.5614 9.55593 14.9079 9.03481C16.2545 8.46158 17.6529 8.20102 19.103 8.20102C20.5532 8.20102 21.9515 8.46158 23.2981 9.03481C24.6964 9.60804 25.9394 10.4418 26.9753 11.4841C28.0111 12.5263 28.8397 13.777 29.4094 15.184Z" fill="white"/>
<path id="Vector_2" d="M22.8157 23.1822C24.898 21.0851 24.8966 17.6866 22.8125 15.5914C20.7284 13.4961 17.3508 13.4976 15.2684 15.5946C13.1861 17.6916 13.1875 21.0901 15.2717 23.1854C17.3558 25.2806 20.7333 25.2792 22.8157 23.1822Z" fill="white"/>
</g>
</g>
</svg>
