<svg width="16" height="16" viewBox="0 0 16 16" fill="none" xmlns="http://www.w3.org/2000/svg">
<g id="&#230;&#137;&#139;&#229;&#138;&#168;">
<rect id="Rectangle 605" width="16" height="16" rx="2" fill="#375278" fill-opacity="0.2"/>
<path id="Vector" d="M9.24101 3.71231L9.241 3.71217C9.22433 3.12936 8.78179 2.6 8.16504 2.6L8.12367 2.6C7.50693 2.6 7.06429 3.12938 7.0479 3.71237L7.04765 3.72105L7.04775 3.72105L7.04641 3.92975C6.81446 3.61418 6.4303 3.42634 6.00645 3.50883C6.00629 3.50886 6.00612 3.50889 6.00596 3.50893L5.96591 3.51664L5.96522 3.51677C5.36692 3.63315 5.01799 4.22763 5.09311 4.80338L5.09311 4.80343L5.45182 7.55029L5.16444 7.20515C4.97704 6.97723 4.7071 6.83136 4.41021 6.81014C4.11269 6.78887 3.82439 6.89547 3.60784 7.09748C3.17012 7.50391 3.10299 8.19296 3.43146 8.68568L4.90244 11.0482C4.90259 11.0485 4.90274 11.0487 4.90289 11.049C5.18732 11.5103 5.70942 12.1902 6.08937 12.5641L6.08945 12.5642C6.67416 13.1392 7.54911 13.3656 8.32391 13.3963C8.71859 13.4119 9.10723 13.3779 9.45007 13.3029C9.78664 13.2292 10.1073 13.1097 10.3446 12.9348C10.7275 12.6528 10.9635 12.3936 11.1287 12.1177C11.2583 11.9013 11.3394 11.6783 11.4125 11.4777C11.4277 11.4359 11.4425 11.3951 11.4574 11.3555L11.4635 11.3392L11.4682 11.3225L12.727 6.81632C12.8873 6.26208 12.6339 5.62801 12.0791 5.40492L12.0788 5.40479L12.0332 5.38648C12.0331 5.38647 12.0331 5.38645 12.0331 5.38644C11.707 5.25559 11.3738 5.30363 11.1086 5.47035L11.1958 4.80348L11.1958 4.80338C11.271 4.22732 10.9215 3.63348 10.324 3.51683L10.323 3.51664L10.2827 3.50888L10.282 3.50875L9.24101 3.71231ZM9.24101 3.71231L9.24698 3.92381L9.24101 3.71231Z" stroke="#375278" stroke-width="0.8"/>
<rect id="Rectangle 618" x="13.1299" y="2.87474" width="1.6" height="14.2647" transform="rotate(45 13.1299 2.87474)" fill="#375278" stroke="#D7DCE4" stroke-width="0.8"/>
</g>
</svg>
