<svg width="24" height="24" viewBox="0 0 24 24" fill="none" xmlns="http://www.w3.org/2000/svg">
<g id="mode_switching_icon" opacity="0.8">
<rect id="Rectangle 739" x="5" y="4" width="18" height="4" fill="white"/>
<path id="Polygon 12" d="M1.19542 6.15606C1.09526 6.076 1.09526 5.92369 1.19542 5.84363L8.18067 0.259706C8.31164 0.155015 8.50555 0.248259 8.50555 0.415926L8.50556 11.5841C8.50556 11.7517 8.31163 11.845 8.18067 11.7403L1.19542 6.15606Z" fill="white"/>
<rect id="Rectangle 739_2" x="19" y="20" width="18" height="4" transform="rotate(180 19 20)" fill="white"/>
<path id="Polygon 12_2" d="M22.8046 17.8439C22.9047 17.924 22.9047 18.0763 22.8046 18.1564L15.8193 23.7403C15.6884 23.845 15.4944 23.7517 15.4944 23.5841L15.4944 12.4159C15.4944 12.2483 15.6884 12.155 15.8193 12.2597L22.8046 17.8439Z" fill="white"/>
</g>
</svg>
