<svg width="34" height="34" viewBox="0 0 34 34" fill="none" xmlns="http://www.w3.org/2000/svg">
<g id="Group 1456">
<g id="Group 819">
<g id="Group 818" opacity="0.3">
<path id="Vector 291" d="M19.3335 5.29071C19.8641 4.94072 20.0418 4.93472 20.3091 5.12469C20.3349 5.14308 20.362 5.15997 20.3905 5.17398C20.8321 5.39111 21.7464 5.85831 22.1949 6.15146C22.7744 6.53019 22.7382 6.77121 22.6658 7.49424C22.613 8.02131 23.0918 8.49312 23.2869 8.71167C23.3197 8.74849 23.3434 8.7914 23.3643 8.83609C23.6445 9.4344 24.7134 10.5927 25.0201 10.9373C25.4185 11.3849 25.5272 11.316 26.1791 11.2127C26.7007 11.1301 27.0001 11.798 27.0846 12.1423C27.2295 12.5096 27.5917 13.3818 27.8815 13.9327C28.137 14.4186 27.9417 14.8152 27.7678 15.0044C27.726 15.0499 27.6702 15.0788 27.6116 15.0982L27.2103 15.2309C27.0056 15.2986 26.8675 15.4898 26.8656 15.7054C26.8592 16.4614 26.8323 17.6305 26.7586 18.1676C26.65 18.9595 27.2295 18.8906 27.8452 19.7858C28.2529 20.3785 28.0912 21.4278 27.8933 21.8175C27.836 21.9302 27.7353 22.0263 27.6458 22.1156C27.136 22.6243 25.3674 23.795 25.0307 23.992C24.5599 24.2674 25.9195 21.3304 25.34 21.1238C24.7605 20.9172 23.8215 20.4356 23.7129 21.2274C23.6635 21.5873 23.5807 21.816 23.5028 21.9528C23.4302 22.0804 23.2758 22.0839 23.1463 22.0148C22.5802 21.7127 21.6269 21.1787 21.1413 20.8143C20.4531 20.2978 20.3807 20.5388 20.3807 19.4371C20.3807 19.3482 20.3799 19.2674 20.3786 19.1941C20.3721 18.8463 20.0253 18.2675 19.7958 18.0061C19.3346 17.4807 18.7663 16.8154 18.4972 16.4417C18.0264 15.7875 17.809 15.5809 17.2658 15.7186C16.8311 15.8288 16.481 15.4891 16.3603 15.3055C15.9981 14.5595 15.2374 12.978 15.0926 12.6199C14.9115 12.1723 15.0926 11.587 15.5272 11.5181C15.6395 11.5003 15.7498 11.4845 15.8517 11.4707C16.1158 11.4352 16.3045 11.196 16.1487 10.9797C15.6873 10.3392 14.4821 9.76246 14.5532 9.49217C14.6619 9.07901 14.0099 7.97724 13.5028 7.77066C13.0971 7.60539 13.3338 7.10501 13.5028 6.87547C13.6356 6.7148 14.3156 5.93761 14.5666 5.68821C14.8004 5.45584 15.0816 5.35871 15.2837 5.30962C15.4294 5.27422 15.5869 5.30996 15.7006 5.40772C15.9758 5.64428 16.2694 5.97603 16.3635 6.28918C16.4794 6.6748 16.8706 6.63348 17.0517 6.56462L17.7412 6.2883C17.904 6.22304 18.0542 6.08566 18.2009 5.98953C18.4119 5.85128 18.7906 5.64876 19.3335 5.29071Z" fill="url(#paint0_linear_320_4732)"/>
<path id="Vector 292" d="M21.198 10.5372L21.2042 10.545L21.2109 10.5522C21.743 11.1271 22.883 12.362 23.1997 12.7177C23.404 12.9473 23.5807 13.1018 23.8306 13.1425C23.946 13.1613 24.0618 13.1533 24.1774 13.1384C24.2508 13.1289 24.3363 13.1147 24.4297 13.0992C24.4793 13.0909 24.5312 13.0823 24.5846 13.0739C24.7133 13.0535 24.8372 13.1161 24.9625 13.2822C25.0869 13.4472 25.1713 13.6662 25.2081 13.8161L25.2122 13.8326L25.2184 13.8483C25.3638 14.2169 25.7301 15.0997 26.0265 15.6633C26.219 16.0292 26.0752 16.3134 25.9501 16.4495C25.9473 16.4525 25.935 16.4633 25.8994 16.4751L25.4982 16.6078C25.1908 16.7094 24.9847 16.9959 24.982 17.3175C24.9755 18.0781 24.9484 19.2298 24.8773 19.7479C24.8461 19.9753 24.8609 20.1666 24.9309 20.3376C25 20.5063 25.1126 20.6295 25.2264 20.7353C25.2798 20.785 25.335 20.8326 25.3916 20.8815C25.5796 21.0438 25.785 21.221 26.0056 21.5417C26.1762 21.7898 26.2166 21.9588 26.2156 22.0608C26.2147 22.1561 26.1779 22.2137 26.1374 22.2508C26.1277 22.2597 26.1117 22.2737 26.0933 22.29C26.0601 22.3192 26.0187 22.3556 25.9912 22.3819C25.9371 22.4336 25.8757 22.4998 25.8273 22.5847C25.7165 22.7792 25.5644 23.0236 25.4026 23.2404C25.2362 23.4632 25.0813 23.6267 24.9661 23.6955C24.9654 23.6954 24.9647 23.6952 24.9638 23.695C24.9464 23.6906 24.9105 23.6749 24.8543 23.6308C24.7404 23.5413 24.6087 23.3892 24.4553 23.1977C24.42 23.1535 24.3835 23.1073 24.3463 23.0602C24.2303 22.9133 24.1068 22.7569 23.9857 22.6227C23.8311 22.4513 23.6433 22.272 23.4341 22.1975C23.2434 22.1295 22.983 22.1117 22.7183 22.1246C22.4469 22.1379 22.1443 22.1849 21.8567 22.2654C21.571 22.3452 21.287 22.4617 21.0616 22.621C20.838 22.779 20.6436 23.0005 20.6033 23.2942C20.56 23.6101 20.4913 23.8016 20.4355 23.9081C20.4262 23.9058 20.4147 23.9017 20.4021 23.8949C19.8339 23.5918 18.8973 23.0661 18.4295 22.715C18.2791 22.6022 18.1546 22.5224 18.06 22.4617C18.0409 22.4494 18.023 22.438 18.0064 22.4272C17.9008 22.3586 17.8644 22.3277 17.8426 22.2981C17.8258 22.2751 17.8038 22.2331 17.7889 22.1142C17.7736 21.9914 17.7688 21.8147 17.7688 21.5378C17.7688 21.4475 17.768 21.3652 17.7666 21.2902C17.7623 21.0544 17.6495 20.7787 17.5302 20.552C17.4065 20.3169 17.2517 20.0898 17.1218 19.9419C16.659 19.4147 16.099 18.7585 15.8383 18.3963C15.6082 18.0766 15.4098 17.8198 15.1818 17.6735C14.9245 17.5084 14.6573 17.4972 14.3424 17.577C14.2067 17.6114 14.0789 17.5786 13.962 17.5085C13.8487 17.4406 13.761 17.3458 13.7154 17.2808C13.3477 16.5233 12.6022 14.9723 12.4624 14.6268C12.3955 14.4614 12.3958 14.2671 12.4519 14.1134C12.5078 13.9604 12.6023 13.8819 12.7044 13.8658C12.8145 13.8483 12.9228 13.8327 13.0232 13.8192C13.4082 13.7673 13.7154 13.4281 13.6756 13.0171C13.6646 12.9039 13.6529 12.7932 13.6414 12.6847C13.5849 12.1539 13.5343 11.677 13.6121 11.2308C13.6438 11.0492 13.5791 10.8348 13.5028 10.6526C13.4205 10.4563 13.3004 10.2421 13.1642 10.0391C13.0277 9.83581 12.8707 9.63712 12.7113 9.47338C12.5568 9.31465 12.3814 9.1691 12.2063 9.09776C12.205 9.0972 12.2039 9.09722 12.2031 9.09724C12.2005 9.09729 12.1999 9.09731 12.1977 9.08054C12.1924 9.03984 12.2012 8.96661 12.2374 8.8617C12.3069 8.66007 12.4419 8.44156 12.5185 8.33642C12.6555 8.17011 13.0299 7.69439 13.2132 7.37488C13.2841 7.25137 13.4575 7.14339 13.6391 7.06883C13.6842 7.05032 13.7418 7.0575 13.7892 7.09856C13.9328 7.22288 14.0929 7.38203 14.2268 7.54522C14.3648 7.71348 14.4572 7.86497 14.4904 7.97538C14.564 8.2203 14.7252 8.36756 14.9137 8.43276C15.0877 8.49292 15.2656 8.47743 15.3919 8.44755C15.4493 8.43398 15.4821 8.42783 15.5097 8.42737L17.0683 8.40137C17.4315 8.39532 17.737 8.13048 17.7986 7.77469C17.8358 7.5599 17.8856 7.27883 17.9457 6.94992L17.6998 6.90494L17.9457 6.94992C17.9664 6.8365 18.0015 6.79789 18.0161 6.78584C18.0294 6.77478 18.0534 6.76274 18.1057 6.76489C18.2261 6.76984 18.3941 6.84717 18.5319 6.94388C18.5651 6.96724 18.6033 6.99131 18.6465 7.01256C19.09 7.2306 19.9907 7.69146 20.4245 7.97497C20.6945 8.15142 20.7696 8.26313 20.8001 8.37413C20.839 8.51612 20.8218 8.69987 20.7834 9.08355C20.717 9.74594 21.0271 10.3206 21.198 10.5372Z" fill="#204B58" stroke="#A9AFB7" stroke-width="0.5"/>
</g>
<g id="Group 820">
<path id="Vector 288" d="M16.1905 9.4476C16.6813 9.12392 16.8469 9.11718 17.0934 9.2915C17.1193 9.30984 17.1463 9.32669 17.1748 9.34071C17.5859 9.54291 18.4315 9.97518 18.8469 10.2467C19.3849 10.5982 19.3512 10.822 19.284 11.4932C19.2302 12.0302 19.4857 12.5053 19.6202 12.6758C20.1134 13.2085 21.1736 14.357 21.4695 14.6894C21.8394 15.1049 21.9403 15.041 22.5455 14.9451C23.0297 14.8684 23.3076 15.4885 23.3861 15.8081C23.5206 16.149 23.8568 16.9588 24.1258 17.4701C24.3608 17.917 24.1852 18.2825 24.0249 18.46C23.9835 18.5059 23.9276 18.5349 23.8689 18.5543L23.5274 18.6672C23.3226 18.7349 23.1845 18.926 23.1826 19.1417C23.1762 19.844 23.1511 20.909 23.0835 21.4015C22.9826 22.1366 23.5206 22.0727 24.0922 22.9037C24.4663 23.4476 24.3239 24.4055 24.1432 24.777C24.0878 24.8907 23.985 24.9866 23.8885 25.0683C23.2943 25.5713 21.0317 26.8243 20.7182 27.0077C20.2811 27.2634 21.1643 24.7892 20.6263 24.5974C20.0884 24.4057 19.2167 23.9585 19.1159 24.6936C19.0717 25.0153 18.9988 25.2242 18.9289 25.3526C18.8587 25.4815 18.7045 25.4858 18.5751 25.4166C18.0478 25.1349 17.1752 24.6452 16.7286 24.3101C16.0897 23.8307 16.0225 24.0544 16.0225 23.0316C16.0225 22.9693 16.0221 22.9113 16.0214 22.8573C16.0166 22.5095 15.675 21.9262 15.4457 21.6646C15.024 21.1833 14.5173 20.5888 14.2741 20.2509C13.837 19.6436 13.6352 19.4518 13.1309 19.5797C12.7274 19.6819 12.4023 19.3666 12.2903 19.1961C11.954 18.5036 11.2479 17.0355 11.1134 16.7031C10.9453 16.2875 11.1134 15.7442 11.5169 15.6803C11.6088 15.6657 11.6993 15.6525 11.7843 15.6409C12.0483 15.6047 12.2346 15.3655 12.0736 15.1531C11.6314 14.5694 10.5478 14.0466 10.6128 13.7995C10.7136 13.416 10.1084 12.3932 9.63762 12.2014C9.26103 12.048 9.48071 11.5835 9.63763 11.3704C9.76091 11.2212 11.5324 10.0481 11.7653 9.81662C11.9761 9.60713 12.2284 9.51604 12.4146 9.46922C12.5601 9.43266 12.7177 9.4689 12.8309 9.5673C13.0826 9.7861 13.3475 10.0887 13.4335 10.3745C13.541 10.7325 13.9042 10.6941 14.0723 10.6302L14.6936 10.3812C14.8564 10.316 15.0086 10.1803 15.1561 10.0853C15.355 9.95727 15.7008 9.77061 16.1905 9.4476Z" fill="url(#paint1_linear_320_4732)"/>
<path id="Vector 287" d="M16.7674 14.7805C16.7715 14.7857 16.7758 14.7907 16.7802 14.7955C17.2743 15.3292 18.3324 16.4754 18.6262 16.8055C18.8163 17.019 18.984 17.1668 19.2225 17.2057C19.3322 17.2235 19.4418 17.2158 19.5496 17.2019C19.618 17.193 19.698 17.1797 19.7849 17.1653C19.8309 17.1577 19.8789 17.1497 19.9281 17.1419C20.0381 17.1245 20.1473 17.1766 20.2618 17.3284C20.3754 17.4791 20.453 17.6799 20.4867 17.8176C20.4894 17.8285 20.4928 17.8392 20.497 17.8497C20.632 18.192 20.9723 19.0123 21.248 19.5364C21.4049 19.8347 21.3156 20.0684 21.2149 20.2032C21.1943 20.2308 21.151 20.2611 21.0637 20.29C20.5941 20.4453 20.2799 20.8828 20.2726 21.3735C20.2625 22.0572 20.2357 22.9059 20.1792 23.3174C20.15 23.5307 20.1637 23.7116 20.2302 23.8741C20.2958 24.0343 20.4026 24.1508 20.5089 24.2496C20.5591 24.2963 20.6107 24.3408 20.6635 24.3865C20.8378 24.5369 21.0263 24.6996 21.2297 24.9953C21.4516 25.3179 21.4313 25.4876 21.4066 25.5537C21.3812 25.6213 21.3291 25.688 21.2405 25.7829C21.2291 25.795 21.2168 25.8079 21.2039 25.8215C21.1286 25.9007 21.0309 26.0036 20.96 26.1195C20.8549 26.2916 20.7297 26.4793 20.6022 26.6398C20.4747 26.8004 20.3613 26.9126 20.2764 26.9654C20.2632 26.9615 20.2354 26.9485 20.1868 26.9103C20.0829 26.8288 19.9618 26.6891 19.8193 26.5112C19.7866 26.4704 19.7529 26.4277 19.7184 26.384C19.6106 26.2475 19.4955 26.1017 19.3827 25.9766C19.239 25.8174 19.0621 25.6479 18.8633 25.577C18.683 25.5127 18.4384 25.4963 18.1919 25.5083C17.9387 25.5207 17.6564 25.5646 17.3881 25.6396C17.1217 25.7141 16.8559 25.8229 16.6444 25.9724C16.4348 26.1206 16.25 26.3301 16.2116 26.6095C16.1882 26.7802 16.1567 26.9119 16.1242 27.0115C16.1138 27.0433 16.101 27.0583 16.0925 27.0659C16.0836 27.0738 16.0707 27.0812 16.05 27.0855C16.0044 27.095 15.9261 27.087 15.8347 27.0372C15.3061 26.7491 14.5985 26.3425 14.2221 26.06C14.0819 25.9548 13.9658 25.8803 13.8779 25.824C13.8602 25.8126 13.8437 25.802 13.8283 25.7921C13.7302 25.7284 13.699 25.7012 13.681 25.6766C13.6679 25.6587 13.6481 25.6232 13.6345 25.5143C13.6204 25.4016 13.6159 25.2387 13.6159 24.9815C13.6159 24.7052 13.4918 24.3689 13.3512 24.0825C13.207 23.7886 13.0229 23.5026 12.8633 23.3193C12.4667 22.8639 12.0341 22.3516 11.8204 22.0547C11.6072 21.7585 11.4212 21.517 11.2061 21.3791C10.9618 21.2223 10.7082 21.2123 10.4129 21.2872C10.2927 21.3177 10.179 21.289 10.0733 21.2256C9.97123 21.1644 9.89192 21.079 9.85071 21.0205C9.50895 20.3164 8.81802 18.879 8.68862 18.5592C8.62818 18.4098 8.62852 18.234 8.67911 18.0954C8.72942 17.9576 8.81291 17.8908 8.89948 17.877C9.42811 17.7933 9.84467 17.3276 9.78444 16.7645C9.73112 16.266 9.68602 15.8228 9.75697 15.4163C9.78735 15.2423 9.7253 15.039 9.65431 14.8696C9.57742 14.6861 9.46529 14.4862 9.33834 14.297C9.21118 14.1076 9.06472 13.9222 8.91591 13.7693C8.77296 13.6224 8.60933 13.486 8.44447 13.4179C8.44432 13.417 8.44416 13.416 8.44402 13.4148C8.43964 13.3811 8.44675 13.3162 8.48001 13.2198C8.5437 13.0352 8.66769 12.8342 8.7382 12.7373C8.86573 12.5825 9.2137 12.1404 9.38456 11.8426C9.41916 11.7824 9.48612 11.72 9.5807 11.6617C9.71673 11.578 9.91567 11.6034 10.066 11.7521C10.1762 11.8611 10.2835 11.981 10.3699 12.0978C10.4586 12.2177 10.5147 12.3205 10.5375 12.3963C10.5955 12.5895 10.7127 12.7237 10.8622 12.7991C11.0032 12.8703 11.1523 12.8791 11.2694 12.8679C11.3239 12.8626 11.3794 12.8538 11.4256 12.8465C11.4363 12.8448 11.4465 12.8432 11.4561 12.8418C11.5117 12.8332 11.5551 12.8278 11.595 12.8271L12.4997 12.812C13.1052 12.8019 13.6149 12.3603 13.721 11.7677C13.7392 11.6662 13.7589 11.5575 13.7799 11.4425L13.534 11.3975L13.7799 11.4425C13.7978 11.3448 13.8269 11.3116 13.8371 11.3023C13.8453 11.295 13.86 11.2856 13.8975 11.2852C13.99 11.2841 14.1298 11.3393 14.2611 11.4246L14.3973 11.215L14.2611 11.4246C14.3145 11.4594 14.3789 11.5005 14.4502 11.5358C14.8766 11.7466 15.6666 12.1529 16.0536 12.4058C16.3028 12.5687 16.3682 12.6693 16.3948 12.7661C16.4298 12.8939 16.4145 13.0604 16.3787 13.4181C16.3165 14.0391 16.6068 14.577 16.7674 14.7805ZM20.2861 26.9665C20.2863 26.967 20.2842 26.9674 20.2793 26.9662C20.2835 26.9654 20.2859 26.966 20.2861 26.9665Z" fill="#204B58" stroke="#A9AFB7" stroke-width="0.5" stroke-linejoin="round"/>
<path id="Ellipse 90" d="M16.9422 17.9294C18.0126 19.5348 18.8591 21.4926 17.1357 22.5193C15.9521 23.2324 13.7262 22.1172 12.6558 20.5118C11.5855 18.9064 11.6443 17.25 12.828 16.5369C14.0116 15.8238 15.8718 16.324 16.9422 17.9294Z" fill="#D9D9D9"/>
<path id="Ellipse 92" d="M16.0276 18.4892C16.7322 19.5459 17.2894 20.8346 16.155 21.5104C15.3759 21.9798 13.9108 21.2458 13.2062 20.189C12.5017 19.1323 12.5404 18.042 13.3195 17.5726C14.0986 17.1032 15.3231 17.4325 16.0276 18.4892Z" fill="#4E6076"/>
<path id="Ellipse 91" d="M15.454 19.1901C15.8423 19.7725 16.1494 20.4827 15.5242 20.8552C15.0948 21.1139 14.2873 20.7093 13.899 20.1269C13.5107 19.5445 13.532 18.9436 13.9614 18.6849C14.3908 18.4262 15.0657 18.6077 15.454 19.1901Z" fill="#C1C9CE"/>
</g>
<path id="Vector 290" d="M13.1792 20.3698L13.3909 19.5226C13.715 19.3917 14.4304 19.1044 14.6986 19.0017C15.0339 18.8733 15.1731 18.8252 15.153 18.5259C15.1369 18.2864 14.8236 18.2046 14.669 18.1937C14.0029 18.0683 12.5656 17.798 12.1454 17.7193C11.7252 17.6406 11.5213 17.916 11.4718 18.0636L10.4358 19.9194C8.9383 21.9647 7.73002 23.1493 7.29515 23.2945C6.75155 23.476 5.28332 23.9883 5.82876 25.3122C6.26512 26.3714 7.19693 26.3573 7.6083 26.2178L11.5068 22.5343C12.1071 22.7123 13.3918 23.1128 13.7282 23.2908C14.0647 23.4689 14.2959 23.2157 14.3694 23.0668C14.7086 22.6083 15.482 21.4134 15.8738 20.8735C16.2657 20.3336 15.7978 20.3555 15.5134 20.3625L13.9622 20.9233L13.1792 20.3698Z" fill="#415058"/>
<path id="Vector 291_2" d="M12.9561 20.1569L13.1677 19.3097C13.4919 19.1788 14.2072 18.8915 14.4755 18.7888C14.8108 18.6604 14.9499 18.6123 14.9298 18.313C14.9137 18.0735 14.6005 17.9917 14.4458 17.9808C13.7797 17.8554 12.3425 17.5851 11.9223 17.5064C11.5021 17.4277 11.2981 17.7032 11.2487 17.8507L10.2127 19.7065C8.71517 21.7518 7.5069 22.9364 7.07203 23.0816C6.52843 23.2632 5.06021 23.7754 5.60565 25.0993C6.042 26.1585 6.97381 26.1444 7.38517 26.0049L11.2837 22.3214C11.884 22.4994 13.1687 22.8999 13.5051 23.078C13.8415 23.256 14.0727 23.0028 14.1463 22.8539C14.4855 22.3954 15.2618 21.3433 15.6537 20.8034C16.0455 20.2635 15.5747 20.1426 15.2902 20.1496L13.7391 20.7104L12.9561 20.1569Z" fill="#E8E9EA"/>
</g>
</g>
<defs>
<linearGradient id="paint0_linear_320_4732" x1="31.005" y1="18.7841" x2="22.2358" y2="1.51139" gradientUnits="userSpaceOnUse">
<stop offset="0.361699" stop-color="#B5B5B5"/>
<stop offset="0.398818" stop-color="white"/>
</linearGradient>
<linearGradient id="paint1_linear_320_4732" x1="27.2491" y1="22.1194" x2="19.3528" y2="5.46656" gradientUnits="userSpaceOnUse">
<stop offset="0.361699" stop-color="#96A0A5"/>
<stop offset="0.398818" stop-color="#C1C9CD"/>
</linearGradient>
</defs>
</svg>
