<svg width="16" height="16" viewBox="0 0 16 16" fill="none" xmlns="http://www.w3.org/2000/svg">
<g id="cutter compensation_3D_icon &#229;&#136;&#128;&#232;&#161;&#165;">
<rect id="Rectangle 605" width="16" height="16" rx="2" fill="white"/>
<g id="Group 1318">
<path id="Union" fill-rule="evenodd" clip-rule="evenodd" d="M6.50591 3.612C7.32619 3.09324 8.23689 2.96492 8.95035 3.00903C9.1697 3.02259 9.37135 3.05249 9.5471 3.09279L9.65473 3.11747L9.21974 4.411C10.1566 4.50481 10.8759 4.87137 11.4198 5.38278C12.3328 6.24113 12.7433 7.49836 12.8832 8.5314C12.9314 8.88767 12.9477 9.21943 12.941 9.50202L12.9377 9.64046L11.4096 9.09318C11.0777 10.5539 10.3781 11.458 9.57806 11.99C8.75786 12.5354 7.84107 12.6838 7.12656 12.6518C6.90702 12.642 6.70489 12.6156 6.5285 12.5783L6.42048 12.5554L6.85448 11.19C5.8529 11.1186 5.09182 10.7421 4.52261 10.207C3.60961 9.34862 3.19912 8.09138 3.05928 7.05834C3.01105 6.70207 2.9947 6.37032 3.00146 6.08772L3.00477 5.94928L4.61965 6.5277C4.96319 5.03652 5.68461 4.13141 6.50591 3.612ZM4.68959 6.55275L6.79061 7.30545L4.72477 10.121C5.26236 10.6013 5.97572 10.9367 6.91688 10.9937L7.80019 8.2147L7.7764 8.20802L7.97243 7.4625L7.50972 7.20959L5.01323 5.88808C4.93673 6.10254 4.8694 6.33313 4.81263 6.58094L4.68959 6.55275ZM8.09229 7.13621L8.06057 7.12731L8.02483 7.26322L7.67923 7.07431L9.01361 3.21405C9.14975 3.22511 9.27737 3.24271 9.39411 3.26501L9.0141 4.39503L9.00605 4.39459L9.00448 4.42364L8.09229 7.13621ZM8.2851 7.19032L8.29756 7.19382L8.03677 8.18562L8.49725 8.42726L11.0258 9.7113C11.1 9.4985 11.1652 9.27016 11.2199 9.02524L9.15183 8.28429L11.2177 5.46877C10.7049 5.0106 10.0321 4.68429 9.15427 4.60568L8.2851 7.19032ZM11.3641 5.60735L11.3422 5.63719C11.4094 5.68299 11.4886 5.74942 11.5748 5.83754C11.5081 5.75818 11.4379 5.68131 11.3641 5.60735ZM12.7011 8.68648L9.80559 7.73138L9.47165 8.1865L12.7424 9.3581C12.7416 9.15421 12.7289 8.92741 12.7011 8.68648ZM7.0599 12.4479L8.33001 8.56541L7.96023 8.37137L6.67861 12.4035C6.7957 12.4238 6.9236 12.4392 7.0599 12.4479ZM6.10566 7.90088L3.24936 6.96942C3.21596 6.70381 3.2009 6.4541 3.20004 6.23165L6.47079 7.40325L6.10566 7.90088Z" fill="#375278"/>
</g>
</g>
</svg>
