<svg width="118" height="118" viewBox="0 0 118 118" fill="none" xmlns="http://www.w3.org/2000/svg">
<g id="Group 2183">
<g id="tool_icon">
<g id="Group 1259">
<mask id="mask0_34_10336" style="mask-type:alpha" maskUnits="userSpaceOnUse" x="58" y="41" width="3" height="13">
<path id="Vector 404" d="M58.3708 50.4266C58.1308 49.1264 58.2708 46.9051 58.3708 45.957C58.1676 45.0625 58.2368 43.231 58.3235 42.0533C58.3261 42.0175 58.2798 41.9443 58.2825 41.9097C58.2956 41.7385 58.358 41.6212 58.3708 41.4873H60.3707L60.2707 43.0111C60.6707 44.8802 60.4374 46.7696 60.2707 47.4807C60.5907 48.1308 60.604 50.325 60.5707 51.3409L60.5634 52.8224L59.2778 53.4968L58.1709 52.803L58.3708 50.4266Z" fill="#4D6587"/>
</mask>
<g mask="url(#mask0_34_10336)">
<path id="Vector 406" d="M58.3709 50.4266C58.1309 49.1264 58.2709 46.9051 58.3709 45.957C58.1674 45.0611 58.2371 43.2254 58.324 42.0479C58.3266 42.0127 58.2567 41.8757 58.2593 41.8418C58.2724 41.6719 58.3582 41.6203 58.3709 41.4873H60.3708L60.2708 43.0111C60.6708 44.8802 60.4375 46.7696 60.2708 47.4807C60.5908 48.1308 60.6041 50.325 60.5708 51.3409L60.5708 52.8164L59.2709 53.5275L58.1709 52.8164L58.3709 50.4266Z" fill="#375278"/>
<path id="Vector 405" opacity="0.3" d="M58.5494 41.7656C58.4161 42.0365 58.1494 42.7408 58.1494 43.391M58.7494 41.8672C58.6494 42.2058 58.3894 43.0862 58.1494 43.8989M60.6965 49.9606C60.3455 51.2553 59.5752 53.0844 58.9758 53.5233M60.7053 50.8146C60.4676 51.5826 59.9048 53.0523 59.2648 53.6212M60.4207 42.4573C60.3032 42.9757 59.9183 44.256 59.4306 44.9937C58.8209 45.9159 58.4686 46.4252 58.0215 47.9392M60.438 43.2931C60.3657 43.628 60.0619 44.4872 59.5525 45.3241C58.9157 46.3701 58.7396 46.2737 58.157 48.5723M60.6002 45.6774C60.4828 46.1959 59.9403 47.8885 59.4525 48.6262C58.8428 49.5484 58.4906 50.0577 58.0434 51.5717M60.5389 46.7405C60.4666 47.0754 60.0839 48.1197 59.5744 48.9566C58.9377 50.0026 58.77 50.0496 58.0608 52.4158" stroke="#96A4B8" stroke-width="0.2"/>
</g>
</g>
<path id="Vector 403" d="M59.4517 42.03H59.0831C58.6685 42.03 58.261 41.9221 57.9007 41.7168C57.4474 41.4587 57.0911 41.0592 56.8861 40.5795L56.3196 39.2538L56.2163 38.8936H62.1926L62.1131 39.1865L61.4664 40.6999C61.294 41.1033 61.0046 41.4456 60.6355 41.6826C60.2823 41.9094 59.8714 42.03 59.4517 42.03Z" fill="#375278"/>
<path id="Vector 402" d="M60.7249 40.0164H57.6582C56.9475 40.0164 56.2021 39.4311 56.2021 38.7092L56.2021 34.9199H62.2019L62.2019 38.6997C62.2019 39.4269 61.4408 40.0164 60.7249 40.0164Z" fill="#375278"/>
<ellipse id="Ellipse 31" cx="59.2016" cy="34.9192" rx="2.9999" ry="1.42216" fill="#96A4B8"/>
</g>
<g id="Group 1703">
<path id="Ellipse 53" d="M69.962 19.5528C66.4442 18.6467 62.8295 18 59.0287 18C55.2308 18 51.56 18.662 48.0444 19.5667" stroke="#375278" stroke-width="6"/>
<path id="Polygon 10" d="M59.1768 12.8066L60.5871 15.2494H57.7665L59.1768 12.8066Z" fill="#375278"/>
</g>
</g>
</svg>
