<svg width="136" height="136" viewBox="0 0 136 136" fill="none" xmlns="http://www.w3.org/2000/svg">
<g id="Group 1314">
<g id="Group 1302">
<g id="Vector 440" filter="url(#filter0_f_316_4390)">
<path d="M132.456 94.4608L67.9579 55.7334L3.42076 94.438L67.0913 133.325L132.456 94.4608Z" stroke="#CDD5DD"/>
</g>
<path id="Vector 436" d="M132.456 84.8573L67.9579 46.1299L3.42076 84.8345L67.0913 123.721L132.456 84.8573Z" fill="#CDD5DD" stroke="white" stroke-opacity="0.3"/>
<g id="Vector 431">
<path d="M29.5059 37.3743L67.5059 14.502V61.5965L29.5059 83.4847V37.3743Z" fill="#375278" fill-opacity="0.16"/>
<path d="M30.0059 82.6197V37.6569L67.0059 15.3865V61.3075L30.0059 82.6197Z" stroke="#375278" stroke-opacity="0.16"/>
</g>
<path id="Vector 443" opacity="0.5" d="M105.328 37.3743L67.3281 14.502V61.4169L105.328 83.4847V37.3743Z" fill="#375278" stroke="white"/>
<g id="Vector 433">
<path d="M105.217 83.4497L67.4763 61.3682L29.4234 83.4497L67.4763 106.794L105.217 83.4497Z" fill="#375278" fill-opacity="0.16"/>
<path d="M67.4752 106.206L104.248 83.4616L67.4753 61.9469L30.3991 83.4616L67.4752 106.206Z" stroke="#375278" stroke-opacity="0.16"/>
</g>
<path id="Vector 436_2" d="M87.726 72.7882C69.1122 87.4875 53.543 76.6893 47.5249 72.644L67.5929 61.0518L87.726 72.7882Z" stroke="white"/>
<path id="Vector 441" d="M47.5122 72.9545C44.184 50.1357 61.0811 41.344 67.4129 38.2433L67.6582 61.1734L47.5122 72.9545Z" stroke="white"/>
<path id="Vector 442" d="M67.8818 61.4917L87.1807 72.3696C88.5751 61.5016 85.2083 53.9263 80.7212 48.6714C76.4496 43.6688 71.1459 40.7499 67.8818 39.1202L67.8818 61.4917Z" fill="url(#paint0_linear_316_4390)" stroke="#375278"/>
<g id="Vector">
<path d="M20.1584 86.3262L17.6944 90.0583L22.1584 89.7903L20.1584 86.3262Z" fill="#8293AB"/>
<path d="M20.6585 87.1922L21.6585 88.9243L68.4238 61.9243L67.4238 60.1922L20.6585 87.1922Z" fill="#8293AB"/>
</g>
<g id="Vector_2">
<path d="M114.688 86.3262L117.152 90.0583L112.688 89.7903L114.688 86.3262Z" fill="#5D7392"/>
<path d="M114.188 87.1922L113.188 88.9243L66.4229 61.9243L67.4229 60.1922L114.188 87.1922Z" fill="#5D7392"/>
</g>
<g id="Vector_3">
<path d="M65.4209 7.77539L67.421 3.77539L69.4209 7.77539H65.4209Z" fill="#5D7392"/>
<path d="M66.4209 7.77539H68.4209V61.7754H66.4209V7.77539Z" fill="#5D7392"/>
</g>
<path id="xy" d="M63.3028 76.001L65.4428 72.211L63.4428 68.671H64.4628L65.4628 70.541C65.6528 70.881 65.8028 71.191 66.0428 71.611H66.0828C66.2828 71.191 66.4228 70.881 66.6028 70.541L67.5828 68.671H68.5528L66.5528 72.261L68.6928 76.001H67.6728L66.5928 74.021C66.4028 73.661 66.2028 73.281 65.9628 72.841H65.9228C65.7128 73.281 65.5228 73.661 65.3328 74.021L64.2728 76.001H63.3028ZM71.0552 76.001V73.151L68.8552 68.671H69.8452L70.7852 70.741C71.0252 71.281 71.2452 71.791 71.5052 72.341H71.5452C71.8052 71.791 72.0552 71.281 72.2752 70.741L73.2252 68.671H74.1852L71.9852 73.151V76.001H71.0552Z" fill="white"/>
<g id="Group 1303">
<g id="Group 1304">
<path id="yz" d="M72.934 58.3574L73.0335 55.5091L71.2474 49.999L72.1215 50.4638L72.8792 52.9738C73.0723 53.6262 73.2487 54.2391 73.4591 54.9109L73.4944 54.9296C73.7432 54.502 73.9817 54.1097 74.1948 53.6733L75.1058 52.0506L75.9535 52.5013L73.8546 55.9457L73.7552 58.794L72.934 58.3574ZM75.8738 59.9205L75.893 59.3708L79.5194 55.1913L76.4115 53.5388L76.4387 52.7593L80.5532 54.947L80.5344 55.4867L76.908 59.6662L80.3603 61.5018L80.3327 62.2913L75.8738 59.9205Z" fill="#375278"/>
<g id="Group 1308">
<path id="zx" d="M55.1717 63.7757L55.1621 63.2258L58.1883 54.952L55.3405 57.021L55.3269 56.2411L59.0969 53.502L59.1064 54.042L56.0802 62.3158L59.2434 60.0175L59.2572 60.8074L55.1717 63.7757ZM59.7793 60.4281L61.4445 55.3808L59.7647 53.0169L60.5899 52.4173L61.4315 53.6993C61.5912 53.9275 61.7179 54.1493 61.9194 54.4282L61.9518 54.4047C62.1063 53.8672 62.2141 53.4749 62.3538 53.0292L63.114 50.5834L63.8988 50.0133L62.3434 54.7783L64.14 57.2599L63.3148 57.8594L62.4065 56.5145C62.2465 56.2663 62.078 56.0039 61.8762 55.705L61.8438 55.7285C61.6816 56.2919 61.5345 56.7835 61.3871 57.2552L60.5641 59.8579L59.7793 60.4281Z" fill="white"/>
</g>
</g>
</g>
<g id="Group 1306">
<path id="x" opacity="0.6" d="M12.5556 89.7666L14.2207 84.7193L12.5409 82.3554L13.3661 81.7559L14.2078 83.0378C14.3674 83.266 14.4942 83.4878 14.6957 83.7667L14.728 83.7432C14.8825 83.2057 14.9904 82.8135 15.13 82.3677L15.8903 79.922L16.675 79.3518L15.1196 84.1168L16.9162 86.5984L16.091 87.1979L15.1827 85.8531C15.0227 85.6048 14.8543 85.3424 14.6524 85.0435L14.6201 85.067C14.4578 85.6304 14.3108 86.122 14.1633 86.5937L13.3403 89.1964L12.5556 89.7666Z" fill="#375278"/>
<path id="Z" opacity="0.6" d="M72.5119 4.72816H77.7119V5.40816L73.2719 11.1582H77.9519V11.8682H72.2119V11.1982L76.6619 5.43816H72.5119V4.72816Z" fill="#375278"/>
<path id="y" opacity="0.6" d="M121.115 87.8896L121.215 85.0413L119.429 79.5312L120.303 79.996L121.06 82.5061C121.253 83.1584 121.43 83.7714 121.64 84.4431L121.676 84.4619C121.924 84.0343 122.163 83.642 122.376 83.2056L123.287 81.5828L124.135 82.0335L122.036 85.478L121.936 88.3262L121.115 87.8896Z" fill="#375278"/>
</g>
</g>
</g>
<defs>
<filter id="filter0_f_316_4390" x="0.455078" y="53.1504" width="134.976" height="82.7578" filterUnits="userSpaceOnUse" color-interpolation-filters="sRGB">
<feFlood flood-opacity="0" result="BackgroundImageFix"/>
<feBlend mode="normal" in="SourceGraphic" in2="BackgroundImageFix" result="shape"/>
<feGaussianBlur stdDeviation="1" result="effect1_foregroundBlur_316_4390"/>
</filter>
<linearGradient id="paint0_linear_316_4390" x1="67.2668" y1="61.6216" x2="81.1827" y2="50.9235" gradientUnits="userSpaceOnUse">
<stop offset="0.397796" stop-color="#7386A0"/>
<stop offset="1" stop-color="white" stop-opacity="0.6"/>
</linearGradient>
</defs>
</svg>
