<svg width="118" height="119" viewBox="0 0 118 119" fill="none" xmlns="http://www.w3.org/2000/svg">
<g id="&#229;&#136;&#128;&#229;&#133;&#183;&#230;&#150;&#185;&#229;&#144;&#145;bg">
<circle id="Ellipse 45" opacity="0.2" cx="59" cy="60" r="58.5" stroke="#375278"/>
<path id="R+" d="M53.4061 4.84144H56.4261C57.1394 4.84144 57.6928 5.00811 58.0861 5.34144C58.4928 5.68811 58.6961 6.17478 58.6961 6.80145C58.6961 7.20811 58.5828 7.57145 58.3561 7.89145C58.1161 8.21145 57.7794 8.42145 57.3461 8.52145V8.54145C58.0661 8.70145 58.4661 9.14145 58.5461 9.86145L58.6461 10.9314C58.6861 11.3781 58.8028 11.7281 58.9961 11.9814H58.3261C58.1794 11.7481 58.0861 11.4248 58.0461 11.0114L57.9561 10.0314C57.9161 9.59145 57.7528 9.27478 57.4661 9.08145C57.2061 8.90145 56.8428 8.81145 56.3761 8.81145H54.0161V11.9814H53.4061V4.84144ZM54.0161 5.38145V8.27145H56.3661C56.9194 8.27145 57.3528 8.13478 57.6661 7.86145C57.9461 7.60144 58.0861 7.25478 58.0861 6.82144C58.0861 6.34811 57.9494 5.99145 57.6761 5.75145C57.4028 5.50478 56.9628 5.38145 56.3561 5.38145H54.0161ZM62.0965 6.87144H62.6165V9.13145H64.8765V9.65145H62.6165V11.9214H62.0965V9.65145H59.8265V9.13145H62.0965V6.87144Z" fill="#375278"/>
<path id="R-" opacity="0.6" d="M53.3424 108.575H56.4224C57.1357 108.575 57.6957 108.738 58.1024 109.065C58.529 109.412 58.7424 109.912 58.7424 110.565C58.7424 110.958 58.6324 111.312 58.4124 111.625C58.179 111.938 57.8557 112.145 57.4424 112.245V112.265C58.1224 112.418 58.5024 112.852 58.5824 113.565L58.6924 114.665C58.7324 115.098 58.859 115.448 59.0724 115.715H58.1824C58.0157 115.468 57.919 115.152 57.8924 114.765L57.8024 113.815C57.7624 113.388 57.6124 113.085 57.3524 112.905C57.119 112.732 56.7757 112.645 56.3224 112.645H54.1624V115.715H53.3424V108.575ZM54.1624 109.285V111.935H56.3224C56.8424 111.935 57.2457 111.812 57.5324 111.565C57.7857 111.332 57.9124 111.008 57.9124 110.595C57.9124 110.155 57.789 109.828 57.5424 109.615C57.2824 109.395 56.8757 109.285 56.3224 109.285H54.1624ZM59.8802 112.785H64.9302V113.465H59.8802V112.785Z" fill="#375278"/>
<path id="P+" opacity="0.6" d="M104.955 57.0377H107.855C109.442 57.0377 110.235 57.7211 110.235 59.0877C110.235 60.4611 109.439 61.1477 107.845 61.1477H105.565V64.1777H104.955V57.0377ZM105.565 57.5777V60.6077H107.815C108.422 60.6077 108.879 60.4811 109.185 60.2277C109.472 59.9744 109.615 59.5944 109.615 59.0877C109.615 58.5877 109.472 58.2144 109.185 57.9677C108.885 57.7077 108.429 57.5777 107.815 57.5777H105.565ZM113.333 59.0677H113.853V61.3277H116.113V61.8477H113.853V64.1177H113.333V61.8477H111.063V61.3277H113.333V59.0677Z" fill="#375278"/>
<path id="P-" opacity="0.6" d="M1.96548 57.0377H4.88548C6.52548 57.0377 7.34548 57.7377 7.34548 59.1377C7.34548 60.5511 6.52215 61.2577 4.87548 61.2577H2.78548V64.1777H1.96548V57.0377ZM2.78548 57.7477V60.5477H4.83548C5.40215 60.5477 5.82882 60.4311 6.11548 60.1977C6.38882 59.9644 6.52548 59.6111 6.52548 59.1377C6.52548 58.6511 6.38548 58.3044 6.10548 58.0977C5.83215 57.8644 5.40882 57.7477 4.83548 57.7477H2.78548ZM8.1615 61.2477H13.2115V61.9277H8.1615V61.2477Z" fill="#375278"/>
<path id="q+" opacity="0.6" d="M96.1181 19.8359C96.8446 20.5894 97.1638 21.4392 97.0759 22.3852C96.9889 23.2748 96.5591 24.092 95.7864 24.837C95.0089 25.5866 94.1742 25.9887 93.2821 26.0431L93.1263 26.0544C93.0623 26.4587 92.9783 26.9287 92.8742 27.4643L92.3236 27.4118C92.4477 26.8106 92.534 26.343 92.5825 26.0092C91.9153 25.8838 91.311 25.5404 90.7696 24.9789C90.0339 24.2158 89.7123 23.3636 89.8049 22.4224C89.8919 21.5329 90.3217 20.7156 91.0943 19.9706C91.867 19.2256 92.6994 18.8259 93.5915 18.7714C94.5401 18.718 95.3823 19.0728 96.1181 19.8359ZM95.715 20.2246C95.1088 19.5959 94.4162 19.3098 93.6372 19.3663C92.8865 19.4234 92.18 19.7712 91.5177 20.4097C90.841 21.0622 90.4654 21.7531 90.3908 22.4826C90.3059 23.259 90.5666 23.9615 91.1727 24.5902C91.6216 25.0557 92.121 25.3336 92.671 25.4238C92.7632 24.7607 92.8271 24.1017 92.8626 23.447L93.3928 23.4638C93.3564 24.1656 93.2971 24.8293 93.215 25.4549C93.2246 25.4457 93.2317 25.4434 93.2363 25.4482C93.9822 25.3958 94.6911 25.0457 95.363 24.3979C96.0445 23.7408 96.4202 23.0452 96.4902 22.3109C96.5749 21.5439 96.3165 20.8485 95.715 20.2246ZM99.1142 26.0697L99.4751 26.444L97.8482 28.0127L99.4168 29.6396L99.0425 30.0006L97.4738 28.3736L95.8397 29.9492L95.4788 29.5749L97.1129 27.9993L95.5373 26.3652L95.9117 26.0042L97.4873 27.6384L99.1142 26.0697Z" fill="#375278"/>
<path id="q-" opacity="0.6" d="M23.4056 91.4441C24.1505 92.2167 24.4791 93.0714 24.3913 94.0081C24.3042 94.907 23.8719 95.7313 23.0944 96.4809C22.3266 97.2213 21.4919 97.6186 20.5904 97.6729C20.5526 97.6722 20.5267 97.6741 20.5125 97.6785C20.4586 98.0453 20.3772 98.5035 20.2681 99.0532L19.555 98.9906C19.6642 98.4316 19.748 97.971 19.8065 97.6091C19.1631 97.47 18.58 97.1294 18.0571 96.5871C17.3167 95.8192 16.9881 94.9645 17.0713 94.0231C17.1488 93.1334 17.5763 92.3137 18.3538 91.5641C19.1361 90.8098 19.9732 90.4102 20.8651 90.3652C21.8137 90.3118 22.6606 90.6714 23.4056 91.4441ZM22.88 91.9508C22.3063 91.3557 21.6534 91.0868 20.9216 91.1442C20.2275 91.2022 19.5612 91.539 18.9229 92.1544C18.2894 92.7652 17.931 93.4164 17.8477 94.1079C17.7638 94.8278 18.0088 95.4853 18.5826 96.0804C18.9944 96.5075 19.4399 96.7679 19.9191 96.8615C20.0114 96.1984 20.0697 95.5865 20.0941 95.0259L20.7725 95.0524C20.7367 95.726 20.6854 96.3403 20.6187 96.8954C21.2803 96.8132 21.9158 96.4783 22.5253 95.8906C23.1732 95.2659 23.5389 94.6031 23.6224 93.9021C23.6966 93.1915 23.4492 92.5411 22.88 91.9508ZM23.2767 97.5776L26.7819 101.213L26.2924 101.685L22.7872 98.0496L23.2767 97.5776Z" fill="#375278"/>
<circle id="Ellipse 47" opacity="0.5" cx="59" cy="60" r="41" stroke="#375278" stroke-width="6"/>
<path id="Ellipse 50" opacity="0.3" d="M88.75 60C88.75 76.4305 75.4305 89.75 59 89.75C42.5695 89.75 29.25 76.4305 29.25 60C29.25 43.5695 42.5695 30.25 59 30.25C75.4305 30.25 88.75 43.5695 88.75 60Z" fill="url(#paint0_linear_34_10340)" stroke="#375278" stroke-width="0.5"/>
<path id="Vector 443" opacity="0.3" d="M59.2358 22V98" stroke="#375278" stroke-width="0.5" stroke-dasharray="0.5 0.5"/>
<path id="Vector 444" opacity="0.3" d="M21.022 59.7686L97.022 59.7686" stroke="#375278" stroke-width="0.5" stroke-dasharray="0.5 0.5"/>
<path id="Vector 445" opacity="0.3" d="M32.2324 86.7266L85.9725 32.9864" stroke="#375278" stroke-width="0.5" stroke-dasharray="0.5 0.5"/>
<path id="Vector 446" opacity="0.3" d="M29.814 35.3115L88.1583 84.0141" stroke="#375278" stroke-width="0.5" stroke-dasharray="0.5 0.5"/>
<g id="Group 1283">
<path id="Y" opacity="0.9" d="M52.6341 23.2577H53.2341L55.1791 26.1617L57.1141 23.2577H57.7141L55.4192 26.6177L55.42 28.9697H54.932L54.9312 26.6177L52.6341 23.2577Z" fill="#375278"/>
<path id="X" opacity="0.9" d="M90.6281 61.3674L91.2361 61.3639L92.9147 63.698L94.572 61.3442L95.18 61.3407L93.2132 64.0963L95.3836 67.0516L94.7676 67.0552L92.9196 64.482L91.1037 67.0767L90.4957 67.0803L92.6212 64.0998L90.6281 61.3674Z" fill="#375278"/>
<path id="z" opacity="0.9" d="M84.0821 36.3251L88.1701 36.3011L88.1727 36.7251L84.507 41.6027L88.395 41.5799L88.3977 42.0118L83.8777 42.0384L83.8751 41.6144L87.5488 36.7367L84.0848 36.7571L84.0821 36.3251Z" fill="#375278"/>
</g>
</g>
<defs>
<linearGradient id="paint0_linear_34_10340" x1="58.4187" y1="30.6104" x2="59.9465" y2="90.1923" gradientUnits="userSpaceOnUse">
<stop stop-color="#C7D1DA"/>
<stop offset="0.427083" stop-color="white" stop-opacity="0"/>
<stop offset="1" stop-color="#C7D1DA"/>
</linearGradient>
</defs>
</svg>
