<svg width="13" height="13" viewBox="0 0 13 13" fill="none" xmlns="http://www.w3.org/2000/svg">
<g id="recover_icon">
<rect id="Rectangle 774" x="0.0644531" y="0.972412" width="12" height="12" rx="1" fill="#375278"/>
<g id="Union">
<path d="M8.54945 6.97241C8.54945 7.10772 8.53869 7.24053 8.518 7.37001H7.9617C7.92281 7.37001 7.89881 7.41246 7.91885 7.44578L8.99683 9.23763C9.01626 9.26993 9.06308 9.26993 9.08251 9.23763L10.1607 7.44579C10.1807 7.41246 10.1567 7.37001 10.1178 7.37001H9.52711C9.54187 7.23951 9.54945 7.10685 9.54945 6.97241C9.54945 5.03943 7.98243 3.47241 6.04945 3.47241C5.40953 3.47241 4.80976 3.64413 4.29363 3.94401C4.12319 4.02368 4.0051 4.19666 4.0051 4.39722C4.0051 4.67336 4.22896 4.89722 4.5051 4.89722C4.61576 4.89722 4.71802 4.86127 4.80084 4.80042L4.80335 4.80463C5.17017 4.59332 5.59571 4.47241 6.04945 4.47241C7.43015 4.47241 8.54945 5.59167 8.54945 6.97241Z" fill="white"/>
<path d="M3.59636 7.4569H4.16667C4.20556 7.4569 4.22956 7.41444 4.20951 7.38112L3.13134 5.58927C3.11191 5.55698 3.06509 5.55698 3.04566 5.58928L1.96768 7.38112C1.94763 7.41445 1.97164 7.4569 2.01053 7.4569H2.58272C2.81864 9.16059 4.28086 10.4724 6.04945 10.4724C6.41373 10.4724 6.76506 10.4168 7.09531 10.3135C7.31473 10.2606 7.47776 10.063 7.47776 9.82739C7.47776 9.55125 7.2539 9.32739 6.97776 9.32739C6.90924 9.32739 6.84394 9.34117 6.78448 9.36612L6.7833 9.36298C6.55125 9.43414 6.30482 9.47241 6.04945 9.47241C4.8345 9.47241 3.82197 8.60576 3.59636 7.4569Z" fill="white"/>
</g>
</g>
</svg>
