<svg width="13" height="13" viewBox="0 0 13 13" fill="none" xmlns="http://www.w3.org/2000/svg">
<g id="take_effect_icon">
<rect id="Rectangle 774" x="0.0644531" y="0.972412" width="12" height="12" rx="1" fill="#375278"/>
<g id="Vector">
<path d="M3.2109 8.00702C3.40616 7.81176 3.72274 7.81176 3.91801 8.00702L6.03933 10.1283C6.23459 10.3236 6.23459 10.6402 6.03933 10.8354C5.84406 11.0307 5.52748 11.0307 5.33222 10.8354L3.2109 8.71412C3.01564 8.51886 3.01564 8.20228 3.2109 8.00702Z" fill="#F3F5F7"/>
<path d="M9.21907 6.52633C9.41433 6.33107 9.73091 6.33107 9.92618 6.52633C10.1214 6.72159 10.1214 7.03817 9.92618 7.23344L6.03933 10.8354C5.84406 11.0307 5.52748 11.0307 5.33222 10.8354C5.13696 10.6402 5.13635 10.3235 5.33162 10.1282L9.21907 6.52633Z" fill="#F3F5F7"/>
</g>
<g id="Vector_2">
<path d="M2.06445 3.47241C2.06445 3.19627 2.28831 2.97241 2.56445 2.97241H9.56445C9.8406 2.97241 10.0645 3.19627 10.0645 3.47241C10.0645 3.74855 9.8406 3.97241 9.56445 3.97241H2.56445C2.28831 3.97241 2.06445 3.74855 2.06445 3.47241Z" fill="#F3F5F7"/>
<path d="M2.06445 5.47241C2.06445 5.19627 2.28831 4.97241 2.56445 4.97241H5.56445C5.8406 4.97241 6.06445 5.19627 6.06445 5.47241C6.06445 5.74855 5.8406 5.97241 5.56445 5.97241H2.56445C2.28831 5.97241 2.06445 5.74855 2.06445 5.47241Z" fill="#F3F5F7"/>
</g>
</g>
</svg>
