<svg width="32" height="32" viewBox="0 0 32 32" fill="none" xmlns="http://www.w3.org/2000/svg">
<g id="&#229;&#155;&#158;&#229;&#143;&#130;&#232;&#128;&#131;&#231;&#130;&#185;_icon">
<g id="Union" opacity="0.8">
<path fill-rule="evenodd" clip-rule="evenodd" d="M16 21C18.7614 21 21 18.7614 21 16C21 13.2386 18.7614 11 16 11C13.2386 11 11 13.2386 11 16C11 18.7614 13.2386 21 16 21ZM15.5 16.5V19.9691C13.6906 19.7434 12.2566 18.3094 12.0309 16.5H15.5ZM16.5 15.5V12.0309C18.3094 12.2566 19.7434 13.6906 19.9691 15.5H16.5ZM16.5 16.5H19.9691C19.7434 18.3094 18.3094 19.7434 16.5 19.9691V16.5Z" fill="white"/>
<path fill-rule="evenodd" clip-rule="evenodd" d="M6 9C6 7.89543 6.89543 7 8 7H24C25.1046 7 26 7.89543 26 9V23C26 24.1046 25.1046 25 24 25H8C6.89543 25 6 24.1046 6 23V9ZM8 8H24C24.5523 8 25 8.44772 25 9V23C25 23.5523 24.5523 24 24 24H8C7.44772 24 7 23.5523 7 23V9C7 8.44772 7.44772 8 8 8Z" fill="white"/>
</g>
</g>
</svg>
