<svg width="32" height="32" viewBox="0 0 32 32" fill="none" xmlns="http://www.w3.org/2000/svg">
<g id="&#231;&#130;&#185;&#229;&#138;&#168;-icon">
<g id="Union" opacity="0.8">
<path d="M17.6929 15.2147C16.8644 15.2147 16.1929 15.8863 16.1929 16.7147C16.1929 17.5432 16.8644 18.2147 17.6929 18.2147C18.5213 18.2147 19.1929 17.5432 19.1929 16.7147C19.1929 15.8863 18.5213 15.2147 17.6929 15.2147Z" fill="white"/>
<path fill-rule="evenodd" clip-rule="evenodd" d="M16.2673 10.0957C15.9911 10.0957 15.7673 10.3196 15.7673 10.5957V11.0251C15.0041 11.0988 14.2465 11.3498 13.5564 11.7917C12.19 12.6664 11.3923 14.0947 11.2687 15.5957H10.7673C10.4912 15.5957 10.2673 15.8196 10.2673 16.0957C10.2673 16.3718 10.4912 16.5957 10.7673 16.5957H11.2865C11.3727 17.3222 11.6205 18.041 12.0414 18.6985C12.901 20.0412 14.295 20.8347 15.7673 20.9792V21.5957C15.7673 21.8718 15.9912 22.0957 16.2673 22.0957C16.5435 22.0957 16.7673 21.8718 16.7673 21.5957V20.9771C17.5204 20.8997 18.2672 20.6495 18.9483 20.2135C20.258 19.375 21.0452 18.0279 21.2172 16.5957H21.7673C22.0434 16.5957 22.2673 16.3718 22.2673 16.0957C22.2673 15.8196 22.0434 15.5957 21.7673 15.5957H21.2367C21.173 14.8061 20.9202 14.0203 20.4632 13.3066C19.6095 11.9731 18.2286 11.1812 16.7673 11.029V10.5957C16.7673 10.3196 16.5434 10.0957 16.2673 10.0957ZM18.4091 19.3713C16.5486 20.5625 14.0748 20.0198 12.8836 18.1594C11.6925 16.2989 12.2351 13.825 14.0956 12.6339C15.9561 11.4427 18.4299 11.9853 19.6211 13.8458C20.8122 15.7063 20.2696 18.1802 18.4091 19.3713Z" fill="white"/>
<path fill-rule="evenodd" clip-rule="evenodd" d="M5.93652 9C5.93652 7.89543 6.83195 7 7.93652 7H23.9365C25.0411 7 25.9365 7.89543 25.9365 9V23C25.9365 24.1046 25.0411 25 23.9365 25H7.93652C6.83195 25 5.93652 24.1046 5.93652 23V9ZM7.93652 8H23.9365C24.4888 8 24.9365 8.44772 24.9365 9V23C24.9365 23.5523 24.4888 24 23.9365 24H7.93652C7.38424 24 6.93652 23.5523 6.93652 23V9C6.93652 8.44772 7.38424 8 7.93652 8Z" fill="white"/>
</g>
</g>
</svg>
