<svg width="32" height="32" viewBox="0 0 32 32" fill="none" xmlns="http://www.w3.org/2000/svg">
<g id="&#229;&#164;&#141;&#228;&#189;&#141;-icon">
<g id="Vector" opacity="0.8">
<path fill-rule="evenodd" clip-rule="evenodd" d="M24.0015 8H8.00146C7.44918 8 7.00146 8.44772 7.00146 9V23C7.00146 23.5523 7.44918 24 8.00147 24H24.0015C24.5537 24 25.0015 23.5523 25.0015 23V9C25.0015 8.44772 24.5537 8 24.0015 8ZM8.00146 7C6.8969 7 6.00146 7.89543 6.00146 9V23C6.00146 24.1046 6.8969 25 8.00147 25H24.0015C25.106 25 26.0015 24.1046 26.0015 23V9C26.0015 7.89543 25.106 7 24.0015 7H8.00146Z" fill="white"/>
<path d="M11.9788 19.0024C11.8263 19.2193 11.5083 19.2832 11.2685 19.1453C11.0288 19.0073 10.9581 18.7196 11.1106 18.5027L16.0814 11.4337C16.234 11.2168 16.552 11.1529 16.7917 11.2908C17.0315 11.4288 17.1022 11.7165 16.9497 11.9334L11.9788 19.0024Z" fill="white"/>
<path d="M15.922 20.567C15.7694 20.7838 15.4514 20.8478 15.2117 20.7098C14.9719 20.5719 14.9012 20.2842 15.0537 20.0673L20.0246 12.9983C20.1771 12.7814 20.4951 12.7174 20.7349 12.8554C20.9746 12.9934 21.0453 13.2811 20.8928 13.498L15.922 20.567Z" fill="white"/>
</g>
</g>
</svg>
