<svg width="32" height="32" viewBox="0 0 32 32" fill="none" xmlns="http://www.w3.org/2000/svg">
<g id="Group 1701">
<g id="_&#229;&#141;&#149;&#230;&#174;&#181;icon">
<g id="Union" opacity="0.8">
<path d="M23.586 25.0049H3V24.0049H23.0164L27.7607 16.0047L23.0164 8.00488H3V7.00488H23.586L28.9233 16.0047L23.586 25.0049Z" fill="white"/>
<path d="M15.6967 18.507L17.6846 16.5001H8.54727C8.27113 16.5001 8.04727 16.2762 8.04727 16.0001C8.04727 15.7239 8.27113 15.5001 8.54727 15.5001H17.6846L15.6967 13.4931C15.5024 13.2969 15.5039 12.9803 15.7001 12.786C15.8963 12.5917 16.2128 12.5932 16.4072 12.7894L19.2221 15.6312C19.3231 15.7332 19.3712 15.8676 19.3666 16.0005C19.3709 16.1331 19.3228 16.2672 19.2221 16.3689L16.4071 19.2107C16.2128 19.4069 15.8962 19.4084 15.7 19.2141C15.5039 19.0198 15.5023 18.7032 15.6967 18.507Z" fill="white"/>
<path fill-rule="evenodd" clip-rule="evenodd" d="M5 11C5 10.4478 5.44772 10 6 10H22C22.5523 10 23 10.4478 23 11V21C23 21.5523 22.5523 22 22 22H6C5.44772 22 5 21.5523 5 21V11ZM6 11H22V21H6V11Z" fill="white"/>
</g>
</g>
</g>
</svg>
