<svg width="34" height="34" viewBox="0 0 34 34" fill="none" xmlns="http://www.w3.org/2000/svg">
<g id="Group 2106">
<g id="Group 1680">
<g id="Group 829" opacity="0.3">
<g id="Group 811">
<path id="Vector 281" d="M11.3638 2.84445L13.2266 1.77602C13.3738 1.6916 13.5515 1.68644 13.7023 1.76406C17.8506 3.89816 25.1802 7.54412 26.029 8.18963C26.8945 8.84776 27.0868 9.46932 27.0748 9.69783L27.0674 26.1711C27.0673 26.2335 27.0382 26.2923 26.9885 26.3301L24.4923 28.2308L24.4531 10.955C24.4515 10.215 24.0413 9.53634 23.3868 9.19087L11.3638 2.84445Z" fill="#D9D9D9"/>
<g id="Group 1446">
<path id="Vector 282" d="M11.8956 3.18919C11.9009 3.19261 11.9063 3.19583 11.9118 3.19884C13.9092 4.28544 16.6219 5.70855 18.9202 6.91061C19.2275 7.07136 19.5272 7.22805 19.8167 7.37936C21.6984 8.36305 23.1461 9.11991 23.4394 9.29417C23.986 9.6189 24.3179 10.2621 24.4461 10.6443C24.4634 10.6957 24.4708 10.7478 24.4705 10.8139C24.4671 11.7157 24.4636 13.3739 24.4595 15.309C24.4492 20.1306 24.4352 26.6717 24.4104 27.5174L24.4102 27.5174L24.4103 27.5258C24.412 27.9187 24.3293 28.0519 24.2952 28.0843L24.2948 28.0847C24.2861 28.093 24.2695 28.1088 24.2105 28.078L24.0949 28.2996L24.2105 28.078C24.1908 28.0677 24.1707 28.0553 24.1413 28.037L24.139 28.0356C24.1124 28.019 24.0772 27.9971 24.0387 27.9771C22.9173 27.3952 21.5254 26.6969 20.1085 25.9861C17.4626 24.6587 14.7292 23.2875 13.5063 22.5477C11.638 21.4175 11.4113 20.6751 11.3912 20.3543C11.389 19.7796 11.3851 18.8742 11.3803 17.7733C11.3588 12.8416 11.3203 3.98729 11.3436 3.36568C11.3497 3.20346 11.3856 3.12859 11.4092 3.09744C11.4278 3.07305 11.4499 3.05996 11.4897 3.05531C11.5956 3.04294 11.7613 3.10235 11.8956 3.18919Z" fill="#204B58" stroke="#A9AFB7" stroke-width="0.5" stroke-linejoin="round"/>
<path id="Vector 541" d="M24.2039 27.8573C20.4584 25.9003 13.3331 22.6064 12.3271 21.5838C12.1397 21.3932 11.9114 21.202 11.6739 20.8467C11.5272 20.6468 11.5001 20.4987 11.4932 20.4082L11.5413 8.80381L24.2315 15.0455L24.2039 27.8573Z" fill="#1A3F4A"/>
<g id="Vector">
<path d="M20.9255 11.0825L22.558 11.8553L22.5892 13.5565L20.9567 12.7838L20.9255 11.0825Z" fill="#31606F"/>
<path d="M18.3228 9.42161L19.9553 10.1944L19.9865 11.8957L18.354 11.1229L18.3228 9.42161Z" fill="#31606F"/>
<path d="M15.6173 7.95315L17.2498 8.7259L17.281 10.4272L15.6485 9.65445L15.6173 7.95315Z" fill="#31606F"/>
<path d="M12.7642 6.28809L14.3967 7.06083L14.4279 8.76213L12.7953 7.98938L12.7642 6.28809Z" fill="#31606F"/>
<path d="M20.9255 14.4728L22.558 15.2455L22.5892 16.9468L20.9567 16.174L20.9255 14.4728Z" fill="#31606F"/>
<path d="M18.3228 12.8119L19.9553 13.5846L19.9865 15.2859L18.354 14.5131L18.3228 12.8119Z" fill="#31606F"/>
<path d="M15.6173 11.3434L17.2498 12.1161L17.281 13.8174L15.6485 13.0447L15.6173 11.3434Z" fill="#31606F"/>
<path d="M12.7642 9.67833L14.3967 10.4511L14.4279 12.1524L12.7953 11.3796L12.7642 9.67833Z" fill="#31606F"/>
<path d="M20.9255 17.6845L22.558 18.4573L22.5892 20.1586L20.9567 19.3858L20.9255 17.6845Z" fill="#31606F"/>
<path d="M18.3228 16.0236L19.9553 16.7964L19.9865 18.4977L18.354 17.7249L18.3228 16.0236Z" fill="#31606F"/>
<path d="M15.6173 14.5552L17.2498 15.3279L17.281 17.0292L15.6485 16.2565L15.6173 14.5552Z" fill="#31606F"/>
<path d="M12.7642 12.8901L14.3967 13.6629L14.4279 15.3642L12.7953 14.5914L12.7642 12.8901Z" fill="#31606F"/>
</g>
</g>
</g>
</g>
<g id="Group 1447">
<path id="Vector_2" d="M17.3516 24.3868C17.3175 24.384 17.2811 24.3578 17.2452 24.3265L10.8132 18.7162C10.7774 18.6849 10.7403 18.6596 10.7035 18.6331C10.5013 18.4873 10.3495 18.2068 10.3495 17.9643V15.4913C10.3495 15.3266 10.1828 15.1231 10.0461 15.0935C10.0404 15.0923 10.0347 15.091 10.029 15.0897C10.0243 15.0886 10.0194 15.0866 10.0144 15.0837C10.0088 15.0805 10.0032 15.0784 9.99787 15.0773C9.85273 15.0483 9.69163 14.9752 9.5471 14.8927C8.49596 14.3421 7.53435 13.5006 7.53435 12.4843C7.53435 11.3982 5.33193 11.5154 7.32123 10.99C7.94347 10.7783 8.99183 10.404 9.429 10.5089C9.45592 10.5153 9.48396 10.529 9.51195 10.5436C9.66564 10.6238 9.86711 10.6961 10.0163 10.822C10.0307 10.8342 10.0455 10.8453 10.0589 10.8602C10.0766 10.8799 10.0963 10.8969 10.1144 10.9157C10.1868 10.9904 10.2576 11.0642 10.3151 11.1293C10.3159 11.1302 10.3168 11.1311 10.3176 11.1319C10.3345 11.1472 10.3461 11.1288 10.3325 11.1081L8.6988 8.62326C8.5988 8.47116 8.56383 8.31172 8.6543 8.2565C9.056 8.01133 10.4 7.73999 10.6444 7.84336L13.2966 8.99765C13.371 9.03003 13.4162 8.96636 13.387 8.87022C13.3846 8.86242 13.3818 8.85458 13.3786 8.8468C13.2987 8.65374 13.2356 8.47007 13.2031 8.2848C13.1678 8.07136 13.0492 8.22936 13.0492 8.03954C13.0492 7.67082 11.5394 7.74441 11.7435 7.58597C12.1121 7.29986 13.9605 6.92809 14.7043 7.1489C15.5353 7.50705 16.1133 8.00529 16.1405 9.25641C16.1405 9.48204 16.195 9.76866 16.2346 10.0422C16.2847 10.3888 16.5262 10.8316 16.8068 10.9852L19.1948 12.2926C19.4243 12.4236 19.6046 12.7331 19.6046 12.9973L19.5755 17.6096C19.5755 17.76 19.5618 17.8891 19.3831 17.9251C19.2678 17.9534 17.3981 18.6691 17.2668 18.5379L17.4187 17.4431C17.4284 17.3729 17.423 17.2926 17.4022 17.2079C17.3752 17.0979 17.336 16.9405 17.3065 16.8312C17.284 16.7482 17.2334 16.688 17.1741 16.6843C16.8495 16.6641 15.7956 16.8012 15.5148 17.0591C15.4494 17.1192 15.4841 17.264 15.5604 17.3939C16.643 19.2364 18.1024 19.511 19.377 20.1604C19.4559 20.2006 19.5425 20.2722 19.5675 20.3728C19.6008 20.5075 19.5888 20.6681 19.5888 20.7741L19.6024 23.4257C19.6036 23.6764 17.7457 24.4187 17.3516 24.3868Z" fill="url(#paint0_linear_339_4458)"/>
<path id="Vector_3" d="M8.32716 12.128C8.34022 12.1425 8.35403 12.1565 8.36855 12.1695L8.36855 12.1695C8.54504 12.3283 8.72046 12.2752 8.71952 12.0633L8.70442 8.66308C8.70442 8.66291 8.70442 8.66273 8.70442 8.66256C8.70466 8.54833 8.78457 8.49217 8.9056 8.55985L11.4803 10.1152C11.7095 10.2536 11.8677 10.0743 11.776 9.77987L11.776 9.77986C11.769 9.75756 11.7609 9.73568 11.7519 9.71446L11.7519 9.71446C11.6772 9.53839 11.6262 9.38981 11.6004 9.2482C11.5638 9.03303 11.5389 8.88173 11.5389 8.72427C11.5389 8.24889 11.6429 7.96294 11.8208 7.83995C11.9958 7.71905 12.2708 7.736 12.6815 7.97057C13.135 8.22958 13.3811 8.45285 13.5267 8.69819C13.6723 8.94357 13.7691 9.29863 13.783 9.90455C13.7828 10.0075 13.775 10.1487 13.7612 10.311C13.6955 11.0872 14.2765 12.1898 15.0144 12.5324L17.0012 13.4551C17.1195 13.5273 17.1965 13.671 17.1965 13.7846V18.1657C17.1965 18.2302 17.1668 18.2868 17.1055 18.3003C17.0626 18.3097 16.9914 18.2813 16.9017 18.1943L16.11 17.3638C16.1069 17.3606 16.1039 17.3575 16.1011 17.3547C16.0803 17.3282 16.0629 17.3104 16.0556 17.303L16.0553 17.3027L16.0515 17.2988C16.0504 17.2975 16.0491 17.296 16.0478 17.2944C16.0232 17.2648 15.9719 17.203 15.9237 17.1551L15.9237 17.1551C15.9041 17.1356 15.8847 17.1194 15.8662 17.1061C15.7563 17.003 15.6511 16.9431 15.5794 16.9022C15.5762 16.9004 15.5731 16.8986 15.5701 16.8969C15.3902 16.7941 15.2343 16.7964 15.1105 16.844C14.9868 16.8916 14.8827 16.9886 14.7995 17.1045C14.6356 17.3328 14.5276 17.6711 14.5276 17.9782C14.5276 17.9857 14.5279 17.9934 14.5285 18.0013C14.5601 18.4206 14.7322 18.7872 14.9841 19.0924C15.2187 19.3767 15.511 19.5941 15.7861 19.7733C15.9265 19.8647 16.0703 19.9511 16.2084 20.0334C16.2248 20.0432 16.2411 20.0529 16.2572 20.0625C16.3793 20.1352 16.4961 20.2047 16.6078 20.2753C16.8567 20.4324 17.0418 20.5715 17.1623 20.7081C17.1673 20.7241 17.1733 20.7493 17.1788 20.7843C17.1915 20.8667 17.194 20.9574 17.194 21.0294L17.194 24.0056L17.194 24.007C17.1945 24.1196 17.1184 24.1759 16.9998 24.1127L9.04752 18.7375C9.04098 18.7331 9.03442 18.729 9.02785 18.7253C8.90474 18.655 8.82405 18.507 8.82405 18.3907C8.82405 18.3844 8.82384 18.378 8.82343 18.3714L8.69979 16.4271C8.68745 16.2329 8.58719 16.0384 8.4738 15.8991C8.36195 15.7618 8.21981 15.6549 8.08533 15.6245L8.08532 15.6245L8.08526 15.6245C8.06672 15.6161 8.04878 15.6102 8.0317 15.6066L8.03168 15.6066C7.91015 15.5809 7.76808 15.5171 7.63338 15.4402V15.44L7.62475 15.4355C7.1741 15.1987 6.82991 14.7466 6.58899 14.2171C6.34423 13.6792 6.21708 13.0812 6.21708 12.6222C6.21708 12.1715 6.37693 11.7815 6.64191 11.5653C6.90656 11.3494 7.25796 11.3197 7.63212 11.5334C7.76713 11.6105 7.90677 11.7191 8.05704 11.8533C8.06512 11.8605 8.07232 11.8666 8.07675 11.8703L8.07995 11.873L8.08036 11.8734C8.09655 11.8904 8.11089 11.9041 8.11939 11.9122C8.12292 11.9155 8.12567 11.9181 8.12784 11.9202C8.13411 11.9261 8.13561 11.9276 8.13748 11.9295L8.32716 12.128ZM8.5112 11.7803L8.51118 11.7803L8.5112 11.7803Z" fill="#204B58" stroke="#A9AFB7" stroke-width="0.5" stroke-linejoin="round"/>
<g id="Vector_4">
<path d="M9.57617 14.3869C9.57617 14.1052 10.06 14.0549 10.324 14.1827L13.8389 15.8851C14.1029 16.013 14.3169 16.345 14.3169 16.6267C14.3169 16.9083 13.8769 17.0281 13.6129 16.9002L10.324 15.2027C10.06 15.0749 9.57617 14.6686 9.57617 14.3869Z" fill="#D9D9D9"/>
<path d="M11.5193 13.0366C11.5296 12.7551 11.9442 12.7425 12.1744 12.9198C12.4047 13.0971 12.583 13.4689 12.5726 13.7504L12.4245 17.7463C12.4245 18.1372 11.8698 18.1679 11.6395 17.9907C11.4092 17.8134 11.5786 17.4675 11.589 17.186L11.5193 13.0366Z" fill="#D9D9D9"/>
</g>
<g id="Vector_5">
<path d="M9.57959 14.4481C9.57959 14.1664 9.79361 14.0417 10.0576 14.1696L13.5725 15.872C13.8365 15.9999 14.0505 16.3319 14.0505 16.6136C14.0505 16.8952 13.8365 17.0199 13.5725 16.892L10.0576 15.1896C9.79361 15.0617 9.57959 14.7297 9.57959 14.4481Z" fill="white"/>
<path d="M11.4724 13.1711C11.4827 12.8896 11.6778 12.8051 11.908 12.9824C12.1383 13.1596 12.3166 13.5315 12.3063 13.813L12.1434 17.7952C12.1093 17.9622 11.9268 18.1272 11.7208 18.0793C11.4169 17.9811 11.319 17.7708 11.3226 17.2486L11.4724 13.1711Z" fill="white"/>
</g>
</g>
</g>
</g>
<defs>
<linearGradient id="paint0_linear_339_4458" x1="23.4634" y1="21.2525" x2="23.1294" y2="5.57963" gradientUnits="userSpaceOnUse">
<stop offset="0.428534" stop-color="#96A0A5"/>
<stop offset="0.479346" stop-color="#C1C9CD"/>
</linearGradient>
</defs>
</svg>
