<svg width="230" height="50" viewBox="0 0 230 50" fill="none" xmlns="http://www.w3.org/2000/svg">
<g id="imtos_logo">
<g id="imtos_logo_2" filter="url(#filter0_d_304_10440)">
<g id="Group">
<path id="Vector" d="M18.1959 24.3419C17.2118 23.0391 16.7975 21.4757 17.0047 19.8603C17.0047 19.7039 17.0565 19.5476 17.0565 19.4434L3.12469 37.7347C1.312 40.1319 1.72633 43.5713 4.10872 45.3952C5.09275 46.1769 6.28394 46.5417 7.42334 46.5417C9.08065 46.5417 10.6862 45.8121 11.722 44.4051L22.5981 30.0742L18.1959 24.3419Z" fill="white"/>
<path id="Vector_2" d="M41.6575 46.5407C40.0002 46.5407 38.3946 45.8111 37.3588 44.4041L20.216 22.048C18.4033 19.6508 18.8176 16.2114 21.2 14.3875C23.5824 12.5636 27.0006 12.9805 28.8133 15.3777L45.9043 37.7337C47.717 40.1309 47.3027 43.5703 44.9203 45.3942C43.9363 46.1759 42.7969 46.5407 41.6575 46.5407Z" fill="white"/>
<path id="Vector_3" d="M37.3589 37.7347L51.3424 19.4434C50.9799 21.1109 51.3424 22.9349 52.4818 24.394L56.8841 30.1785L46.008 44.4572C44.9204 45.8642 43.3148 46.5938 41.7093 46.5938C40.5699 46.5938 39.3787 46.229 38.3947 45.4473C35.9605 43.5713 35.4944 40.1319 37.3589 37.7347Z" fill="white"/>
<path id="Vector_4" d="M33.7852 12.0424C36.7599 12.0424 39.1715 9.61598 39.1715 6.62278C39.1715 3.62959 36.7599 1.20312 33.7852 1.20312C30.8104 1.20312 28.3989 3.62959 28.3989 6.62278C28.3989 9.61598 30.8104 12.0424 33.7852 12.0424Z" fill="white"/>
<path id="Vector_5" d="M75.8396 46.5414C76.979 46.5414 78.1702 46.1766 79.1543 45.3949C81.5366 43.571 82.0028 40.1316 80.1383 37.7344L63.0473 15.3783C61.2346 12.9812 57.8164 12.5122 55.434 14.3882C53.0516 16.2121 52.5855 19.6515 54.45 22.0487L71.541 44.4048C72.6286 45.8118 74.2341 46.5414 75.8396 46.5414Z" fill="white"/>
</g>
<g id="Group_2">
<path id="Vector_6" d="M228.313 34.1896C227.484 32.053 225.878 30.2812 223.6 28.8741L217.488 25.2263C216.763 24.8094 216.245 24.3404 215.883 23.9235C215.52 23.5066 215.365 23.0376 215.365 22.6207C215.365 22.1517 215.572 21.839 216.038 21.6306C216.504 21.4221 217.281 21.37 218.472 21.37H225.516C226.448 21.37 227.173 20.6404 227.173 19.7024V15.5856C227.173 14.6475 226.448 13.918 225.516 13.918H219.56C216.66 13.918 214.536 14.0743 213.241 14.387C211.947 14.6997 210.859 15.2729 209.927 16.0546C208.994 16.8884 208.269 17.8785 207.751 19.025C207.285 20.1714 207.026 21.4742 207.026 22.9334C207.026 24.3925 207.441 25.8516 208.321 27.2587C209.15 28.6657 210.289 29.8122 211.739 30.646L217.954 34.4501C218.731 34.9192 219.249 35.3882 219.612 35.8051C219.974 36.2741 220.181 36.691 220.181 37.16C220.181 37.6811 220.026 38.098 219.663 38.3586C219.301 38.6191 218.783 38.7754 218.161 38.7754H208.58C207.7 38.7754 206.975 39.505 206.975 40.3909V44.9768C206.975 45.8627 207.7 46.5923 208.58 46.5923H215.883H216.401C219.042 46.5923 220.958 46.4359 222.149 46.1233C223.341 45.8106 224.428 45.3416 225.412 44.6641C226.5 43.8824 227.38 42.8402 228.002 41.5895C228.675 40.2867 228.986 38.8276 228.934 37.2642C228.882 36.222 228.727 35.1797 228.313 34.1896Z" fill="white"/>
<path id="Vector_7" d="M97.0224 46.5409H90.2896C89.8235 46.5409 89.4609 46.1762 89.4609 45.7071V13.9188C89.4609 13.4497 89.8235 13.085 90.2896 13.085H97.0224C97.4885 13.085 97.8511 13.4497 97.8511 13.9188V45.7593C97.7993 46.1762 97.4368 46.5409 97.0224 46.5409Z" fill="white"/>
<path id="Vector_8" d="M101.891 46.54L105.413 19.6502C105.672 17.5136 106.345 15.846 107.433 14.6995C108.469 13.5531 109.867 12.9277 111.472 12.9277C113.026 12.9277 114.321 13.4489 115.409 14.4911C116.496 15.5333 117.221 17.0446 117.687 19.0249L119.811 28.0924C120.018 28.9783 120.225 29.9163 120.381 30.9585C120.536 32.0008 120.639 33.1993 120.743 34.5543C120.847 33.1993 121.002 32.0008 121.106 30.9585C121.261 29.9163 121.416 28.9262 121.675 28.0924L123.799 19.0249C124.265 17.0446 125.042 15.5333 126.078 14.4911C127.113 13.4489 128.46 12.9277 130.014 12.9277C131.671 12.9277 133.018 13.501 134.053 14.6995C135.089 15.846 135.762 17.5136 136.021 19.6502L139.543 46.54H131.775L129.962 25.6952C129.858 24.653 129.806 23.6107 129.703 22.5685C129.651 21.5783 129.548 20.5882 129.496 19.6502C129.237 21.0051 129.03 22.1516 128.874 23.0375C128.719 23.9234 128.512 24.7572 128.356 25.4346L124.99 41.3288C124.576 43.1528 124.058 44.4556 123.384 45.1851C122.711 45.9668 121.779 46.3316 120.639 46.3316C119.5 46.3316 118.62 45.9668 117.946 45.1851C117.273 44.4035 116.755 43.1006 116.341 41.3288L112.923 25.4346C112.715 24.4966 112.353 22.6727 111.835 19.9629L111.783 19.5981C111.783 21.1093 111.68 22.9333 111.472 25.122C111.421 25.3825 111.421 25.5389 111.421 25.6431L109.608 46.4879H101.891V46.54Z" fill="white"/>
<path id="Vector_9" d="M163.419 13.1885H142.65C141.718 13.1885 140.993 13.918 140.993 14.8561V19.9109C140.993 20.849 141.718 21.5785 142.65 21.5785H149.021V46.5402H157.1V21.6306H163.47C164.403 21.6306 165.128 20.9011 165.128 19.9631V14.9082C165.128 13.918 164.351 13.1885 163.419 13.1885Z" fill="white"/>
</g>
</g>
</g>
<defs>
<filter id="filter0_d_304_10440" x="2" y="1.20312" width="226.939" height="47.3906" filterUnits="userSpaceOnUse" color-interpolation-filters="sRGB">
<feFlood flood-opacity="0" result="BackgroundImageFix"/>
<feColorMatrix in="SourceAlpha" type="matrix" values="0 0 0 0 0 0 0 0 0 0 0 0 0 0 0 0 0 0 127 0" result="hardAlpha"/>
<feOffset dy="2"/>
<feComposite in2="hardAlpha" operator="out"/>
<feColorMatrix type="matrix" values="0 0 0 0 0 0 0 0 0 0 0 0 0 0 0 0 0 0 0.1 0"/>
<feBlend mode="normal" in2="BackgroundImageFix" result="effect1_dropShadow_304_10440"/>
<feBlend mode="normal" in="SourceGraphic" in2="effect1_dropShadow_304_10440" result="shape"/>
</filter>
</defs>
</svg>
