<svg width="35" height="34" viewBox="0 0 35 34" fill="none" xmlns="http://www.w3.org/2000/svg">
<g id="Group 1448">
<g id="Group 828">
<path id="Vector 281" d="M11.9136 6.23535L14.1604 5.0268C14.3063 4.94834 14.4792 4.94602 14.6262 5.02244C18.7731 7.17914 26.1107 10.8684 26.96 11.5213C27.8254 12.1866 28.0177 12.8149 28.0057 13.0459L27.9983 27.0791C27.9983 27.1422 27.9684 27.2016 27.9179 27.2394L25.3165 29.1792L25.3764 14.3318C25.3794 13.577 24.9572 12.8847 24.2847 12.5419L11.9136 6.23535Z" fill="url(#paint0_linear_61_1505)"/>
<path id="Vector 282" d="M12.4522 6.55701C12.4575 6.56033 12.4629 6.56344 12.4684 6.56636C14.5192 7.65291 17.3045 9.07599 19.6644 10.2781C19.9801 10.4388 20.2879 10.5956 20.5852 10.7469C22.5171 11.7305 24.0038 12.4875 24.3052 12.6618C24.8668 12.9868 25.2071 13.6283 25.3391 14.0098C25.3571 14.0617 25.365 14.1167 25.3647 14.1852C25.3615 15.0056 25.3581 16.309 25.3542 17.8032C25.3436 21.9368 25.3292 27.5308 25.303 28.4006L25.3028 28.4006L25.3029 28.4092C25.3046 28.8023 25.2196 28.9337 25.1847 28.9657C25.1728 28.9766 25.1495 28.993 25.0842 28.9594C25.064 28.949 25.0438 28.9367 25.0143 28.9188L25.0131 28.9181C24.9863 28.9018 24.9509 28.8804 24.9121 28.8607C24.1203 28.46 23.1953 27.9966 22.2201 27.5082C19.1397 25.9651 15.5588 24.1714 14.094 23.3084C12.1737 22.1771 11.942 21.4344 11.9215 21.1164C11.9183 20.3151 11.9117 19.0387 11.9041 17.5684C11.8817 13.2642 11.8508 7.29876 11.8726 6.73215C11.8788 6.57107 11.9153 6.49711 11.9394 6.46618C11.9588 6.44129 11.9834 6.42665 12.0278 6.4216C12.1412 6.4087 12.3142 6.47012 12.4522 6.55701Z" fill="#204B58" stroke="#A9AFB7" stroke-width="0.5" stroke-linejoin="round"/>
<g id="Group 824">
<g id="Vector">
<path d="M14.7131 11.2031L14.693 10.4468C14.6854 10.1586 15.0406 9.9701 15.3318 10.1078L22.2505 13.4352C22.3853 13.4989 22.4704 13.6202 22.474 13.7535L22.4941 14.5098C22.5017 14.798 22.1465 14.9865 21.8553 14.8488L14.9365 11.5214C14.8018 11.4577 14.7166 11.3364 14.7131 11.2031Z" fill="#A19D9D"/>
<path d="M14.7775 13.6315L14.7573 12.8698C14.7497 12.5834 15.1008 12.3948 15.3919 12.5288L19.8183 14.6465C19.9554 14.7096 20.0423 14.832 20.0459 14.9668L20.0661 15.7286C20.0737 16.0149 19.7227 16.2035 19.4315 16.0695L15.0051 13.9518C14.8681 13.8887 14.7811 13.7663 14.7775 13.6315Z" fill="#A19D9D"/>
</g>
<g id="Vector_2">
<path d="M14.4748 11.2607L14.4548 10.5044C14.4471 10.2162 14.8023 10.0277 15.0935 10.1654L22.0585 13.5241C22.1933 13.5878 22.2784 13.7091 22.282 13.8425L22.302 14.5988C22.3097 14.8869 21.9545 15.0754 21.6632 14.9378L14.6983 11.579C14.5635 11.5153 14.4784 11.394 14.4748 11.2607Z" fill="#E8E9EA"/>
<path d="M14.5393 13.6891L14.519 12.9274C14.5114 12.6411 14.8625 12.4524 15.1536 12.5864L19.6263 14.7355C19.7633 14.7986 19.8503 14.921 19.8539 15.0558L19.8741 15.8175C19.8817 16.1039 19.5306 16.2925 19.2395 16.1585L14.7669 14.0094C14.6298 13.9463 14.5428 13.8239 14.5393 13.6891Z" fill="#E8E9EA"/>
</g>
</g>
<g id="Group 1788">
<path id="Vector 299" d="M13.0685 15.8049L17.3874 14.0653L13.1416 12.1865L9.04248 13.9957L13.0685 15.8049Z" fill="#C1C9CD"/>
<path id="Vector 300" d="M13.1587 20.8901V15.7345L17.4033 14.0635V19.0561L13.1587 20.8901Z" fill="#96A0A5"/>
<path id="Vector 301" d="M9.10693 19.0558V14.0225L13.1372 15.7953V20.9102L9.10693 19.0558Z" fill="#204B58"/>
</g>
<g id="Group 827">
<path id="Vector 299_2" d="M19.8412 24.2361L22.9719 22.9752L19.8942 21.6133L16.9229 22.9247L19.8412 24.2361Z" fill="#C2CACE"/>
<path id="Vector 300_2" d="M19.9072 27.9221V24.1849L22.9841 22.9736V26.5927L19.9072 27.9221Z" fill="#96A0A5"/>
<path id="Vector 301_2" d="M16.9692 26.5929V22.9443L19.8907 24.2295V27.9371L16.9692 26.5929Z" fill="#204B58"/>
</g>
<g id="Group 826">
<path id="Vector 299_3" d="M10.5373 24.8589L14.3716 23.3145L10.6022 21.6465L6.96289 23.2527L10.5373 24.8589Z" fill="#C2CACE"/>
<path id="Vector 300_3" d="M10.6182 29.3733V24.796L14.3866 23.3125V27.745L10.6182 29.3733Z" fill="#96A0A5"/>
<path id="Vector 301_3" d="M7.02148 27.7461V23.2773L10.5996 24.8513V29.3924L7.02148 27.7461Z" fill="#204B58"/>
</g>
<g id="Vector 302" filter="url(#filter0_d_61_1505)">
<path d="M15.4775 18.0801L20.209 19.9722L20.1614 22.5573" stroke="url(#paint1_linear_61_1505)" stroke-linecap="round"/>
</g>
</g>
</g>
<defs>
<filter id="filter0_d_61_1505" x="10.9775" y="17.5801" width="13.7378" height="13.4775" filterUnits="userSpaceOnUse" color-interpolation-filters="sRGB">
<feFlood flood-opacity="0" result="BackgroundImageFix"/>
<feColorMatrix in="SourceAlpha" type="matrix" values="0 0 0 0 0 0 0 0 0 0 0 0 0 0 0 0 0 0 127 0" result="hardAlpha"/>
<feOffset dy="4"/>
<feGaussianBlur stdDeviation="2"/>
<feComposite in2="hardAlpha" operator="out"/>
<feColorMatrix type="matrix" values="0 0 0 0 0 0 0 0 0 0 0 0 0 0 0 0 0 0 0.25 0"/>
<feBlend mode="normal" in2="BackgroundImageFix" result="effect1_dropShadow_61_1505"/>
<feBlend mode="normal" in="SourceGraphic" in2="effect1_dropShadow_61_1505" result="shape"/>
</filter>
<linearGradient id="paint0_linear_61_1505" x1="31.3014" y1="24.396" x2="22.3518" y2="1.01983" gradientUnits="userSpaceOnUse">
<stop offset="0.0147467" stop-color="#96A0A5"/>
<stop offset="0.28125" stop-color="#96A0A5"/>
<stop offset="0.458261" stop-color="#96A0A5"/>
<stop offset="0.476259" stop-color="#C1C9CD"/>
</linearGradient>
<linearGradient id="paint1_linear_61_1505" x1="17.4167" y1="17.7862" x2="17.4167" y2="22.5573" gradientUnits="userSpaceOnUse">
<stop stop-color="#B7B7B7"/>
<stop offset="1" stop-color="#B7B7B7"/>
</linearGradient>
</defs>
</svg>
