<svg width="34" height="34" viewBox="0 0 34 34" fill="none" xmlns="http://www.w3.org/2000/svg">
<g id="Group 1449">
<g id="Group 810">
<g id="Group 808" opacity="0.3">
<path id="Vector 281" d="M10.0347 5.15601L11.7532 4.14058C11.9013 4.0531 12.0805 4.04612 12.2334 4.12488C16.5903 6.36959 25.5272 10.9217 26.4096 11.5927C27.3087 12.2764 27.5085 12.9222 27.496 13.1596L27.232 23.7732C27.2304 23.8338 27.2015 23.8905 27.1532 23.9273L24.8132 25.7104L24.7737 14.3971C24.7712 13.6686 24.3727 12.999 23.7335 12.6494L10.0347 5.15601Z" fill="url(#paint0_linear_61_1531)"/>
<path id="Vector 282" d="M10.3689 5.60031C10.3742 5.60373 10.3797 5.60695 10.3852 5.60997C14.5354 7.8677 22.9993 12.4813 23.7132 12.9054C24.2862 13.2458 24.6323 13.9205 24.7647 14.3176C24.7816 14.3683 24.7894 14.4248 24.7891 14.4921C24.776 17.5833 24.7363 23.7835 24.6776 24.9276C24.6549 25.3703 24.5806 25.5498 24.5368 25.6076C24.5346 25.6064 24.5321 25.6051 24.5295 25.6035C24.4916 25.5809 24.4562 25.5542 24.4075 25.5174C24.4026 25.5137 24.3977 25.51 24.3925 25.5061C24.3406 25.467 24.2736 25.4171 24.1951 25.3763C20.8133 23.6158 13.9181 19.9859 11.9827 18.8152C11.0775 18.2676 10.5229 17.7772 10.1957 17.3874C9.86334 16.9913 9.78117 16.7182 9.77687 16.6032C9.77633 16.5888 9.77676 16.5727 9.77785 16.5481C9.77797 16.5454 9.7781 16.5424 9.77825 16.5394C9.77923 16.518 9.78054 16.4895 9.78043 16.4605C9.76794 13.1762 9.75104 6.57624 9.78054 5.79147C9.78692 5.62178 9.82443 5.54179 9.85067 5.50727C9.87177 5.47952 9.89731 5.46482 9.94088 5.45973C10.0543 5.44648 10.2288 5.5097 10.3689 5.60031Z" fill="#204B58" stroke="#A9AFB7" stroke-width="0.5" stroke-linejoin="round"/>
</g>
<path id="Vector 278" d="M7.27637 8.65337L8.99837 7.68065C9.1451 7.59778 9.32081 7.59291 9.47061 7.67008C13.4047 9.69679 21.4359 13.7879 22.23 14.3918C23.0404 15.0081 23.2205 15.5901 23.2093 15.8041L22.9715 25.3614C22.97 25.4221 22.941 25.4789 22.8926 25.5157L20.5561 27.2902V16.3768L7.27637 8.65337Z" fill="url(#paint1_linear_61_1531)"/>
<path id="Vector 280" d="M10.5159 22.3886C11.09 22.1612 11.8712 21.195 12.1901 20.7402C14.3761 21.8799 18.7766 24.2566 18.8905 24.6464C19.0328 25.1337 18.264 25.9728 17.1534 26.9743C16.265 27.7756 15.5871 27.7372 15.3592 27.6178C15.3592 27.6178 9.23725 23.9349 9.12549 23.8061C9.01373 23.6773 8.98795 23.5167 9.03224 23.4533C9.32124 23.04 10.0181 22.5857 10.5159 22.3886Z" fill="#A9AFB7"/>
<path id="Vector 279" opacity="0.8" d="M10.4004 22.0741C10.9745 21.8468 11.7558 20.8805 12.0746 20.4258C14.2606 21.5654 18.6611 23.9422 18.775 24.332C18.9174 24.8192 18.1485 25.6583 17.038 26.6599C16.1495 27.4611 15.4716 27.4227 15.2437 27.3034L9.13941 23.6007C9.04377 23.5427 9.01413 23.4176 9.07817 23.3259C9.36675 22.9127 9.90164 22.2717 10.4004 22.0741Z" fill="url(#paint2_linear_61_1531)"/>
<path id="Vector 277" d="M7.7571 9.01104C7.76239 9.01446 7.76782 9.01768 7.77335 9.02069C11.5147 11.056 19.1432 15.2142 19.7862 15.5962C20.2896 15.8953 20.598 16.4871 20.7196 16.8449C20.7364 16.8945 20.7442 16.9504 20.7439 17.0181C20.732 19.8092 20.6962 25.3814 20.6434 26.4103C20.6252 26.765 20.5703 26.9278 20.5331 26.9918C20.5022 26.9734 20.4695 26.9493 20.4241 26.9153L20.4196 26.9119C20.3704 26.8749 20.3039 26.8251 20.2271 26.7851C17.1721 25.1946 10.9782 21.9336 9.23785 20.8809C8.42928 20.3918 7.93291 19.9541 7.63936 19.6064C7.34093 19.253 7.26688 19.0107 7.2616 18.9108C7.26091 18.8978 7.26115 18.8827 7.26214 18.8588C7.26228 18.8555 7.26244 18.8519 7.26261 18.848C7.26351 18.8275 7.26474 18.7996 7.26464 18.772C7.25338 15.8085 7.2382 9.86967 7.26475 9.16356C7.27039 9.01354 7.30345 8.94704 7.32295 8.92139C7.33731 8.9025 7.35383 8.89204 7.3875 8.88811C7.48113 8.87717 7.63232 8.93038 7.7571 9.01104Z" fill="#204B58" stroke="#A9AFB7" stroke-width="0.5" stroke-linejoin="round"/>
<g id="Group 798">
<g id="Group 796">
<path id="Vector 235" d="M11.0425 16.9988L12.6232 15.5903L11.8381 14.3481L11.6369 14.3691L9.50577 16.7432L10.3538 19.1961L10.3972 19.1757L11.5684 18.7787L11.6429 18.5853L11.0425 16.9988Z" fill="#898989"/>
<path id="Vector 232" d="M10.8162 16.8872L12.3651 15.5101L11.6366 14.3707L9.36681 16.5357L10.3459 19.2012L11.5698 18.7787L10.8162 16.8872Z" fill="#E8E9EA"/>
<path id="Vector 236" d="M16.4984 19.523L16.2212 17.4752L17.6567 17.0106L17.7962 17.1353L17.8528 20.2621L15.5618 21.635L15.542 21.5929L14.9049 20.5737L14.9767 20.3793L16.4984 19.523Z" fill="#A19D9D"/>
<path id="Vector 237" d="M16.7466 19.5739L16.473 17.5698L17.7948 17.1359L18.0977 20.186L15.564 21.6428L14.9033 20.5719L16.7466 19.5739Z" fill="#E8E9EA"/>
</g>
<path id="Rectangle 494" d="M14.3459 14.9727C14.51 14.8193 14.7487 14.7752 14.9524 14.8608L14.9794 14.8722C15.2604 14.9903 15.4008 15.301 15.3049 15.5925L13.6184 20.7154C13.5119 21.0386 13.1625 21.2217 12.8377 21.1244L12.8244 21.1204C12.6203 21.0593 12.4681 20.8934 12.4259 20.6865C12.4055 20.5861 12.4122 20.4815 12.4454 20.3832L14.1956 15.2053C14.2254 15.117 14.2771 15.037 14.3459 14.9727Z" fill="#A19D9D"/>
<rect id="Rectangle 492" width="0.97421" height="6.51504" rx="0.487105" transform="matrix(0.956229 0.286519 -0.312782 0.951837 14.3198 14.7559)" fill="#E8E9EA"/>
</g>
</g>
</g>
<defs>
<linearGradient id="paint0_linear_61_1531" x1="30.9215" y1="19.742" x2="21.0928" y2="-0.232201" gradientUnits="userSpaceOnUse">
<stop offset="0.357995" stop-color="#B5B5B5"/>
<stop offset="0.361594" stop-color="white"/>
</linearGradient>
<linearGradient id="paint1_linear_61_1531" x1="26.3349" y1="21.8628" x2="17.4159" y2="3.67511" gradientUnits="userSpaceOnUse">
<stop offset="0.360338" stop-color="#96A0A5"/>
<stop offset="0.369397" stop-color="#C1C9CD"/>
</linearGradient>
<linearGradient id="paint2_linear_61_1531" x1="14.7562" y1="23.5866" x2="13.1127" y2="26.9589" gradientUnits="userSpaceOnUse">
<stop stop-color="#677D98"/>
<stop offset="0.393886" stop-color="#DEE0E2"/>
<stop offset="0.945927" stop-color="#BCC6D1"/>
</linearGradient>
</defs>
</svg>
