<svg width="34" height="34" viewBox="0 0 34 34" fill="none" xmlns="http://www.w3.org/2000/svg">
<g id="Group 1450">
<g id="Group 823">
<g id="Group 821" opacity="0.3">
<g id="Group 810">
<path id="Vector 278" d="M10.8706 5.96744L12.4426 5.1243C12.5877 5.04648 12.7582 5.04323 12.9045 5.11873C16.5114 6.98002 25.4772 11.6325 26.1876 12.1727C26.9137 12.7249 27.075 13.2463 27.0649 13.438L26.8517 24.6116C26.8505 24.6757 26.8186 24.7354 26.7659 24.772L24.6266 26.2589L24.688 13.951L10.8706 5.96744Z" fill="url(#paint0_linear_320_4640)"/>
<path id="Vector 277" d="M11.21 6.30718C11.2153 6.31054 11.2207 6.31371 11.2262 6.31667C14.5788 8.11493 23.4109 12.8536 23.9863 13.1907C24.4221 13.446 24.6937 13.9487 24.8052 14.2639C24.8226 14.3131 24.8304 14.3674 24.8299 14.4351C24.8121 16.9928 24.5694 24.7016 24.5221 25.6118C24.5078 25.8852 24.4685 26.0252 24.4388 26.0894C24.4185 26.0768 24.3951 26.0603 24.365 26.0381C24.3605 26.0348 24.3559 26.0314 24.351 26.0278C24.3053 25.9939 24.2412 25.9463 24.1689 25.9092C21.347 24.458 13.8664 20.5237 12.3106 19.5957C11.5955 19.1692 11.155 18.788 10.8934 18.4853C10.6272 18.1772 10.5606 17.9677 10.5542 17.884C10.5534 17.8728 10.5534 17.8594 10.5542 17.8368C10.5544 17.833 10.5546 17.8286 10.5548 17.8236C10.5556 17.8041 10.5568 17.7769 10.5567 17.7509C10.5513 15.0878 10.7837 7.04625 10.8077 6.41776C10.8126 6.28932 10.8411 6.23771 10.8535 6.22163C10.861 6.21194 10.869 6.20516 10.8943 6.20225C10.9264 6.19854 10.976 6.20398 11.0394 6.22515C11.101 6.24568 11.1617 6.27638 11.21 6.30718Z" fill="#204B58" stroke="#A9AFB7" stroke-width="0.5" stroke-linejoin="round"/>
</g>
</g>
<g id="Group 822">
<path id="Vector 296" d="M21.4721 28.1193L7.24561 20.7534L10.3504 19.207L24.9905 26.0636L21.4721 28.1193Z" fill="#C4C7CA"/>
<path id="Vector 297" d="M24.8339 27.0023L24.9781 26.0605L21.397 28.0702L21.4224 28.8505L24.8339 27.0023Z" fill="#A9AFB7"/>
<path id="Vector 298" d="M7.24658 21.5492L21.42 28.8359L21.4714 28.0483L7.25395 20.7705L7.24658 21.5492Z" fill="#B8BDC4"/>
<path id="Vector 293" d="M20.8753 26.959L7.00293 19.7622L10.1077 18.2158L24.5103 24.9369L20.8753 26.959Z" fill="#C4C7CA"/>
<path id="Vector 294" d="M24.3562 25.8428L24.5238 24.9248L20.915 26.9253L20.9405 27.7055L24.3562 25.8428Z" fill="#D5D7D8"/>
<path id="Vector 295" d="M7 20.5589L20.9234 27.7175L20.9748 26.9299L7.01238 19.7793L7 20.5589Z" fill="#E8E9EB"/>
<g id="Group 810_2">
<path id="Vector 278_2" d="M8.51954 9.28532L10.0378 8.42773C10.1845 8.34485 10.3608 8.34029 10.5106 8.41746C14.044 10.2376 21.2064 13.8865 21.9161 14.4262C22.6421 14.9783 22.8035 15.4998 22.7934 15.6915L22.5806 24.2435C22.5791 24.3043 22.5501 24.3611 22.5017 24.3978L20.4165 25.9816V16.2045L8.51954 9.28532Z" fill="url(#paint1_linear_320_4640)"/>
<path id="Vector 277_2" d="M8.9361 9.62771C8.9414 9.63113 8.94682 9.63435 8.95236 9.63737C12.3046 11.461 19.138 15.1858 19.7134 15.5277C20.1509 15.7876 20.4233 16.3007 20.5344 16.6209C20.5511 16.6692 20.5589 16.7248 20.5586 16.7927C20.5479 19.2983 20.5159 24.2728 20.4687 25.192C20.4545 25.4697 20.4151 25.6126 20.3849 25.6787C20.3648 25.666 20.3416 25.6494 20.3119 25.6272C20.3075 25.624 20.3029 25.6205 20.2981 25.6169C20.2521 25.5824 20.1877 25.5341 20.1153 25.4964C17.3715 24.0678 11.845 21.1579 10.2903 20.2174C9.57364 19.7839 9.1327 19.3964 8.87115 19.0888C8.60505 18.7759 8.53861 18.5628 8.53255 18.4769C8.53174 18.4656 8.53178 18.4516 8.53266 18.4285C8.5328 18.4247 8.53298 18.4205 8.53317 18.4158C8.53401 18.396 8.53515 18.3687 8.53505 18.3425C8.52497 15.6844 8.51144 10.3747 8.53517 9.74347C8.5401 9.61216 8.56893 9.55851 8.58202 9.54129C8.58997 9.53084 8.59789 9.52441 8.62214 9.52157C8.6536 9.5179 8.70259 9.52326 8.76587 9.54467C8.82719 9.56542 8.8878 9.59648 8.9361 9.62771Z" fill="#204B58" stroke="#A9AFB7" stroke-width="0.5" stroke-linejoin="round"/>
<path id="Union" d="M13.6671 14.2689L13.8211 12.6387L16.2717 13.8213L16.5048 13.948L16.3614 15.6377L16.0814 15.5099L16.0172 17.2628L16.2593 17.543L16.2415 18.0184L15.815 18.4115L15.8126 19.1894L15.4339 19.0974L15.4261 19.512L15.1911 19.4635L15.118 20.8825L14.7405 21.2413L14.5185 20.9036L14.5178 19.3564L14.302 19.307L14.2946 18.8204L13.6909 18.4225L13.9408 17.9457L13.5688 17.2275L13.5835 16.8369L13.7206 16.873L13.8685 14.3724L13.6671 14.2689Z" fill="#A19D9D"/>
<path id="Union_2" d="M13.4557 13.945L13.5773 12.3477L16.2564 13.8034L16.1889 15.35L15.87 15.1861L15.78 17.1485L16.0479 17.2192L16.0301 17.6945L15.6036 18.0877L15.6011 18.8656L15.2224 18.7735L15.2147 19.1881L14.9797 19.1397L14.9304 20.7876L14.6425 21.0709L14.2907 20.6315L14.3064 19.0326L14.0906 18.9831L14.0832 18.4965L13.695 18.4021L13.7294 17.6218L13.3574 16.9036L13.3721 16.513L13.5092 16.5492L13.6571 14.0486L13.4557 13.945Z" fill="#E8E9EA"/>
</g>
</g>
</g>
</g>
<defs>
<linearGradient id="paint0_linear_320_4640" x1="29.6149" y1="20.9564" x2="20.1757" y2="2.92823" gradientUnits="userSpaceOnUse">
<stop offset="0.412777" stop-color="#B5B5B5"/>
<stop offset="0.417151" stop-color="white"/>
</linearGradient>
<linearGradient id="paint1_linear_320_4640" x1="25.5935" y1="21.1193" x2="17.6033" y2="4.82544" gradientUnits="userSpaceOnUse">
<stop offset="0.372318" stop-color="#96A0A5"/>
<stop offset="0.380906" stop-color="#C1C9CE"/>
</linearGradient>
</defs>
</svg>
