<svg width="34" height="34" viewBox="0 0 34 34" fill="none" xmlns="http://www.w3.org/2000/svg">
<g id="Group 1453">
<g id="Group 829">
<g id="Group 811" opacity="0.3">
<path id="Vector 281" d="M10.7915 5.23588L12.7143 4.13508C12.8614 4.05085 13.0389 4.04577 13.1897 4.12332C17.3379 6.2574 24.6678 9.90349 25.5166 10.549C26.382 11.2071 26.5743 11.8287 26.5623 12.0572L26.5549 28.5305C26.5549 28.5929 26.5257 28.6517 26.4761 28.6895L23.9799 30.5902L23.9407 13.3196C23.939 12.5768 23.5258 11.8961 22.8676 11.5519L10.7915 5.23588Z" fill="url(#paint0_linear_320_4682)"/>
<path id="Vector 282" d="M11.3839 5.54856C11.3892 5.55199 11.3946 5.55521 11.4001 5.55822C13.3975 6.64481 16.1102 8.06792 18.4085 9.26998C18.7158 9.43074 19.0155 9.58742 19.305 9.73873C21.1866 10.7224 22.6344 11.4793 22.9277 11.6535C23.4743 11.9783 23.8061 12.6215 23.9344 13.0037C23.9517 13.0551 23.9591 13.1071 23.9588 13.1733C23.9557 14.0427 23.954 15.6175 23.9521 17.4659C23.9469 22.3246 23.9398 29.0737 23.8989 29.8713C23.8984 29.8811 23.8985 29.8909 23.8991 29.9006C23.9202 30.2194 23.8569 30.3687 23.8118 30.4267C23.7757 30.4731 23.7463 30.4712 23.7284 30.4665C23.7082 30.4611 23.6815 30.448 23.6313 30.414C23.6235 30.4087 23.6142 30.4022 23.6039 30.395C23.5617 30.3655 23.5007 30.3229 23.44 30.2914C22.3341 29.7187 20.9775 29.0382 19.5972 28.3457C16.951 27.0181 14.2174 25.6468 12.9946 24.9071C12.126 24.3817 11.5935 23.9113 11.2791 23.5375C10.9596 23.1576 10.8806 22.8962 10.8759 22.787C10.8753 22.7732 10.8756 22.7583 10.8767 22.7351C10.8768 22.7323 10.8769 22.7293 10.8771 22.7261C10.878 22.7057 10.8794 22.6778 10.8792 22.649C10.877 22.0723 10.8732 21.1937 10.8686 20.1339C10.8471 15.2022 10.8085 6.34667 10.8319 5.72506C10.838 5.56283 10.8738 5.48797 10.8975 5.45681C10.9161 5.43242 10.9382 5.41933 10.978 5.41468C11.0839 5.40231 11.2495 5.46173 11.3839 5.54856Z" fill="#204B58" stroke="#A9AFB7" stroke-width="0.5" stroke-linejoin="round"/>
</g>
<g id="Group 812">
<path id="Vector 281_2" d="M8.1748 9.00176L9.76702 8.08524C9.91431 8.00045 10.093 7.99549 10.2441 8.07322C13.7578 9.8801 19.9124 12.9422 20.6274 13.486C21.359 14.0424 21.5216 14.5679 21.5115 14.7611L21.5052 28.6729C21.5052 28.7353 21.476 28.7941 21.4264 28.8319L19.3282 30.4296L19.2955 16.016C19.2938 15.2727 18.8801 14.5917 18.2212 14.2476L8.1748 9.00176Z" fill="url(#paint1_linear_320_4682)"/>
<path id="Vector 282_2" d="M8.65764 9.29096C8.66294 9.29439 8.66836 9.29761 8.67389 9.30062C10.3629 10.2194 12.6566 11.4227 14.5996 12.439C14.8593 12.5748 15.1125 12.7072 15.357 12.835C16.9486 13.667 18.1715 14.3064 18.4185 14.4531C18.8603 14.7156 19.1351 15.234 19.2469 15.5567C19.264 15.606 19.2715 15.6581 19.2714 15.7254C19.27 16.9478 19.3111 19.7701 19.352 22.5751C19.3562 22.8647 19.3605 23.1542 19.3646 23.4416C19.4093 26.5235 19.4479 29.3632 19.4245 29.8199C19.424 29.8297 19.424 29.8395 19.4247 29.8492C19.4412 30.0998 19.3944 30.2171 19.3636 30.2614C19.3494 30.2817 19.3391 30.2865 19.3374 30.2873C19.3352 30.2882 19.3335 30.2885 19.331 30.2881C19.3222 30.2869 19.3029 30.281 19.255 30.2496C19.2395 30.2394 19.2275 30.2311 19.2134 30.2213C19.2027 30.2139 19.1908 30.2057 19.1754 30.1952C19.1451 30.1746 19.1077 30.1503 19.0658 30.1285C18.8463 30.0144 18.617 29.8953 18.3799 29.7721C15.6898 28.3746 12.0092 26.4626 10.5698 25.5919C9.84702 25.1546 9.40238 24.7638 9.13869 24.4535C8.87043 24.1379 8.80349 23.9228 8.79747 23.836C8.79667 23.8246 8.79674 23.8114 8.7976 23.7892C8.79773 23.7858 8.7979 23.7821 8.79807 23.7779C8.79891 23.7584 8.80009 23.7309 8.7999 23.7036C8.79003 22.3132 8.64639 18.8916 8.50866 15.7445C8.48586 15.2235 8.46321 14.7098 8.44134 14.2139C8.39709 13.2103 8.35604 12.2793 8.32338 11.5065C8.2742 10.3427 8.24504 9.55694 8.25059 9.40918C8.25558 9.27662 8.28469 9.22211 8.29821 9.20433C8.30658 9.19331 8.31508 9.18661 8.33996 9.18371C8.37205 9.17996 8.42172 9.18544 8.48565 9.20707C8.54762 9.22804 8.60884 9.25942 8.65764 9.29096Z" fill="#204B58" stroke="#A9AFB7" stroke-width="0.5" stroke-linejoin="round"/>
</g>
<g id="Group 813">
<g id="Union">
<path d="M11.8321 16.2665C11.6608 16.3402 11.7766 16.5669 11.8358 16.7366L12.1508 17.4755C11.5875 17.7259 11.1259 18.14 10.8567 18.6968L10.5267 18.4188C10.386 18.3002 9.88389 18.2361 9.77454 18.3816C9.66518 18.527 9.98998 18.8269 10.1307 18.9455L10.6411 19.3756C10.6259 19.4642 10.6147 19.5553 10.6078 19.6487C10.5393 20.5811 10.6873 21.6542 11.3465 22.7358C11.4509 22.9071 11.6526 23.0194 11.8272 23.0426L12.4595 23.4227C12.6317 23.4947 12.9754 23.3652 13.0687 23.21C13.162 23.0548 13.0981 22.8706 12.9259 22.7986L12.1345 22.4677C12.1213 22.4377 12.1057 22.4077 12.0877 22.3783C11.6276 21.6231 11.4944 20.8342 11.5527 20.0429C11.6724 18.4157 13.2644 17.7701 14.8179 18.4904C16.3715 19.2106 17.2919 21.0211 17.1722 22.6483C17.1144 23.4334 16.8213 23.9153 16.3054 24.2232C16.2936 24.2303 16.2825 24.2382 16.2721 24.2468L16.0313 24.1271C15.8646 24.0443 15.5941 24.1937 15.4901 24.3426C15.386 24.4915 15.4367 24.6794 15.6034 24.7622L16.2954 25.2649C16.4341 25.3641 16.7092 25.292 16.825 25.2229C17.4967 24.822 18.1362 24.0673 18.2116 23.0425C18.2517 22.496 18.1776 22.1021 18.0936 21.6146L18.3653 21.5649C18.5455 21.5136 18.7358 21.4807 18.7761 21.1974C18.7922 20.8375 18.3798 20.6147 18.1997 20.666L17.996 20.8582C17.812 20.225 17.5264 19.6572 17.1641 19.1678L17.5844 18.8963C17.7298 18.783 17.864 18.4964 17.7607 18.3471C17.6573 18.1977 17.3283 18.1127 17.1829 18.2261L16.7398 18.6659C16.3255 18.2358 15.8437 17.8888 15.3193 17.6378L15.4789 16.9879C15.538 16.8182 15.4054 16.6613 15.234 16.5876C14.8395 16.3894 14.7546 16.5576 14.6954 16.7273L14.6944 17.3836C14.0501 17.1774 13.3898 17.1456 12.7928 17.2701L12.4724 16.569C12.3525 16.313 12.0035 16.1929 11.8321 16.2665Z" fill="#898989"/>
<path fill-rule="evenodd" clip-rule="evenodd" d="M14.614 22.8433C15.1035 22.9422 15.4223 22.6407 15.326 22.17C15.2603 21.8489 15.0185 21.5319 14.7161 21.3315C14.7216 21.3177 14.7257 21.3033 14.7282 21.2882L14.9128 20.0749C14.9325 19.9575 14.9687 19.7827 14.7979 19.5536C14.4657 19.0755 14.3069 19.4573 14.3714 19.7562L14.2936 21.1446C14.2842 21.1425 14.2182 21.236 14.2088 21.2341C13.7193 21.1352 13.4571 21.3411 13.5534 21.8118C13.6496 22.2826 14.1245 22.7444 14.614 22.8433ZM14.5168 22.3679C14.7273 22.4104 14.871 22.2811 14.8277 22.0693C14.7844 21.8574 14.5731 21.6564 14.3626 21.6139C14.1521 21.5713 14.0084 21.7006 14.0517 21.9125C14.095 22.1243 14.3063 22.3254 14.5168 22.3679Z" fill="#898989"/>
</g>
</g>
<g id="Group 814">
<path id="Ellipse 3 (Stroke)" fill-rule="evenodd" clip-rule="evenodd" d="M14.4556 18.4517C12.902 17.7314 11.31 18.377 11.1903 20.0042C11.1321 20.7955 11.2652 21.5844 11.7254 22.3396C11.8789 22.5915 11.8586 22.8757 11.68 22.9744C11.5014 23.0732 11.1376 22.949 10.9841 22.6971C10.325 21.6155 10.1769 20.5424 10.2455 19.61C10.4019 17.4837 12.7828 16.5922 14.8025 17.5285C16.6706 18.3427 18.0437 20.3554 17.8492 23.0038C17.7739 24.0286 17.1343 24.7833 16.4626 25.1842C16.2876 25.2887 16.018 25.171 15.8604 24.9214C15.7029 24.6719 15.717 24.3848 15.8921 24.2804C16.408 23.9724 16.7521 23.3947 16.8098 22.6096C16.9295 20.9824 16.0091 19.1719 14.4556 18.4517Z" fill="#E8E9EA"/>
<rect id="Rectangle 79" width="1.52877" height="0.675466" rx="0.337733" transform="matrix(-0.329272 0.944235 -0.918669 -0.395028 15.293 16.6338)" fill="#E8E9EA"/>
<rect id="Rectangle 90" width="1.69225" height="0.794061" rx="0.39703" transform="matrix(-0.922595 -0.38577 0.515185 -0.857079 12.5903 23.5508)" fill="#E8E9EA"/>
<rect id="Rectangle 91" width="1.58364" height="0.889761" rx="0.444881" transform="matrix(-0.895504 -0.445053 0.572897 -0.819627 16.4004 25.3193)" fill="#E8E9EA"/>
<rect id="Rectangle 86" width="1.52877" height="0.675466" rx="0.337733" transform="matrix(0.329272 0.944235 0.918669 -0.395028 11.4302 16.4102)" fill="#E8E9EA"/>
<rect id="Rectangle 87" width="1.56853" height="0.657757" rx="0.328879" transform="matrix(-0.788851 0.614585 -0.569044 -0.822307 17.6108 18.498)" fill="#E8E9EA"/>
<rect id="Rectangle 88" width="1.59345" height="0.648594" rx="0.324297" transform="matrix(-0.961795 0.273769 -0.194418 -0.980919 18.6055 21.2148)" fill="#E8E9EA"/>
<rect id="Rectangle 89" width="1.56552" height="0.658981" rx="0.329491" transform="matrix(0.764739 0.64434 0.600932 -0.7993 9.51318 18.6924)" fill="#E8E9EA"/>
<path id="Ellipse 4" d="M14.7185 22.0819C14.7853 22.4086 14.5646 22.6332 14.2014 22.5598C13.8383 22.4864 13.5027 22.1495 13.4359 21.8228C13.3691 21.4961 13.5898 21.2715 13.953 21.3449C14.3162 21.4183 14.6517 21.7553 14.7185 22.0819Z" stroke="#E8E9EA" stroke-width="0.5"/>
<rect id="Rectangle 85" width="0.452513" height="2.17371" rx="0.226257" transform="matrix(0.988656 0.150199 -0.1658 0.986159 14.2432 19.25)" fill="#E8E9EA"/>
</g>
</g>
</g>
<defs>
<linearGradient id="paint0_linear_320_4682" x1="26.8747" y1="23.9553" x2="16.6361" y2="1.47032" gradientUnits="userSpaceOnUse">
<stop offset="0.458002" stop-color="#B5B5B5"/>
<stop offset="0.472503" stop-color="white"/>
</linearGradient>
<linearGradient id="paint1_linear_320_4682" x1="23.4626" y1="25.0702" x2="14.4639" y2="5.2335" gradientUnits="userSpaceOnUse">
<stop offset="0.28125" stop-color="#96A0A5"/>
<stop offset="0.484113" stop-color="#96A0A5"/>
<stop offset="0.49489" stop-color="#C1C9CD"/>
</linearGradient>
</defs>
</svg>
