<svg width="34" height="34" viewBox="0 0 34 34" fill="none" xmlns="http://www.w3.org/2000/svg">
<g id="Group 1451">
<g id="Group 809">
<g id="Group 807" opacity="0.3">
<path id="Vector 276" d="M12.4406 6.57314C12.7783 6.377 13.2489 6.31154 13.5222 6.29811C14.5579 6.21618 16.3542 6.10257 17.6156 6.01207C18.877 5.92158 19.2879 6.40994 19.5111 6.55606C21.6432 9.0589 26.3278 14.9632 26.9109 15.5966C27.494 16.2301 27.5605 16.8221 27.5208 17.039L27.3441 23.9485C27.1775 24.3218 25.6472 26.1134 24.3679 26.6461L24.5166 26.5612L24.8439 26.2219C24.8488 23.7567 24.8617 18.7359 24.8736 18.374C24.8855 18.012 24.8332 17.4736 24.8056 17.2496C22.2611 14.176 17.1778 7.99747 17.1999 7.87173C17.2219 7.74599 16.6947 7.505 16.4283 7.40022L9.73193 8.0289C10.6597 7.44387 12.0491 6.80052 12.4406 6.57314Z" fill="url(#paint0_linear_320_4663)"/>
<path id="Polygon 5" d="M16.4371 7.47104C16.6869 7.44605 16.9325 7.54762 17.0917 7.74166L24.7382 17.0638C24.8507 17.201 24.911 17.3736 24.9082 17.551L24.7806 25.8288C24.7746 26.2188 24.4707 26.5391 24.0815 26.5655L17.7567 26.995C17.5221 27.0109 17.2936 26.9159 17.1395 26.7383L9.71179 18.1809C9.594 18.0452 9.52885 17.8717 9.5282 17.6921L9.49598 8.84702C9.49457 8.46068 9.78688 8.13648 10.1713 8.09802L16.4371 7.47104Z" fill="#204B58" stroke="#A9AFB7" stroke-width="0.5" stroke-linejoin="round"/>
</g>
<g id="Group 806">
<path id="Vector 276_2" d="M9.46005 10.3011C9.75063 10.1324 10.1555 10.076 10.3907 10.0645C11.2819 9.99397 13.3356 9.83351 14.421 9.75564C15.5064 9.67777 15.86 10.098 16.052 10.2237C17.8867 12.3773 21.7876 16.6664 22.2893 17.2115C22.7911 17.7566 22.8483 18.266 22.8141 18.4526L22.7929 26.1297C22.6496 26.4509 21.116 27.2627 20.0152 27.721L20.1432 27.648L20.4248 27.356C20.429 25.2348 20.4401 20.9146 20.4504 20.6031C20.4606 20.2916 20.4156 19.8284 20.3918 19.6356C18.2024 16.9909 13.8284 11.6745 13.8473 11.5663C13.8663 11.4581 13.4126 11.2507 13.1834 11.1605L7.42139 11.7015C8.21968 11.1981 9.12319 10.4968 9.46005 10.3011Z" fill="url(#paint1_linear_320_4663)"/>
<path id="Polygon 5_2" d="M13.1197 11.264C13.3694 11.239 13.6151 11.3406 13.7743 11.5346L20.2741 19.4587C20.3866 19.5959 20.4468 19.7685 20.4441 19.9459L20.337 26.8893C20.331 27.2793 20.0271 27.5996 19.6379 27.626L14.393 27.9821C14.1584 27.9981 13.9299 27.903 13.7758 27.7255L7.46397 20.4537C7.34618 20.318 7.28103 20.1445 7.28037 19.9648L7.25331 12.5324C7.2519 12.1461 7.5442 11.8219 7.92863 11.7834L13.1197 11.264Z" fill="#204B58" stroke="#A9AFB7" stroke-width="0.5" stroke-linejoin="round"/>
<path id="Polygon 6" opacity="0.6" d="M13.1547 13.6861C13.4962 13.6505 13.8321 13.7925 14.0444 14.0624L18.1763 19.3135C18.3181 19.4938 18.3937 19.7173 18.3903 19.9467L18.3249 24.3665C18.3173 24.8856 17.9136 25.3125 17.3956 25.3492L14.4039 25.561C14.0829 25.5837 13.7706 25.4506 13.5648 25.2033L9.55697 20.39C9.40814 20.2112 9.32627 19.9862 9.32546 19.7536L9.30882 14.9919C9.30703 14.4785 9.69438 14.0471 10.2051 13.9938L13.1547 13.6861Z" fill="white"/>
</g>
<g id="Group 269">
<rect id="Rectangle 232" width="6.40642" height="6.68316" rx="3.20321" transform="matrix(0.109289 0.988439 0.958458 0.278551 10.5312 15.4902)" fill="#A19D9D"/>
<rect id="Rectangle 233" x="0.266937" y="0.316747" width="5.90642" height="6.18316" rx="2.95321" transform="matrix(0.109289 0.988439 0.958458 0.278551 10.0235 15.6756)" fill="#E8E9EA" stroke="#263238" stroke-width="0.5"/>
<path id="Vector 13" d="M13.9107 22.5903L13.6729 19.4844L11.1514 20.1316C11.1514 20.1316 11.3327 21.9123 13.9107 22.5903Z" fill="#263238"/>
<path id="Vector 14" d="M16.28 19.8878L13.4991 19.6651L13.5115 17.0769C13.5115 17.0769 15.2785 17.5301 16.28 19.8878Z" fill="#263238"/>
</g>
</g>
</g>
<defs>
<linearGradient id="paint0_linear_320_4663" x1="31.021" y1="20.9705" x2="22.0753" y2="1.48423" gradientUnits="userSpaceOnUse">
<stop offset="0.279789" stop-color="#B5B5B5"/>
<stop offset="0.292973" stop-color="white"/>
</linearGradient>
<linearGradient id="paint1_linear_320_4663" x1="25.8428" y1="22.7795" x2="18.0228" y2="5.85017" gradientUnits="userSpaceOnUse">
<stop offset="0.284057" stop-color="#96A0A5"/>
<stop offset="0.313945" stop-color="#C1C9CD"/>
</linearGradient>
</defs>
</svg>
