<svg width="24" height="24" viewBox="0 0 24 24" fill="none" xmlns="http://www.w3.org/2000/svg">
<g id="close_top_icon">
<g id="Vector">
<path d="M7.14694 7.14645C7.3422 6.95118 7.65878 6.95118 7.85404 7.14645L16.826 16.1184C17.0212 16.3136 17.0212 16.6302 16.826 16.8255C16.6307 17.0208 16.3141 17.0208 16.1189 16.8255L7.14694 7.85355C6.95167 7.65829 6.95167 7.34171 7.14694 7.14645Z" fill="#375278"/>
<path d="M16.826 7.14646C16.6307 6.9512 16.3141 6.9512 16.1189 7.14646L7.14694 16.1184C6.95167 16.3137 6.95167 16.6302 7.14693 16.8255C7.3422 17.0208 7.65878 17.0208 7.85404 16.8255L16.826 7.85357C17.0212 7.65831 17.0212 7.34172 16.826 7.14646Z" fill="#375278"/>
</g>
</g>
</svg>
